<svg width="64" height="65" fill="none" xmlns="http://www.w3.org/2000/svg"><path d="M64 32.905c0 32 0 32-32 32s-32 0-32-32 0-32 32-32 32 0 32 32z" fill="#F7B519"/><path d="M46.633 45.847l-5.156-5.045-.12-.184a1.208 1.208 0 00-.853-.35c-.32 0-.628.126-.853.35-4.382 4.023-11.134 4.242-15.778.511-4.644-3.73-5.74-10.253-2.56-15.241 3.18-4.988 9.65-6.895 15.116-4.455 5.467 2.44 8.237 8.468 6.471 14.088a1.17 1.17 0 00.273 1.158c.296.31.739.444 1.162.348.422-.095.761-.404.889-.81 2.11-6.669-1.077-13.845-7.5-16.887-6.422-3.042-14.153-1.036-18.19 4.72-4.038 5.755-3.171 13.534 2.04 18.304 5.21 4.77 13.2 5.098 18.802.773l4.566 4.467c.471.46 1.233.46 1.705 0a1.177 1.177 0 000-1.681l-.014-.066z" fill="#343A41"/></svg>