<svg width="64" height="65" fill="none" xmlns="http://www.w3.org/2000/svg"><path d="M64 32.71c0 32 0 32-32 32s-32 0-32-32 0-32 32-32 32 0 32 32z" fill="#F7B519"/><path d="M40.247 47.622a1.004 1.004 0 01-.528-.135l-7.707-4.062-6.786 3.657a2.28 2.28 0 01-3.093-.92l-.023-.042a2.463 2.463 0 01-.237-1.501l1.32-7.797-5.517-5.59a2.404 2.404 0 010-3.343 2.24 2.24 0 011.32-.677l7.565-1.15 3.364-7.014a2.272 2.272 0 014.131 0l3.38 7.039 7.59 1.163c.613.091 1.164.43 1.524.937.672.966.57 2.272-.243 3.123l-5.492 5.524.765 4.202a1.174 1.174 0 01-.937 1.35 1.137 1.137 0 01-1.32-.92l-.779-4.201a2.44 2.44 0 01.66-2.114l5.505-5.562-7.59-1.179a2.28 2.28 0 01-1.73-1.35l-3.377-7.01-3.42 7.12a2.277 2.277 0 01-1.73 1.351l-7.564 1.15 5.464 5.554a2.39 2.39 0 01.66 2.085l-1.32 7.796 6.785-3.641a2.206 2.206 0 012.164 0l7.697 4.062c.47.256.708.798.58 1.32-.117.52-.576.89-1.108.9l.027-.125z" fill="#343A41"/></svg>