<svg width="64" height="65" fill="none" xmlns="http://www.w3.org/2000/svg"><path d="M64 32.71c0 32 0 32-32 32s-32 0-32-32 0-32 32-32 32 0 32 32z" fill="#F7B519"/><path fill-rule="evenodd" clip-rule="evenodd" d="M47 30.594c0 .634-.514 1.149-1.148 1.149h-.013a1.134 1.134 0 01-1.134-1.162v-3.472c0-4.568-2.52-7.09-7.085-7.09H26.38c-4.578 0-7.084 2.522-7.084 7.09V38.37c0 4.568 2.52 7.076 7.084 7.076h11.24c4.578 0 7.085-2.521 7.085-7.076a1.148 1.148 0 112.295 0c0 5.782-3.588 9.373-9.367 9.373H26.38c-5.792 0-9.38-3.59-9.38-9.373V27.109c0-5.796 3.588-9.387 9.38-9.387h11.24c5.765 0 9.38 3.591 9.38 9.387v3.485zm-22.56 9.175v-9.611a1.136 1.136 0 011.188-1.095 1.147 1.147 0 011.108 1.188v9.598a1.149 1.149 0 11-2.295-.08zm6.465-14.06v14.073a1.148 1.148 0 102.295 0V25.71a1.148 1.148 0 10-2.295 0zm6.359 14.06v-4.488a1.148 1.148 0 112.295 0v4.489a1.148 1.148 0 11-2.295 0z" fill="#343A41"/></svg>