<svg width="64" height="65" fill="none" xmlns="http://www.w3.org/2000/svg"><path d="M64 32.905c0 32 0 32-32 32s-32 0-32-32 0-32 32-32 32 0 32 32z" fill="#F7B519"/><path fill-rule="evenodd" clip-rule="evenodd" d="M41.275 21.791H38.33a4.445 4.445 0 00-4.401-3.874h-3.873a4.444 4.444 0 00-4.401 3.873l-2.93.001c-3.157 0-5.725 2.564-5.725 5.715v5.204c0 .378.189.731.506.94 3.088 2.04 6.744 3.398 10.57 3.931a1.115 1.115 0 001.24-.818 2.74 2.74 0 012.669-2.035c1.248 0 2.331.836 2.634 2.029a1.126 1.126 0 001.245.84c3.852-.534 7.524-1.9 10.617-3.947a1.13 1.13 0 00.504-.94v-5.204a5.72 5.72 0 00-5.71-5.715zm3.46 10.304c-2.465 1.532-5.306 2.605-8.297 3.132a4.96 4.96 0 00-4.453-2.751 5.032 5.032 0 00-4.468 2.738c-2.973-.524-5.805-1.591-8.267-3.12v-4.588a3.473 3.473 0 013.477-3.463l4.017-.003a1.123 1.123 0 001.125-1.127l-.002-.556c0-1.207.983-2.188 2.189-2.188h3.873c1.01 0 1.863.689 2.113 1.622h-4.05a1.126 1.126 0 000 2.252h9.283a3.466 3.466 0 013.46 3.463v4.589zm-11.618 5.912v1.942a1.126 1.126 0 11-2.25 0v-1.942a1.126 1.126 0 012.25 0zm12.706-.988c-.59 0-1.06.459-1.105 1.035 0 0-.23 2.626-.279 3.454-.055.918-.427 1.916-.947 2.542-.734.885-1.547 1.232-2.9 1.235-.888.002-5.678.003-9.295.003a1.126 1.126 0 00-.002 2.252c3.492 0 8.463-.002 9.301-.003 2.002-.005 3.473-.656 4.628-2.05.83-.999 1.376-2.436 1.461-3.843.034-.58.15-2.082.215-2.918v-.002c.027-.343.044-.573.044-.582 0-.62-.502-1.123-1.122-1.123zm-22.43 8.266l1.703.001c.62 0 1.13.505 1.13 1.126 0 .621-.51 1.126-1.133 1.126-.81 0-1.401 0-1.703-.002-2.002-.004-3.474-.656-4.629-2.05-.828-.998-1.375-2.435-1.46-3.843-.034-.57-.147-2.038-.213-2.881l-.047-.62c0-.62.502-1.124 1.122-1.124.59 0 1.057.46 1.104 1.038 0 0 .23 2.625.28 3.452.056.917.426 1.915.947 2.54.735.888 1.548 1.234 2.9 1.237z" fill="#343A41"/></svg>