<svg width="64" height="65" fill="none" xmlns="http://www.w3.org/2000/svg"><path d="M64 32.71c0 32 0 32-32 32s-32 0-32-32 0-32 32-32 32 0 32 32z" fill="#F7B519"/><path fill-rule="evenodd" clip-rule="evenodd" d="M27.225 26.868c0 .577-.465 1.045-1.039 1.045a1.042 1.042 0 01-1.038-1.045c0-3.802 3.074-6.894 6.853-6.894 3.777 0 6.851 3.092 6.851 6.894s-3.074 6.894-6.851 6.894a6.77 6.77 0 01-4.215-1.448 1.049 1.049 0 01-.183-1.465 1.033 1.033 0 011.458-.183 4.73 4.73 0 002.94 1.006c2.634 0 4.774-2.155 4.774-4.804 0-2.648-2.14-4.804-4.774-4.804s-4.776 2.155-4.776 4.804zm-2.694 4.34c0 .578-.465 1.046-1.038 1.046-2.99 0-5.423-2.447-5.423-5.455s2.433-5.456 5.422-5.456c.574 0 1.04.468 1.04 1.045s-.466 1.045-1.04 1.045c-1.844 0-3.345 1.51-3.345 3.366s1.501 3.365 3.346 3.365c.573 0 1.038.468 1.038 1.045zm-2.984 5.836a13.04 13.04 0 00-1.993.291c-1.005.2-1.696.54-1.875.916a1.059 1.059 0 000 .901c.086.18.435.627 1.857.921.562.116.924.668.809 1.233a1.039 1.039 0 01-1.226.814c-1.718-.354-2.833-1.05-3.315-2.07a3.138 3.138 0 010-2.697c.488-1.03 1.605-1.724 3.322-2.064.733-.165 1.51-.278 2.28-.33a1.048 1.048 0 011.107.972 1.041 1.041 0 01-.966 1.113zM40.525 30.2c-.573 0-1.039.468-1.039 1.045s.466 1.045 1.039 1.045c2.983 0 5.41-2.443 5.41-5.444 0-3.002-2.427-5.443-5.41-5.443-.573 0-1.039.466-1.039 1.045 0 .576.466 1.045 1.039 1.045 1.837 0 3.333 1.504 3.333 3.353 0 1.85-1.496 3.354-3.333 3.354zm4.38 5.115c1.69.337 2.805 1.03 3.29 2.054a3.135 3.135 0 010 2.695c-.48 1.015-1.592 1.71-3.307 2.066a1.04 1.04 0 01-1.225-.812 1.045 1.045 0 01.808-1.235c1.416-.294 1.765-.74 1.85-.918a1.046 1.046 0 000-.896c-.177-.375-.866-.713-1.843-.908-.68-.15-1.35-.25-2.012-.294a1.042 1.042 0 01-.967-1.114 1.047 1.047 0 011.105-.97c.769.05 1.541.164 2.3.332zM32 35.924c-2.5 0-10.11 0-10.11 4.797 0 1.083.424 2.582 2.443 3.578.62.304 1.371.552 2.232.737a1.035 1.035 0 001.231-.803 1.044 1.044 0 00-.799-1.24c-.695-.15-1.285-.342-1.75-.572-1.134-.558-1.28-1.2-1.28-1.7 0-2.237 4.37-2.707 8.033-2.707 5.331 0 8.033.902 8.033 2.682 0 2.237-4.369 2.706-8.033 2.706-.573 0-1.038.468-1.038 1.045s.465 1.045 1.038 1.045c2.501 0 10.11 0 10.11-4.796 0-4.772-7.344-4.772-10.11-4.772z" fill="#343A41"/></svg>