<svg width="64" height="65" fill="none" xmlns="http://www.w3.org/2000/svg"><path d="M64 32.905c0 32 0 32-32 32s-32 0-32-32 0-32 32-32 32 0 32 32z" fill="#F7B519"/><path d="M45.853 33.944c.633 0 1.147-.514 1.147-1.148v-1.532c0-6.073-2.703-9.03-8.242-9.03H34.67a2.136 2.136 0 01-1.7-.832l-1.32-1.756a4.482 4.482 0 00-3.547-1.729H25.23c-5.46 0-8.229 3.155-8.229 9.387v11.261c0 5.783 3.587 9.374 9.376 9.374H37.61c5.776 0 9.376-3.591 9.376-9.374a1.16 1.16 0 00-2.308 0c0 4.555-2.505 7.076-7.068 7.076H26.363c-4.563 0-7.069-2.508-7.069-7.076V37.47h18.462a1.148 1.148 0 000-2.297H19.294v-7.921c0-4.964 1.767-7.09 5.921-7.09h2.901c.666.01 1.291.32 1.702.845l1.318 1.743a4.442 4.442 0 003.534 1.77h4.075c4.286 0 5.947 1.913 5.947 6.745v1.532a1.15 1.15 0 001.16 1.148z" fill="#343A41"/></svg>