<svg width="12" height="12" viewBox="0 0 12 12" fill="none" xmlns="http://www.w3.org/2000/svg">
<path opacity="0.5" d="M4.5413 0.603721L0.604724 4.54162C0.216874 4.9326 0 5.45562 0 6C0 6.54438 0.216874 7.0674 0.604724 7.45837L4.5413 11.3963C4.73059 11.5873 4.95727 11.7391 5.20786 11.8428C5.45845 11.9466 5.72784 12 6 12C6.27216 12 6.54154 11.9466 6.79214 11.8428C7.04273 11.7391 7.26941 11.5873 7.4587 11.3963L11.3953 7.45837C11.7831 7.0674 12 6.54438 12 6C12 5.45562 11.7831 4.9326 11.3953 4.54162L7.4587 0.603721C7.26941 0.412736 7.04273 0.260873 6.79214 0.15716C6.54154 0.053447 6.27216 0 6 0C5.72784 0 5.45845 0.053447 5.20786 0.15716C4.95727 0.260873 4.73059 0.412736 4.5413 0.603721Z" fill="#F7B519"/>
</svg>
