<svg width="16" height="16" fill="none" xmlns="http://www.w3.org/2000/svg"><path clip-rule="evenodd" d="M9.293.529a.587.587 0 01.652-.524c3.203.357 5.692 2.86 6.051 6.086a.591.591 0 01-.586.66.59.59 0 01-.584-.527c-.299-2.67-2.359-4.744-5.012-5.04a.593.593 0 01-.52-.655zM1.47 2.898c-.405.56-.376 1.278.058 2.24a.595.595 0 01-.292.785.587.587 0 01-.78-.294C-.163 4.262-.152 3.122.489 2.24.625 2.01 2.12.08 3.52.171c.404.033.775.224 1.124.567.37.363 1.928 2.27 2.053 2.876.134.65-.155 1.156-.366 1.526l-.001.001c-.208.365-.28.521-.209.718.526 1.296 1.339 2.354 2.406 3.122a.597.597 0 01.137.829.587.587 0 01-.822.137c-1.251-.901-2.2-2.132-2.82-3.661-.273-.756.05-1.323.287-1.736.177-.31.275-.496.234-.693-.11-.286-1.26-1.815-1.722-2.27-.143-.141-.278-.224-.377-.232-.53-.025-1.713 1.107-1.974 1.543zm9.015 6.852c.44-.279 1.043-.658 1.81-.499.6.125 2.494 1.694 2.855 2.068.34.35.53.723.562 1.11.051 1.457-1.888 2.98-2.11 3.109a2.456 2.456 0 01-1.476.462c-.554 0-1.17-.153-1.837-.465C7.722 14.46 3.842 10.98 1.66 7.789a.596.596 0 01.15-.825.588.588 0 01.82.153c2.037 2.98 5.761 6.339 8.131 7.331.96.448 1.674.476 2.204.093.413-.253 1.59-1.43 1.569-2.042-.007-.072-.089-.207-.228-.351-.452-.467-1.97-1.624-2.288-1.744-.253-.052-.51.099-.907.35l-.204.128a.588.588 0 01-.809-.203.596.596 0 01.201-.815l.184-.114zm1.565-3.471a.59.59 0 101.157-.227 4.066 4.066 0 00-3.215-3.237.599.599 0 00-.691.47.594.594 0 00.466.695 2.885 2.885 0 012.283 2.299z"/></svg>