<svg width="52" height="52" viewBox="0 0 52 52" fill="none" xmlns="http://www.w3.org/2000/svg">
<path d="M36.4745 30.7614C36.1039 31.1394 35.524 31.1738 35.1154 30.8645L34.9983 30.7614L26.6339 22.2289L18.2696 30.7614C17.899 31.1394 17.3191 31.1738 16.9104 30.8645L16.7933 30.7614C16.4227 30.3833 16.389 29.7918 16.6923 29.3749L16.7933 29.2555L25.8958 19.9705C26.2664 19.5925 26.8463 19.5581 27.255 19.8674L27.3721 19.9705L36.4745 29.2555C36.8822 29.6713 36.8822 30.3455 36.4745 30.7614Z" fill="#F7B519"/>
<path d="M26 0.999995C39.8071 0.999994 51 12.1929 51 26C51 39.8071 39.8071 51 26 51C12.1929 51 0.999999 39.8071 0.999999 26C0.999998 12.1929 12.1929 0.999996 26 0.999995Z" stroke="#F7B519" stroke-width="2"/>
</svg>
