<svg width="22" height="22" fill="none" xmlns="http://www.w3.org/2000/svg"><path d="M21.5 11c0 2.762 0 4.791-.169 6.304-.168 1.517-.496 2.404-1.06 2.967-.563.564-1.45.892-2.967 1.06-1.512.168-3.542.169-6.304.169-2.762 0-4.791 0-6.304-.169-1.517-.168-2.404-.496-2.967-1.06-.564-.563-.892-1.45-1.06-2.967C.5 15.792.5 13.762.5 11c0-2.762 0-4.791.169-6.304.168-1.517.496-2.404 1.06-2.967.563-.564 1.45-.892 2.967-1.06C6.209.5 8.238.5 11 .5c2.762 0 4.791 0 6.304.169 1.517.168 2.404.496 2.967 1.06.564.563.892 1.45 1.06 2.967.168 1.513.169 3.542.169 6.304z" stroke="#fff"/></svg>