<svg width="22" height="22" fill="none" xmlns="http://www.w3.org/2000/svg"><g opacity=".5"><path d="M21.5 11c0 2.762 0 4.791-.169 6.304-.168 1.517-.496 2.404-1.06 2.967-.563.564-1.45.892-2.967 1.06-1.512.168-3.542.169-6.304.169-2.762 0-4.791 0-6.304-.169-1.517-.168-2.404-.496-2.967-1.06-.564-.563-.892-1.45-1.06-2.967C.5 15.792.5 13.762.5 11c0-2.762 0-4.791.169-6.304.168-1.517.496-2.404 1.06-2.967.563-.564 1.45-.892 2.967-1.06C6.209.5 8.238.5 11 .5c2.762 0 4.791 0 6.304.169 1.517.168 2.404.496 2.967 1.06.564.563.892 1.45 1.06 2.967.168 1.513.169 3.542.169 6.304z" stroke="#fff"/><path d="M16.39 11.969l-.01.061-.02-.117c.011.018.02.037.03.056.06-.327.091-.662.091-.996a5.468 5.468 0 00-1.605-3.883 5.458 5.458 0 00-4.91-1.51h-.003l.057.03-.115-.018.058-.012a3.24 3.24 0 00-1.52-.38c-.867 0-1.681.337-2.294.952a3.254 3.254 0 00-.542 3.875l.01-.06.02.115-.03-.055a5.462 5.462 0 00.348 3.084c.276.654.671 1.24 1.174 1.745a5.448 5.448 0 003.874 1.609c.322 0 .645-.03.96-.086l-.056-.03.117.02-.061.01a3.235 3.235 0 003.888-.53 3.257 3.257 0 00.54-3.88zm-5.365 2.367c-1.946 0-2.817-.959-2.817-1.678 0-.368.272-.627.646-.627.833 0 .617 1.199 2.171 1.199.796 0 1.235-.433 1.235-.876 0-.267-.131-.562-.655-.692l-1.731-.433c-1.394-.35-1.647-1.106-1.647-1.816 0-1.474 1.385-2.028 2.685-2.028 1.198 0 2.61.664 2.61 1.548 0 .38-.327.6-.7.6-.712 0-.58-.986-2.013-.986-.71 0-1.104.322-1.104.784 0 .46.562.607 1.049.719l1.281.285c1.403.313 1.76 1.134 1.76 1.908 0 1.198-.918 2.093-2.77 2.093zm.882 2.013l.056.03.06-.01-.116-.02zm4.473-4.319l.01-.061c-.01-.019-.019-.038-.03-.056l.02.117zM5.617 9.967l-.01.06.03.055-.02-.115zM10.02 5.61l-.057-.03-.058.012.115.018z" fill="#fff"/></g></svg>