<svg width="22" height="22" fill="none" xmlns="http://www.w3.org/2000/svg"><path d="M21.5 11c0 2.762 0 4.791-.169 6.304-.168 1.517-.496 2.404-1.06 2.967-.563.564-1.45.892-2.967 1.06-1.512.168-3.542.169-6.304.169-2.762 0-4.791 0-6.304-.169-1.517-.168-2.404-.496-2.967-1.06-.564-.563-.892-1.45-1.06-2.967C.5 15.792.5 13.762.5 11c0-2.762 0-4.791.169-6.304.168-1.517.496-2.404 1.06-2.967.563-.564 1.45-.892 2.967-1.06C6.209.5 8.238.5 11 .5c2.762 0 4.791 0 6.304.169 1.517.168 2.404.496 2.967 1.06.564.563.892 1.45 1.06 2.967.168 1.513.169 3.542.169 6.304z" stroke="#fff"/><path d="M17.122 13.906a.853.853 0 00-.042-.08c-.215-.388-.625-.864-1.23-1.427l-.014-.013-.006-.006-.006-.007h-.007a7.432 7.432 0 01-.522-.53c-.133-.171-.163-.345-.09-.522.051-.133.245-.415.58-.845.176-.228.316-.41.419-.549.743-.99 1.065-1.621.966-1.897l-.038-.064c-.026-.039-.093-.074-.2-.107a1.013 1.013 0 00-.412-.016l-1.856.013a.24.24 0 00-.129.003l-.084.02-.032.016-.026.02a.286.286 0 00-.07.067.443.443 0 00-.065.113 10.54 10.54 0 01-.69 1.452c-.158.267-.304.498-.438.694a3.36 3.36 0 01-.334.432 2.35 2.35 0 01-.245.223c-.073.055-.13.08-.168.07a4.388 4.388 0 01-.11-.025.429.429 0 01-.144-.158.707.707 0 01-.074-.252 2.765 2.765 0 01-.02-.571c.005-.134.007-.224.007-.271 0-.164.003-.341.01-.533a92 92 0 01.016-.455c.004-.111.006-.23.006-.355 0-.124-.008-.222-.023-.293a1.002 1.002 0 00-.067-.207.347.347 0 00-.132-.155.743.743 0 00-.216-.087 4.281 4.281 0 00-.87-.084c-.799-.008-1.312.044-1.54.155a.868.868 0 00-.245.194c-.077.095-.088.146-.032.155.258.038.44.13.548.277l.038.078c.03.056.06.155.09.297s.05.299.059.47a5.03 5.03 0 010 .807 9.623 9.623 0 01-.062.523 1.047 1.047 0 01-.164.445.112.112 0 01-.032.032.483.483 0 01-.174.033c-.06 0-.133-.03-.22-.09a1.545 1.545 0 01-.267-.25 3.325 3.325 0 01-.312-.441 7.723 7.723 0 01-.36-.671l-.104-.187c-.064-.12-.152-.296-.264-.526-.112-.23-.21-.453-.297-.668a.425.425 0 00-.154-.207l-.032-.02a.683.683 0 00-.251-.097l-1.766.014c-.18 0-.303.04-.367.123l-.026.038a.209.209 0 00-.02.104c0 .047.013.105.04.174.257.606.537 1.191.84 1.755.303.564.566 1.018.79 1.361.223.345.45.67.682.975.232.305.386.501.46.587.076.086.135.15.178.194l.161.155a3.8 3.8 0 00.454.37c.2.145.421.287.664.427.243.14.525.253.847.342.322.088.636.123.941.106h.741a.513.513 0 00.342-.142l.025-.032a.43.43 0 00.048-.12.66.66 0 00.023-.177 2.16 2.16 0 01.042-.5c.032-.148.069-.26.11-.335a.824.824 0 01.248-.284.43.43 0 01.051-.023c.103-.034.224-.001.364.1.14.101.27.226.393.374.123.149.27.316.442.5.171.186.322.323.45.414l.13.077c.085.052.197.099.335.142a.72.72 0 00.36.032l1.65-.026c.163 0 .29-.027.38-.08.09-.054.144-.113.16-.178a.5.5 0 00.004-.22.812.812 0 00-.045-.17z" fill="#fff"/></svg>