<svg width="22" height="22" fill="none" xmlns="http://www.w3.org/2000/svg"><path d="M16.414 7.753c-.399.17-.826.286-1.275.338.458-.266.81-.687.976-1.188-.43.246-.905.425-1.411.522a2.25 2.25 0 00-1.622-.679c-1.226 0-2.221.962-2.221 2.148 0 .168.02.333.057.49A6.38 6.38 0 016.34 7.139a2.08 2.08 0 00-.3 1.08c0 .745.392 1.403.988 1.788a2.28 2.28 0 01-1.006-.27v.027c0 1.04.766 1.91 1.781 2.107a2.323 2.323 0 01-1.003.035c.283.854 1.103 1.475 2.074 1.492a4.553 4.553 0 01-2.758.919c-.18 0-.356-.01-.53-.03.983.61 2.15.967 3.405.967 4.086 0 6.32-3.274 6.32-6.113l-.008-.278c.436-.301.814-.68 1.111-1.11z" fill="#F7B519"/><path d="M21.5 11c0 2.762 0 4.791-.169 6.304-.168 1.517-.496 2.404-1.06 2.967-.563.564-1.45.892-2.967 1.06-1.512.168-3.542.169-6.304.169-2.762 0-4.791 0-6.304-.169-1.517-.168-2.404-.496-2.967-1.06-.564-.563-.892-1.45-1.06-2.967C.5 15.792.5 13.762.5 11c0-2.762 0-4.791.169-6.304.168-1.517.496-2.404 1.06-2.967.563-.564 1.45-.892 2.967-1.06C6.209.5 8.238.5 11 .5c2.762 0 4.791 0 6.304.169 1.517.168 2.404.496 2.967 1.06.564.563.892 1.45 1.06 2.967.168 1.513.169 3.542.169 6.304z" stroke="#F7B519"/></svg>