<svg width="22" height="22" fill="none" xmlns="http://www.w3.org/2000/svg"><g opacity=".5"><path d="M13.489 5.201L12.097 5.2c-1.563 0-2.573 1.009-2.573 2.57v1.185H8.125a.216.216 0 00-.219.213v1.716c0 .118.098.213.219.213h1.399v4.332c0 .117.098.213.219.213h1.825c.12 0 .219-.096.219-.213v-4.332h1.635c.121 0 .22-.095.22-.213V9.167a.21.21 0 00-.064-.15.222.222 0 00-.155-.063h-1.636V7.949c0-.482.118-.728.764-.728h.937a.216.216 0 00.219-.213V5.414a.216.216 0 00-.218-.213z" fill="#fff"/><path d="M21.5 11c0 2.762 0 4.791-.169 6.304-.168 1.517-.496 2.404-1.06 2.967-.563.564-1.45.892-2.967 1.06-1.512.168-3.542.169-6.304.169-2.762 0-4.791 0-6.304-.169-1.517-.168-2.404-.496-2.967-1.06-.564-.563-.892-1.45-1.06-2.967C.5 15.792.5 13.762.5 11c0-2.762 0-4.791.169-6.304.168-1.517.496-2.404 1.06-2.967.563-.564 1.45-.892 2.967-1.06C6.209.5 8.238.5 11 .5c2.762 0 4.791 0 6.304.169 1.517.168 2.404.496 2.967 1.06.564.563.892 1.45 1.06 2.967.168 1.513.169 3.542.169 6.304z" stroke="#fff"/></g></svg>