<svg width="69" height="69" fill="none" xmlns="http://www.w3.org/2000/svg"><path d="M2.654 12.875v51.218a2.261 2.261 0 002.261 2.253h51.218a2.253 2.253 0 001.592-3.845L6.508 11.283a2.253 2.253 0 00-3.854 1.592z" fill="#4B505B"/><path opacity=".9" d="M65.732 54.565l-7.264-7.427 2.654-2.716a1.84 1.84 0 00.509-1.273c0-.477-.183-.934-.51-1.274L29.174 9.171a1.746 1.746 0 00-1.244-.524c-.466 0-.913.188-1.244.524l-2.645 2.716-8.333-8.573a2.19 2.19 0 00-1.13-.617 2.159 2.159 0 00-1.273.129 2.22 2.22 0 00-.99.83 2.296 2.296 0 00-.372 1.254v51.217a2.268 2.268 0 00.646 1.596 2.17 2.17 0 001.56.662h50.067a2.171 2.171 0 001.187-.405c.35-.25.621-.597.782-1.001.16-.404.203-.847.123-1.276a2.277 2.277 0 00-.575-1.138z" fill="#E4E4E4" stroke="#4B505B" stroke-width=".3" stroke-miterlimit="10"/></svg>