<svg width="248" height="72" fill="none" xmlns="http://www.w3.org/2000/svg"><path d="M3.162 67.428v3.96H6.52v.446h-4.1v-4.416l.742.01z" fill="#fff"/><path d="M6.614 71.945H2.308V67.32h.962v3.965h3.344v.66zm-4.088-.213h3.87v-.233H3.052v-3.965h-.526v4.198zm5.538-4.298v4.399h-.752v-4.4h.752z" fill="#fff"/><path d="M8.172 71.94h-.97v-4.615h.97v4.615zm-.752-.213h.534v-4.188H7.42v4.188zm4.407-3.91a5.053 5.053 0 00-.99.076 1.2 1.2 0 00-.59.272c-.154.15-.26.34-.307.547-.07.307-.101.62-.093.935-.009.313.022.626.093.932.044.206.152.395.308.54.169.14.373.233.591.27.326.055.657.08.988.073.416.014.831-.027 1.236-.122a.935.935 0 00.584-.41c.123-.257.178-.539.163-.822v-.162h-2.123v-.422h2.865v.513c.01.315-.035.63-.133.93a1.107 1.107 0 01-.434.557 2.09 2.09 0 01-.82.284c-.44.061-.885.09-1.33.084a6.877 6.877 0 01-1.364-.11 1.857 1.857 0 01-.825-.364 1.353 1.353 0 01-.418-.674 4 4 0 01-.123-1.092c-.01-.368.032-.736.125-1.092.072-.264.221-.502.429-.684.237-.189.519-.316.82-.371a6.52 6.52 0 011.348-.113 7.73 7.73 0 011.69.135c.291.045.558.19.751.407.149.241.235.514.251.795h-.71a1.118 1.118 0 00-.19-.571.925.925 0 00-.551-.263 7.561 7.561 0 00-1.241-.078z" fill="#fff"/><path d="M11.837 71.992a6.91 6.91 0 01-1.386-.113 1.935 1.935 0 01-.873-.385 1.467 1.467 0 01-.453-.736 4.087 4.087 0 01-.128-1.118 4.125 4.125 0 01.13-1.122c.078-.284.238-.54.461-.736a2 2 0 01.87-.395 6.748 6.748 0 011.371-.115c.575-.017 1.15.03 1.715.14.318.048.607.208.814.449.161.254.256.543.279.841l.015.12h-.938v-.095a1.017 1.017 0 00-.17-.515.815.815 0 00-.484-.224 7.307 7.307 0 00-1.22-.073 5.092 5.092 0 00-.97.073 1.109 1.109 0 00-.535.246 1.002 1.002 0 00-.278.49 3.794 3.794 0 00-.088.908c-.009.304.02.608.088.905.04.187.136.358.276.491.155.127.342.212.541.245.319.054.642.077.965.072a4.65 4.65 0 001.206-.118.832.832 0 00.519-.358 1.61 1.61 0 00.148-.77v-.055h-2.133v-.638h3.085v.621a2.81 2.81 0 01-.14.967 1.213 1.213 0 01-.476.608 2.2 2.2 0 01-.863.302 8.791 8.791 0 01-1.348.088zm0-4.5a6.439 6.439 0 00-1.324.111 1.758 1.758 0 00-.782.351c-.191.17-.328.39-.393.635a4.693 4.693 0 000 2.123c.063.24.197.457.386.623.225.174.491.29.774.338.442.08.892.116 1.341.108.44.007.879-.02 1.314-.08.274-.035.538-.127.774-.268.184-.122.322-.3.394-.506.094-.288.138-.59.128-.893v-.407h-2.65v.211h2.12v.268c.018.3-.043.6-.175.873a1.02 1.02 0 01-.646.461 4.908 4.908 0 01-1.269.125 5.545 5.545 0 01-1.002-.073 1.375 1.375 0 01-.645-.29 1.18 1.18 0 01-.343-.593 3.94 3.94 0 01-.095-.96 3.845 3.845 0 01.098-.961c.05-.228.17-.437.34-.6.181-.155.402-.258.64-.298.33-.058.666-.085 1.002-.079.42-.01.839.017 1.254.079.235.025.453.131.616.299.112.157.181.34.2.53h.502a1.512 1.512 0 00-.223-.626 1.163 1.163 0 00-.69-.365 7.628 7.628 0 00-1.654-.135h.008zm3.202 4.346l2.416-4.416h1.068l2.469 4.416h-.787l-.502-.905h-3.336l-.531.905h-.797zm4.434-1.337l-1.47-2.699-1.46 2.699h2.93z" fill="#fff"/><path d="M21.178 71.945h-1.037l-.502-.908h-3.208l-.531.908h-1.043l2.534-4.625h1.198l2.59 4.625zm-.904-.213h.531l-2.349-4.198h-.935l-2.298 4.198h.551l.532-.908h3.469l.499.908zm-.62-1.124h-3.29l1.641-3.045 1.65 3.045zm-2.927-.201H19.3l-1.286-2.375-1.288 2.375zm5.833.838v.594h-.79v-.594h.79z" fill="#fff"/><path d="M22.666 71.944h-1.002v-.802h1.002v.802zm-.787-.214h.57v-.382h-.57v.382zm4.438-3.915a5.087 5.087 0 00-1.002.076 1.174 1.174 0 00-.587.272 1.064 1.064 0 00-.308.547c-.07.307-.101.62-.093.935-.008.313.022.626.09.932.047.206.155.394.311.54.17.139.374.23.592.265.326.055.657.08.987.074.416.013.832-.028 1.236-.123a.934.934 0 00.584-.41 1.68 1.68 0 00.16-.822v-.162h-2.12v-.422h2.865v.513c.01.315-.035.63-.133.93-.08.227-.233.422-.436.557a2.08 2.08 0 01-.82.285c-.44.06-.884.089-1.328.083a6.848 6.848 0 01-1.364-.11 1.843 1.843 0 01-.824-.364 1.354 1.354 0 01-.421-.674 4.1 4.1 0 01-.123-1.092 3.91 3.91 0 01.128-1.092c.07-.264.218-.502.426-.684.238-.189.52-.316.822-.37a6.508 6.508 0 011.348-.114 7.707 7.707 0 011.687.135c.292.045.558.19.752.408.149.24.235.514.25.794h-.716a1.096 1.096 0 00-.19-.571.918.918 0 00-.552-.263 7.506 7.506 0 00-1.22-.073z" fill="#fff"/><path d="M26.32 71.992c-.465.01-.93-.028-1.388-.113a1.948 1.948 0 01-.867-.385 1.468 1.468 0 01-.454-.736 4.195 4.195 0 01-.125-1.118c-.01-.378.034-.756.13-1.122.076-.284.237-.54.461-.736a2 2 0 01.867-.395 6.751 6.751 0 011.374-.115c.575-.017 1.15.03 1.714.14.318.049.607.208.815.449.16.255.255.543.278.841v.12H28.2v-.095a1.018 1.018 0 00-.168-.515.815.815 0 00-.486-.224 7.277 7.277 0 00-1.218-.073 5.092 5.092 0 00-.97.073 1.128 1.128 0 00-.536.246.976.976 0 00-.276.49 3.647 3.647 0 00-.09.908c-.008.305.022.61.087.908a.96.96 0 00.279.49c.154.128.34.213.538.246.32.053.644.077.968.071a4.61 4.61 0 001.203-.118.83.83 0 00.521-.358c.113-.241.163-.505.148-.77v-.054h-2.13v-.638h3.083v.62c.01.328-.036.655-.138.967a1.23 1.23 0 01-.476.609 2.23 2.23 0 01-.865.301c-.448.064-.9.093-1.354.086zm0-4.5a6.484 6.484 0 00-1.325.111c-.285.052-.55.172-.775.351a1.322 1.322 0 00-.406.633c-.089.346-.13.703-.12 1.06-.009.357.03.715.117 1.062.063.24.198.458.387.623.225.175.493.292.776.339.443.08.892.116 1.341.108.439.006.877-.02 1.311-.081.276-.035.54-.126.777-.267.184-.123.322-.3.394-.506.093-.289.135-.59.125-.893v-.407h-2.637v.21h2.123v.268c.017.301-.043.601-.175.874a1.032 1.032 0 01-.66.46 4.85 4.85 0 01-1.265.126 5.582 5.582 0 01-1.003-.074 1.365 1.365 0 01-.641-.29 1.145 1.145 0 01-.349-.593 3.943 3.943 0 01-.095-.96 3.994 3.994 0 01.095-.956c.052-.228.17-.436.341-.599a1.32 1.32 0 01.64-.299c.33-.058.666-.084 1.002-.079.42-.008.839.018 1.253.079.235.023.454.13.614.3.114.156.184.338.203.53h.502a1.451 1.451 0 00-.223-.626 1.155 1.155 0 00-.687-.366 7.631 7.631 0 00-1.64-.137zm6.577 2.58H30.64v1.766h-.735v-4.416h3.148c.66 0 1.148.1 1.462.302.159.11.286.257.37.43.083.171.12.361.106.551.003.19-.02.38-.07.564a.692.692 0 01-.311.376 1.88 1.88 0 01-.752.22c.697.032 1.043.315 1.043.842v1.119h-.752v-.999a.684.684 0 00-.14-.456.775.775 0 00-.414-.245 2.977 2.977 0 00-.7-.054zm-2.256-.418h2.165c.281.008.562-.016.838-.068a.782.782 0 00.45-.245.798.798 0 00.146-.516 1.104 1.104 0 00-.12-.547.711.711 0 00-.384-.309 1.954 1.954 0 00-.681-.1H30.64v1.785z" fill="#fff"/><path d="M35.014 71.945h-.96v-1.106a.607.607 0 00-.116-.39.673.673 0 00-.358-.204 2.903 2.903 0 00-.684-.066H30.76v1.766h-.952V67.32h3.258c.69 0 1.186.106 1.522.32a1.205 1.205 0 01.526 1.077c.002.2-.023.4-.075.593a.803.803 0 01-.356.437c-.084.05-.173.09-.266.122a.86.86 0 01.449.324.826.826 0 01.15.525l-.002 1.227zm-.752-.213h.524v-1.014c0-.297-.098-.694-.94-.736v-.213a1.78 1.78 0 00.712-.204.587.587 0 00.265-.316 1.94 1.94 0 00.068-.535.984.984 0 00-.093-.505 1.007 1.007 0 00-.336-.393c-.293-.189-.764-.285-1.4-.285h-3.036v4.2h.516v-1.766h2.354c.248-.005.497.02.74.074.183.04.348.137.47.277.117.15.175.335.166.522l-.01.894zm-1.457-1.963h-2.273v-1.997h2.522c.245-.008.49.028.721.105.185.065.34.192.44.358.095.186.142.391.134.6a.896.896 0 01-.17.58.907.907 0 01-.514.285 4.17 4.17 0 01-.85.059l-.01.01zm-2.055-.214h2.055c.273.006.545-.015.813-.063a.676.676 0 00.39-.211.703.703 0 00.123-.447.998.998 0 00-.107-.49.606.606 0 00-.326-.266 1.934 1.934 0 00-.644-.09H30.75v1.567zm5.235-1.081c.069-.262.22-.496.431-.67.243-.176.528-.29.827-.33.466-.07.938-.102 1.41-.094.467-.008.935.023 1.398.093.298.041.58.155.822.332.212.172.361.407.426.67.093.38.134.771.123 1.162.011.39-.03.778-.125 1.156a1.279 1.279 0 01-.427.67 1.87 1.87 0 01-.83.33c-.465.07-.935.102-1.405.094a8.356 8.356 0 01-1.392-.093 1.867 1.867 0 01-.83-.334 1.262 1.262 0 01-.428-.667 5.424 5.424 0 010-2.319zm.69 2.127a.96.96 0 00.273.528c.17.14.378.231.599.26.73.095 1.468.095 2.198 0a1.16 1.16 0 00.592-.245.96.96 0 00.273-.525 5.25 5.25 0 00.067-.97 5.33 5.33 0 00-.067-.98.922.922 0 00-.268-.526 1.16 1.16 0 00-.592-.245 8.988 8.988 0 00-2.218 0 1.16 1.16 0 00-.592.257.94.94 0 00-.27.525 5.297 5.297 0 00-.068.982c-.006.314.019.63.073.94z" fill="#fff"/><path d="M38.636 71.993a8.298 8.298 0 01-1.412-.096 1.966 1.966 0 01-.877-.353 1.378 1.378 0 01-.466-.722 4.424 4.424 0 01-.13-1.185 4.32 4.32 0 01.133-1.192 1.38 1.38 0 01.463-.724c.259-.187.561-.309.88-.353.472-.07.949-.101 1.426-.093.475-.008.95.023 1.419.093.316.045.616.166.872.353.23.19.392.449.461.736a5.527 5.527 0 010 2.375 1.387 1.387 0 01-.463.724c-.258.187-.56.309-.878.353-.473.067-.95.095-1.428.084zm.017-4.505a8.314 8.314 0 00-1.388.09 1.75 1.75 0 00-.78.31c-.194.16-.331.375-.393.616a5.365 5.365 0 000 2.26c.061.24.199.454.393.613.229.164.496.271.777.311.454.07.914.1 1.374.091.463.009.927-.022 1.386-.09a1.74 1.74 0 00.782-.31 1.17 1.17 0 00.388-.616c.092-.368.133-.747.123-1.126a4.28 4.28 0 00-.12-1.133 1.154 1.154 0 00-.389-.616 1.701 1.701 0 00-.774-.31 8.257 8.257 0 00-1.379-.09zm0 4.075a6.91 6.91 0 01-1.118-.07 1.268 1.268 0 01-.651-.285 1.067 1.067 0 01-.309-.584 5.238 5.238 0 01-.072-.982 5.602 5.602 0 01.067-.998 1.05 1.05 0 01.304-.582c.183-.154.407-.252.646-.284a9.314 9.314 0 012.256 0c.239.03.463.129.647.282.16.158.266.363.3.584.054.33.078.664.07.998.007.329-.017.657-.072.982a1.063 1.063 0 01-.303.579 1.232 1.232 0 01-.65.284 6.86 6.86 0 01-1.122.076h.007zm0-3.646a6.781 6.781 0 00-1.093.067 1.056 1.056 0 00-.536.228.853.853 0 00-.25.468 5.136 5.136 0 00-.066.957c-.007.316.016.631.068.942a.88.88 0 00.25.474c.156.124.343.203.542.228a8.528 8.528 0 002.16 0c.198-.023.385-.103.537-.228a.853.853 0 00.25-.469 4.99 4.99 0 00.068-.947 5.36 5.36 0 00-.065-.957.836.836 0 00-.238-.468 1.048 1.048 0 00-.536-.228 6.697 6.697 0 00-1.098-.067h.007zm4.51-.487v3.089c-.017.211.031.423.137.608a.773.773 0 00.517.245 8.19 8.19 0 001.213.064c.408.009.816-.013 1.22-.064a.781.781 0 00.52-.245 1.06 1.06 0 00.135-.608v-3.09h.734v3.104c.028.329-.073.655-.283.913-.22.21-.505.34-.81.37a11.33 11.33 0 01-1.526.076c-.479 0-.865-.012-1.16-.036a2.594 2.594 0 01-.753-.165.998.998 0 01-.501-.41 1.404 1.404 0 01-.17-.748V67.43h.727z" fill="#fff"/><path d="M45.019 71.999c-.479 0-.872-.012-1.168-.037a2.737 2.737 0 01-.8-.174 1.12 1.12 0 01-.546-.451 1.543 1.543 0 01-.186-.805V67.32h.953v3.19c-.016.19.025.38.118.547a.66.66 0 00.443.21c.397.05.796.071 1.196.062.402.01.804-.011 1.203-.061a.663.663 0 00.446-.211.964.964 0 00.118-.547v-3.19h.953v3.212c.027.355-.086.706-.316.981a1.48 1.48 0 01-.873.403c-.51.062-1.026.09-1.541.083zm-2.481-4.465v2.998c-.013.24.041.48.155.694a.885.885 0 00.441.366c.235.088.483.14.734.157.291.024.677.037 1.151.037a11.63 11.63 0 001.504-.076c.282-.028.547-.147.752-.34a1.16 1.16 0 00.25-.838v-2.998h-.516v2.983c.018.234-.037.467-.158.67a.859.859 0 01-.586.3c-.412.05-.826.071-1.241.063a8.57 8.57 0 01-1.233-.064.87.87 0 01-.584-.3 1.115 1.115 0 01-.158-.669v-2.983h-.511zm7.092 2.578v1.718h-.734v-4.416h3.158a3.25 3.25 0 011.023.132c.231.066.43.212.561.41.127.22.188.471.176.724.017.296-.054.591-.206.848a1.145 1.145 0 01-.681.437 5.252 5.252 0 01-1.334.133l-1.963.014zm0-.429h1.755c.335.007.67-.014 1.003-.064a.875.875 0 00.519-.245.86.86 0 00.165-.577 1.41 1.41 0 00-.083-.537.567.567 0 00-.326-.294 1.918 1.918 0 00-.704-.098H49.63v1.815z" fill="#fff"/><path d="M49.75 71.945h-.953V67.32h3.259c.358-.01.715.037 1.058.14.255.074.474.235.619.454.136.237.202.507.19.78.016.317-.06.632-.22.907-.18.25-.448.425-.752.491-.446.104-.904.15-1.361.138h-1.853l.013 1.715zm-.735-.214h.502v-1.717h2.073c.438.012.876-.031 1.303-.13.25-.052.47-.192.622-.393.137-.24.201-.515.185-.79a1.235 1.235 0 00-.158-.667.899.899 0 00-.501-.366 3.107 3.107 0 00-.988-.127h-3.038v4.19zm2.384-1.943h-1.87v-2.039h2.437c.255-.013.51.024.752.108a.672.672 0 01.383.351c.07.185.101.382.093.579a.966.966 0 01-.193.648.985.985 0 01-.582.29c-.337.05-.678.07-1.02.063zm-1.65-.213h1.65a5.78 5.78 0 00.975-.062.759.759 0 00.454-.218.754.754 0 00.143-.508 1.292 1.292 0 00-.075-.49.45.45 0 00-.266-.246c-.214-.07-.44-.1-.664-.09H49.75v1.614z" fill="#fff"/><path d="M0 10.998v50.231c0 .29.058.577.172.845.113.268.28.512.489.717a2.3 2.3 0 001.595.647h51.319c.447 0 .883-.13 1.255-.372.371-.242.66-.587.832-.991.17-.404.215-.849.128-1.277a2.194 2.194 0 00-.618-1.132L3.855 9.435A2.271 2.271 0 002.7 8.827a2.301 2.301 0 00-1.306.125 2.246 2.246 0 00-1.014.816c-.248.364-.38.792-.379 1.23z" fill="#4B505B"/><path d="M56.564 43.346l-.183.179.183.178 7.43 7.272c.28.275.47.624.546 1.004.077.38.036.773-.116 1.13a1.97 1.97 0 01-.742.879c-.331.215-.72.329-1.12.327h0-51.237a2.03 2.03 0 01-1.42-.575 1.935 1.935 0 01-.586-1.383V2.202a1.94 1.94 0 01.339-1.083c.22-.32.532-.571.899-.72.366-.148.77-.187 1.159-.112.39.076.746.262 1.026.535 0 0 0 0 0 0l8.565 8.383.175.172.175-.172 2.711-2.654s0 0 0 0a1.58 1.58 0 011.102-.444c.413 0 .81.16 1.101.444 0 0 0 0 0 0l32.704 32.002h.001a1.498 1.498 0 010 2.138s0 0 0 0l-2.712 2.655z" fill="#E6E6E6" stroke="#fff" stroke-width=".5"/><path d="M90.988 54.583h-4.153V31.42h-1.396c-.945 0-1.416.43-1.416 1.283v21.88h-4.154v-20.58a4.74 4.74 0 01.408-1.994 4.84 4.84 0 011.211-1.654 5.53 5.53 0 011.818-1.132 5.62 5.62 0 012.123-.364h5.56v25.724zm13.912.001h-4.153V40.41h-.251l-2.554 6.426v7.753h-4.16v-25.73h4.153v11.57h.265l2.547-6.408V28.87h4.153v25.715zm12.523-23.164h-5.579v23.164h-4.156V28.859h9.735v2.562zm13.2 23.164h-4.155v-9.01h-2.81v9.01h-4.156v-20.58c-.01-.686.13-1.365.409-1.994a4.847 4.847 0 011.21-1.654 5.837 5.837 0 013.933-1.497 5.834 5.834 0 013.92 1.526 4.825 4.825 0 011.222 1.636c.285.624.43 1.3.427 1.983v20.58zm-4.155-11.573V32.706a1.177 1.177 0 00-.432-.895 1.454 1.454 0 00-1.97 0 1.19 1.19 0 00-.408.905V43.02l2.81-.01zm27.802 11.573h-4.155v-10.29c0-.855-.472-1.283-1.417-1.283h-1.393v11.573h-4.156V28.859h4.156v11.59h1.393c.372.007.732-.129 1.003-.377a1.183 1.183 0 00.421-.908V28.859h4.156v9.007a4.773 4.773 0 01-.489 2.13 4.87 4.87 0 01-1.391 1.705 4.898 4.898 0 011.393 1.72c.325.67.49 1.403.482 2.144l-.003 9.019zm13.918.001h-4.163v-9.009h-2.81v9.01h-4.156v-20.58a4.748 4.748 0 01.408-1.995 4.83 4.83 0 011.211-1.653 5.837 5.837 0 013.932-1.496 5.833 5.833 0 013.919 1.525c.523.453.942 1.01 1.228 1.635.286.623.433 1.3.431 1.984v20.58zm-4.156-11.572V32.708a1.16 1.16 0 00-.431-.895 1.432 1.432 0 00-.985-.388 1.41 1.41 0 00-.985.378 1.193 1.193 0 00-.408.905v10.305h2.809zm18.059 11.571h-4.216V45.16h-1.344a5.62 5.62 0 01-2.122-.364 5.534 5.534 0 01-1.818-1.132 4.826 4.826 0 01-1.211-1.652 4.728 4.728 0 01-.408-1.994V28.86h4.153v12.453c0 .857.464 1.284 1.386 1.284h1.364v-13.74h4.216v25.727zm12.525 0h-9.735V28.859h9.735v2.562h-5.582v9.028h5.582v2.562h-5.582v9.009h5.582v2.564zm13.89-5.144a4.728 4.728 0 01-.414 1.99 4.825 4.825 0 01-1.215 1.647 5.877 5.877 0 01-3.935 1.503 5.881 5.881 0 01-3.936-1.503 4.838 4.838 0 01-1.21-1.653 4.743 4.743 0 01-.409-1.993V34.006a4.743 4.743 0 01.414-1.997 4.833 4.833 0 011.218-1.651 5.835 5.835 0 013.931-1.496 5.831 5.831 0 013.919 1.525 4.81 4.81 0 011.223 1.636c.285.624.43 1.3.427 1.983v1.28h-4.166c0-.176.012-.448.04-.819.028-.37.04-.657.04-.858 0-1.458-.501-2.187-1.504-2.187-.366-.005-.72.13-.985.378a1.18 1.18 0 00-.411.905v18.033c0 .856.465 1.284 1.396 1.284 1.003 0 1.504-.727 1.504-2.18 0-.245-.012-.551-.04-.936-.028-.386-.04-.633-.04-.749h4.153v1.284zm12.79-18.02h-3.479v23.164h-4.158V31.42h-3.462v-2.562h11.099v2.562zm12.793 18.02a4.727 4.727 0 01-.414 1.989 4.824 4.824 0 01-1.215 1.646 5.528 5.528 0 01-1.812 1.137 5.618 5.618 0 01-2.118.372h-5.56V28.86h5.56a5.59 5.59 0 012.11.382c.671.262 1.282.65 1.8 1.144a4.836 4.836 0 011.223 1.636c.284.623.429 1.3.426 1.983v3.861a4.766 4.766 0 01-.486 2.129 4.88 4.88 0 01-1.386 1.706 4.899 4.899 0 011.391 1.721 4.8 4.8 0 01.481 2.143v3.874zm-4.153-10.29v-6.446a1.188 1.188 0 00-.431-.895 1.438 1.438 0 00-.985-.388h-1.396v9.01h1.396c.367 0 .72-.138.985-.386a1.193 1.193 0 00.431-.895zm0 11.582V44.28a1.18 1.18 0 00-.431-.898 1.43 1.43 0 00-.985-.388h-1.396v9.026h1.396a1.43 1.43 0 001.002-.378 1.179 1.179 0 00.414-.91zm18.063 3.853h-4.153v-9.009h-2.812v9.01h-4.154v-20.58a4.748 4.748 0 01.408-1.995 4.83 4.83 0 011.212-1.653 5.835 5.835 0 013.931-1.496 5.833 5.833 0 013.919 1.525 4.823 4.823 0 011.223 1.636c.284.624.43 1.3.426 1.983v20.58zm-4.153-11.572V32.708a1.175 1.175 0 00-.431-.895 1.438 1.438 0 00-.985-.388 1.41 1.41 0 00-.985.378 1.196 1.196 0 00-.411.905v10.305h2.812zM88.781 17.338h-2.717v4.247h-1.183V16.48h3.9v.858zm1.925 2.454v1.79h-1.183v-5.105h2.364a2.655 2.655 0 011.646.466 1.47 1.47 0 01.617 1.227 1.37 1.37 0 01-.144.659 1.404 1.404 0 01-.442.516 2.756 2.756 0 01-1.62.447h-1.238zm0-.859h1.18a1.43 1.43 0 00.795-.194.643.643 0 00.291-.562.724.724 0 00-.296-.61 1.237 1.237 0 00-.787-.231h-1.183v1.597zm6.457.08l.09.246 1.186-2.775h1.296l-1.95 3.925a3.223 3.223 0 01-.502.783 1.434 1.434 0 01-.526.353c-.24.09-.496.131-.752.123l-.501-.022v-.842l.423.018a.792.792 0 00.422-.11.77.77 0 00.295-.315l-2.05-3.925h1.316l1.253 2.541zm8.112 2.572h-1.19v-4.247h-2.507v4.247h-1.185V16.48h4.882v5.105zm6.031 0h-1.188v-4.247h-2.519v4.247h-1.185V16.48h4.892v5.105zm4.621-1.091h-2.346l-.464 1.09h-1.193l2.294-5.108h1.083l2.288 5.108h-1.198l-.464-1.09zm-2.005-.812h1.657l-.827-1.938-.83 1.938zm8.478-.15h-.517v2.053h-1.185V16.48h1.185v2.104h.482l1.519-2.104h1.388l-1.937 2.502 2.09 2.603h-1.476l-1.549-2.053zm8.586-.386a2.401 2.401 0 01-.705 1.833 2.54 2.54 0 01-.858.522 2.593 2.593 0 01-.999.153 2.623 2.623 0 01-1.867-.677 2.44 2.44 0 01-.556-.85 2.41 2.41 0 01-.159-.998v-.2c-.01-.464.102-.922.324-1.33a2.16 2.16 0 01.915-.886c.414-.21.874-.315 1.341-.307a2.58 2.58 0 011.007.155c.321.118.615.3.862.532a2.469 2.469 0 01.702 1.857l-.007.197zm-1.178-.233a1.81 1.81 0 00-.366-1.226 1.44 1.44 0 00-1.025-.423 1.465 1.465 0 00-1.026.423 1.794 1.794 0 00-.371 1.226v.233c-.028.44.104.875.374 1.227a1.273 1.273 0 001.03.437 1.277 1.277 0 001.023-.429 1.85 1.85 0 00.361-1.227v-.24zm3.688-2.433l1.642 3.694 1.627-3.694h1.549v5.105h-1.178v-1.379l.122-2.5-1.717 3.88h-.817l-1.709-3.86.12 2.478v1.381h-1.178V16.48h1.539zm10.864 5.105h-1.188v-4.247h-2.519v4.247h-1.183V16.48h4.89v5.105zm4.624-1.091h-2.351l-.461 1.09h-1.193l2.296-5.108h1.085l2.284 5.108h-1.198l-.462-1.09zm-2.005-.812h1.66l-.828-1.938-.832 1.938zm9.21 1.903h-1.185v-2.08h-2.552v2.08h-1.183V16.48h1.183v2.161h2.552V16.48h1.185v5.105zm4.917-5.105h1.183v5.105h-1.183v-3.518l-2.582 3.518h-1.185V16.48h1.185v3.505l2.582-3.505zm6.097 0h1.183v5.105h-1.183v-3.518l-2.582 3.518h-1.183V16.48h1.183v3.506l2.582-3.506zm.283-1.644a1.093 1.093 0 01-.429.893 2.075 2.075 0 01-2.291 0 1.08 1.08 0 01-.428-.893h.887a.554.554 0 00.183.449c.141.113.32.17.501.16a.721.721 0 00.502-.16.566.566 0 00.18-.449h.895z" fill="#fff"/></svg>