<svg width="60" height="60" fill="none" xmlns="http://www.w3.org/2000/svg"><circle opacity=".4" cx="30" cy="30" r="30" fill="#F7B519"/><circle opacity=".9" cx="30" cy="30" r="18" fill="#F7B519"/><path fill-rule="evenodd" clip-rule="evenodd" d="M26.242 20.182a7.464 7.464 0 017.621.063c2.322 1.443 3.733 4.018 3.72 6.789-.054 2.752-1.567 5.339-3.458 7.339a20.286 20.286 0 01-3.639 3.055 1.273 1.273 0 01-.441.156.888.888 0 01-.424-.129 20.057 20.057 0 01-5.241-4.926 10.052 10.052 0 01-1.963-5.633c-.002-2.776 1.458-5.339 3.825-6.714zm1.368 7.863a2.576 2.576 0 002.38 1.621 2.534 2.534 0 001.824-.76 2.63 2.63 0 00.752-1.854 2.625 2.625 0 00-1.583-2.43 2.541 2.541 0 00-2.81.562 2.66 2.66 0 00-.563 2.86z" fill="#343A41"/><ellipse opacity=".4" cx="30" cy="39.75" rx="5.417" ry="1.083" fill="#343A41"/></svg>