<svg width="24" height="24" fill="none" xmlns="http://www.w3.org/2000/svg"><path d="M17.408 7.262a1.02 1.02 0 00-1.442-1.442l-5.047 5.047a1.02 1.02 0 101.441 1.442l5.048-5.047zm5.795-1.465a1.054 1.054 0 00-1.468.029l-7.938 8.013a3.052 3.052 0 01-4.326.01l-1.437-1.437a1.02 1.02 0 00-1.442 1.443l2.163 2.163a4.079 4.079 0 005.769 0l8.705-8.706a1.054 1.054 0 00-.026-1.515zM.72 12.412a1.02 1.02 0 000 1.443l4.326 4.326a1.02 1.02 0 001.442-1.442l-4.326-4.327a1.02 1.02 0 00-1.442 0z" fill="#F7B519"/></svg>