<svg width="274" height="280" fill="none" xmlns="http://www.w3.org/2000/svg"><path d="M271.32 1.68c-1.057-.547-2.507-.86-4.112-1.016-.823-.078-1.645-.156-2.507-.195a58.88 58.88 0 00-2.624-.078c.666.234 1.371.468 2.076.664.705.195 1.41.351 2.193.43 1.488.195 3.133.273 4.974.195zM168.779 222.327c-.627.039-1.371.039-2.076.078.705.039 1.41.079 2.076-.078z" fill="#F7B519"/><path d="M93.067 51.49s.196.43.431.859c.235.43.431.86.431.86-1.37 1.054-2.468 1.835-3.368 2.5a44.044 44.044 0 01-2.115 1.445c-.549.313-.98.547-1.332.703a6.256 6.256 0 01-.901.313c-1.057.312-2.232.586-6.228 5.04a4.335 4.335 0 01-.235.898c-.078.156-.117.313-.235.469-.078.156-.156.351-.235.508-.352.703-.9 1.445-1.488 2.265-.548.82-1.253 1.641-1.958 2.54-.666.898-1.41 1.758-2.115 2.695-2.82 3.594-5.131 7.345-4.975 8.986-.078-.04-.744 1.054-1.292 2.148-.275.547-.588 1.094-.901 1.485-.274.39-.51.625-.744.547.274.351.352.82.313 1.406-.04.274-.078.586-.157.899-.078.312-.156.625-.274.976-.391 1.368-.94 2.97-.94 4.415.274 1.016.549-.82 1.175-1.641 0 0-.039.43-.117 1.016-.04.312-.04.664-.079 1.054-.039.391-.039.82-.039 1.212 0 .43 0 .82-.039 1.25v1.094c.04.625.04 1.054.04 1.054-.275 1.368-.55 2.305-.823 2.501-.275.195-.588-.352-.666-1.837 0 .587-.04 1.212 0 1.954 0 .351.039.742.039 1.133.04.39.078.82.078 1.25 0 .195.04.43.04.664.039.234.039.469.078.664.039.469.117.938.196 1.446.078.507.195 1.015.274 1.523.117.508.235 1.055.352 1.602.157.547.275 1.094.47 1.68.196.547.353 1.133.588 1.719.117.273.196.586.313.859.118.313.235.586.353.86.235.586.509 1.172.783 1.758.588 1.172 1.175 2.383 1.88 3.555.353.586.705 1.172 1.097 1.758.391.546.783 1.172 1.214 1.718a44.38 44.38 0 005.797 6.368 45.859 45.859 0 007.207 5.352 50.605 50.605 0 009.008 4.259l1.293.429c.196.078.43.157.666.196l.705.195c.94.234 1.88.508 2.82.742l1.41.352c.235.078.47.117.705.195l.783.117 3.173.469 1.566.235.784.117.391.039.431.039 3.369.234c1.136.078 2.232.157 3.368.235l3.447.117 3.408.117c1.135.039 2.31.039 3.446.039 2.272 0 4.544.039 6.815.039 2.272 0 4.505-.039 6.698-.039 1.528 0 3.055-.039 4.583-.039 2.154-.039 4.23-.039 6.227-.078 7.873-.117 13.944-.195 17.156-.313-.392-.273-.979-.429-1.606-.546-.627-.118-1.332-.196-2.037-.274-1.41-.156-2.82-.391-3.603-1.25 1.762-.508 3.055-.391 4.073-.313 1.058.079 1.841.157 2.585-.351.666 1.289 2.546 1.445 4.544 1.641 1.018.078 2.037.195 2.977.468.94.274 1.762.625 2.35 1.329l1.018-1.407 1.567.977c7.089-.274 7.833-.274 8.421-.195.548.117 1.018.351 6.854 1.406 3.369.43 5.875.391 7.99.469 1.058.039 2.037.039 2.899.234.431.078.861.156 1.292.313.196.078.431.156.627.234.196.078.392.195.588.313-.47-.196-1.646-1.407.078-1.29-.039.313.235.508.666.626.196.078.47.117.744.156.313.039.509.039.627.039.235-.156.587-.274.352.312.157-.039.392.079.705 0 .313-.078.744-.312 1.136-1.093-.196.39-.118.742-.196 1.054-.078.313-.235.508-.744.704.157.156.117.429.627.234l.156-.469c.509.117.549.508.666.703.118.235.313.313 1.528.274 0 0 .156-.156.313-.274.157-.156.274-.312.274-.312.314.234.627.469.509.742-.078.274-.548.586-1.762.82l-.47-.156c-.235-.078-.47-.117-.47-.117.235.273.352.547.587.82.235.274.549.586 1.058 1.055 0 0 .039-.078.078-.117.039-.078.079-.117.079-.117.548.312.94 1.015.9 1.875-.039.898-.548 1.836-1.41 2.656-.861.821-2.036 1.524-3.172 2.227-.157.078-.274.157-.47.274-.509.156-.979.312-1.449.469-.941.312-1.802.585-2.586.859-1.566.547-2.82 1.016-3.564 1.445l3.212.782-5.405 2.109c.666-.117 1.958-4.727 2.585-4.375-3.055.586-9.322 1.758-17.156 3.203-8.029 1.524-18.056 3.516-28.279 6.368-5.131 1.446-10.301 3.086-15.197 4.923l-3.642 1.406c-1.175.469-2.35.977-3.525 1.484-.588.235-1.136.508-1.724.743-.627.273-1.214.547-1.802.82l-.548.274-.587.273a29.69 29.69 0 00-1.136.586c-.784.391-1.528.781-2.272 1.133-.744.391-1.488.742-2.193 1.133-.705.391-1.41.781-2.076 1.172-.666.391-1.371.781-1.998 1.133-.157.078-.313.195-.509.273-.157.117-.313.196-.47.313l-.94.586a247.18 247.18 0 01-3.525 2.227c-1.097.742-2.115 1.484-3.094 2.187-.51.352-.98.664-1.41 1.016-.431.352-.862.664-1.293.977-.823.625-1.606 1.25-2.311 1.797-.744.547-1.332 1.094-1.919 1.562-.588.469-1.097.899-1.528 1.25-.391.274-.744.547-1.057.743-.314.234-.627.39-.823.586-.47.312-.822.547-1.096.664-.549.234-.745.078-.784-.235-.039-.312.118-.82.274-1.211.157-.429.353-.742.314-.781a8.527 8.527 0 00-1.019 1.133c-.274.352-.548.664-.744.938-.43.586-.744 1.015-.979 1.367a8.014 8.014 0 00-.51.859c-.117.235-.195.391-.234.586-.196.704-.392 1.251-2.703 4.063-.666.743-.861.586-.9.117-.04-.468.313-1.25.548-1.718l-.705.937c-.235.313-.431.625-.627.899-.392.586-.783 1.133-1.097 1.601-.665.938-1.018 1.602-.783 1.797 1.332-1.562 2.193-1.875 3.016-1.953.783-.078 1.527.117 2.546-.351 0 0-.314.429-.784 1.093-.235.313-.509.704-.822 1.133-.274.43-.627.86-.9 1.29a42.265 42.265 0 00-2.116 3.672l-.94-.469c-.43.859-.196 2.031-.235 3.907 0 .937-.078 2.031-.313 3.398-.196 1.368-.549 2.969-.98 4.962a25.395 25.395 0 00-.43 5.196c0 .898.078 1.797.195 2.695.118.899.275 1.797.51 2.696.235.898.47 1.758.783 2.617.157.43.353.821.51 1.25.195.391.352.821.587 1.211.783 1.602 1.762 3.009 2.78 4.298 1.058 1.289 2.155 2.5 3.369 3.594.627.547 1.214 1.094 1.88 1.641.666.547 1.41 1.054 2.076 1.562l1.057.782c.353.273.666.507 1.097.742.784.469 1.567.937 2.35 1.445l1.175.704c.196.117.392.234.627.312l.666.313c.861.429 1.723.859 2.585 1.25-.353.195-1.371 0-2.703-.391-.313-.078-.666-.195-1.057-.312-.196-.079-.353-.118-.549-.196-.195-.078-.391-.117-.548-.195-.705-.313-1.488-.664-2.232-.977.43.274.9.547 1.41.86.274.156.509.312.783.468.274.157.587.274.862.43 1.175.586 2.271 1.211 2.937 1.797-.627-.625-.509-.781-.078-.703.47.078 1.253.43 2.154.664 1.763.586 3.564 1.25 2.311.508.822.156 1.606.313 2.389.469.823.156 1.606.312 2.429.508 1.605.351 3.172.82 4.817 1.172.823.195 1.606.429 2.429.625.391.117.783.234 1.214.351.392.118.822.196 1.214.313.823.195 1.645.43 2.428.625.823.195 1.606.469 2.429.625 1.645.391 3.29.781 4.896 1.133 1.645.312 3.251.586 4.817.859.392.079.784.118 1.175.157l1.058.117 1.606.117c1.057.039 2.037 0 3.016-.078.235-.547 1.645-3.125 3.486-6.798a532.956 532.956 0 002.976-6.172 253.926 253.926 0 003.095-7.071c.509-1.211.979-2.422 1.449-3.594.47-1.211.901-2.383 1.332-3.555a263.545 263.545 0 002.193-6.407c1.214-3.868 1.88-6.681 1.919-7.384.823.039 1.645.078 2.35.078.666.039 1.214.118 1.489.196-.235-.313-1.136-.547-2.233-.625-1.097-.078-2.311-.118-3.172.078l-.353 1.445c-4.073.352-.901-.859-4.818-1.015-.078-.586.823-.899 2.076-1.055 1.254-.196 2.938-.196 4.505-.235-1.41-.078-2.781-.39-3.996-.508-1.175-.117-2.154-.117-2.78.508-2.586-.742.391-1.406-2.703-2.226-.548.039-1.175.078-1.841.156-.313.039-.666.078-.979.117-.353.039-.666.039-1.018.078h-.98l-.156.039-.04.039c-.039 0-.039-.039-.039-.234l.079-.195c.039-.313.078-.352 0-.274-.079.078-.196.274-.392.469-.196.195-.431.351-.548.43-.157.039-.235 0 0-.274 0 0 .117-.078.195-.156.118-.078.196-.156.196-.156.274-.274.235-.235.118-.235-.079.039-.235.039.235-.234-.314.156-1.332.781-1.684.781.391-.312.313-.351.313-.43-.039-.078.039-.195.783-.39 0 0-.47.078-.94.117-.47.039-.94.039-.94.039.157-.312.314-.703.666-1.172.196-.234.431-.508.705-.781.078-.078.157-.157.235-.196l.118-.117c.078-.039.039-.039.235-.156l1.41-.703 1.527-.703c1.019-.469 2.115-.899 3.173-1.368.509-.234 1.097-.43 1.606-.625.548-.195 1.096-.43 1.645-.625 1.136-.391 2.193-.82 3.368-1.172.549-.195 1.136-.391 1.684-.586.588-.195 1.136-.352 1.724-.547 1.136-.351 2.311-.703 3.447-1.016 4.621-1.328 9.321-2.422 13.787-3.398 8.93-1.915 16.881-3.36 21.542-4.22l-.705.313c3.525-.703 7.598-1.484 12.142-2.383l2.232-.469c1.019-.234 2.037-.43 3.095-.664 2.075-.469 4.191-.938 6.306-1.524 4.23-1.132 8.46-2.539 12.455-4.336 4.034-1.797 7.873-3.946 11.359-6.485.9-.625 1.723-1.289 2.545-1.953.823-.664 1.606-1.407 2.429-2.11 1.527-1.484 3.055-3.008 4.426-4.649l1.018-1.211.94-1.289c.666-.859 1.214-1.758 1.802-2.656.313-.43.587-.899.822-1.368l.823-1.367.744-1.446c.235-.468.509-.937.705-1.445.431-.977.901-1.953 1.254-2.969l.587-1.524.509-1.523c.353-1.016.588-2.071.862-3.126.157-.507.235-1.054.352-1.601.118-.547.196-1.055.314-1.602.274-2.149.509-4.297.509-6.485.039-2.149-.196-4.336-.509-6.446l-.314-1.563-.156-.781c-.039-.273-.118-.508-.196-.781-.157-.508-.235-1.055-.392-1.524l-.47-1.523c-.666-1.993-1.527-3.907-2.428-5.743a40.663 40.663 0 00-3.251-5.274 38.121 38.121 0 00-3.956-4.766 48.337 48.337 0 00-4.583-4.337c-.391-.351-.822-.664-1.253-1.015-.431-.313-.823-.665-1.293-.977-.9-.625-1.801-1.211-2.702-1.836a26.632 26.632 0 00-1.332-.899l-.666-.468-.313-.235-.353-.195c-.979-.547-1.919-1.055-2.859-1.602-.94-.508-1.88-1.055-2.82-1.563l-2.937-1.406c-.98-.469-1.92-.938-2.899-1.367-.979-.391-1.958-.821-2.937-1.211a231.71 231.71 0 01-2.899-1.172c-.47-.196-.979-.352-1.449-.547-.47-.157-.979-.313-1.449-.508-.979-.313-1.919-.664-2.859-.977l-1.411-.469-.156-.039-.157-.039-.274-.078-.548-.156a175.644 175.644 0 00-3.682-.977c-1.175-.273-2.35-.547-3.486-.82-1.136-.274-2.233-.43-3.29-.664-.627-.274-1.293-.586-1.959-.82-.665-.235-1.41-.47-2.115-.704-1.488-.469-3.016-.82-4.543-1.172-3.094-.664-6.228-1.133-8.891-1.64 2.937.859 1.802 1.523-.509 1.171a132.61 132.61 0 00-4.74-.547c-1.175-.117-1.958-.117-2.506-.156-1.097-.039-1.254.078-1.41.195-.157.118-.314.274-1.45.352-1.135.078-3.251.078-7.246 0-1.135 0-2.467.04-3.995.04h-4.974c-3.603 0-7.755.038-12.22.116-4.387.078-9.126.117-14.022.196-.588 0-1.215 0-1.802.039h-.744c-.314 0-.627 0-.901-.04-.627 0-1.214-.038-1.802-.078a69.452 69.452 0 01-3.329-.312c-1.019-.156-1.959-.43-2.624-.938-.666-.508-1.097-1.172-1.215-1.875a2.306 2.306 0 01.353-1.68c-.705-.234-.979-.625-1.018-1.055 0-.43.235-.859.509-1.25.274-.43.626-.78.901-1.172.274-.39.47-.742.509-1.132 0 0 .078.078.196.117a.57.57 0 00.195.117c.157-.39 1.019-1.094 2.233-1.797.313-.195.627-.352.979-.547.431-.234.901-.469 1.371-.742a27.927 27.927 0 011.528-.782 117.878 117.878 0 013.838-1.953c1.449-.742 2.938-1.524 4.387-2.266 1.449-.742 2.937-1.406 4.347-2.07 1.41-.665 2.821-1.329 4.191-1.993 1.371-.625 2.703-1.172 3.956-1.758 5.053-2.305 9.205-3.906 11.202-4.922l-1.214.234a27.386 27.386 0 012.272-1.21c.666-.313 1.253-.587 1.762-.743 1.058-.352 1.88-.508 2.625-.547 1.566-.156 2.976-.039 5.953-.82-1.41-1.524 4.7-4.688 7.129-5.665l.039.43c.901-.39 2.115-.899 3.447-1.524 1.37-.625 2.937-1.328 4.543-2.07 1.606-.782 3.368-1.407 5.053-2.07 1.723-.626 3.407-1.251 4.974-1.72v1.055c.627-.313 1.332-.586 2.115-.86.783-.273 1.606-.507 2.428-.78a77.17 77.17 0 015.366-1.368c3.643-.703 7.129-1.29 9.048-1.68 2.233-.234 4.779-.43 7.481-.625.666-.04 1.371-.117 2.076-.156a37.42 37.42 0 012.154-.078c1.45-.078 2.938-.118 4.465-.235 3.016-.234 6.111-.312 9.205-.586 3.094-.312 6.149-.547 9.126-1.015 0 0 .47.156 1.214.39.744.235 1.684.547 2.664.899 1.919.703 3.838 1.445 3.838 1.445l1.097-.312s.744-2.227 1.645-5.743c.901-3.477 2.036-8.204 2.663-13.166.627-4.922.783-10.118-.352-14.571-1.136-4.415-3.604-8.048-8.186-9.923l.274-1.055-1.802.078c-.431 0-.901.04-1.214.078-.353.04-.549.04-.549.04-4.308-.313-6.266.976-6.031-.079l5.914-.156c-4.348-.117-1.332-.781.313-1.445-1.801-.04-3.564-.079-5.052-.313-.823.43.666.39 1.331.586-1.175.234-2.546.625-3.995.938a19.78 19.78 0 01-2.193.351c-.744.078-1.488.117-2.194.04-4.425.273-.391-1.642-5.6-1.368-13.709.781-27.183 2.344-40.539 4.883-13.356 2.54-26.595 6.016-39.677 10.822-.744-.196-.039-.43.666-.899a299.16 299.16 0 01-5.679 2.344c-.941.352-1.841.742-2.781 1.094-.47.195-.901.351-1.371.547-.431.195-.901.39-1.332.586-1.763.781-3.525 1.523-5.288 2.305-1.723.781-3.486 1.562-5.17 2.461-2.115.43-2.937.117-3.682-.04.392.079-1.84 1.251-5.326 2.97-1.724.938-3.8 1.992-6.032 3.164-1.097.586-2.272 1.172-3.447 1.758-1.175.625-2.35 1.29-3.525 1.954-1.175.664-2.389 1.289-3.564 1.953l-1.763.938c-.274.156-.587.312-.862.468l-.195.117-.353.196c-.235.156-.47.273-.705.43-3.682 2.226-7.168 4.336-10.144 6.133-1.489.898-2.899 1.719-4.113 2.461-.627.352-1.214.782-1.763 1.133-.548.352-1.057.703-1.527 1.016-1.723 1.328-2.781 2.11-2.938 2.148z" fill="#F7B519"/><path d="M78.1 152.644c-2.937 11.563 2.507 21.525 3.996 24.299 5.561 10.157 18.213 22.151 35.055 20.549 15.158-1.446 25.576-13.126 29.689-24.026 1.175-3.086 5.64-16.291-1.606-29.612-.783-1.446-7.128-12.736-20.328-16.564-18.683-5.392-42.105 6.836-46.805 25.354z" fill="#fff"/><path d="M92.435 186.67a8.51 8.51 0 00-.861-.976c-.353-.391-.744-.742-1.097-1.172.235.39.47.703.823 1.055.156.195.313.351.509.546.196.196.43.391.626.547zm-12.925-1.836c.157.352.274.743.47 1.133-.156-.39-.313-.781-.47-1.133z" fill="#202020"/><path d="M93.768 138.189l-.079-.352c1.019-.82 1.254-.859 1.41-.898.196-.039.353-.078 1.293-.781.117-.235.43-.469.783-.743.353-.234.784-.508 1.214-.781.901-.508 1.802-.938 2.115-1.25 0 .039 1.097-.508 1.097-.352.235-.39 1.097-.625 1.763-1.015.235-.196-.235.039-.431.039 0 0 .392-.196.783-.43l.784-.391c.665-.195.9-.156.195.196 1.058-.43 3.173-1.329 5.836-2.11 2.625-.82 5.797-1.485 8.852-1.524a20.006 20.006 0 014.387.352c1.371.273 2.624.664 3.799 1.133 2.311.977 3.996 2.188 4.896 2.852-.352-.508-1.566-1.172-1.841-1.719.275.117.51.234.706.351.195.118.352.235.509.352.274.195.509.391.744.469.039.312.548.742 1.097 1.211.509.508 1.057 1.055 1.253 1.523l.431.079s.078.117.156.273c.079.117.157.274.157.274.94.937 1.41 1.523 1.724 1.836.274.351.391.429.43.547.079.117.118.195.314.507.117.157.235.352.431.665.195.312.43.703.744 1.211.744 1.211 1.292 2.07 1.723 2.851.235.391.431.743.588 1.094.195.352.313.704.43 1.094-.078-.234-.195-.859.157-.195-.157.195.862 1.836.784 2.266.156.351.391 1.094.587 1.641.196.546.353.937.392.507 0 .43.47 2.579.039 1.329.196.703.313 1.406.47 1.914l-.078-.469-.079-.469c.627 2.422.627 3.829 1.136 5.391l-.039-.937c.235 1.484.431 2.735.196 3.321 0 0-.079-.391-.118-.743-.078-.39-.156-.742-.156-.742.313 2.461.43 3.907.626 5.899v-.703c.079.625.196 1.953.157 3.594a30.366 30.366 0 01-.627 5.43 23.024 23.024 0 01-1.684 5.04c-.666 1.406-1.293 2.461-1.567 2.969l.118-.117c.078-.079.196-.157.274-.235l.392-.391s-.04.118-.157.274a3.268 3.268 0 01-.353.586c-.274.43-.509.859-.509.859.157-.195 0-1.211.157-1.289-.627.821-1.919 2.54-3.956 4.376-1.057.898-2.233 1.836-3.603 2.734a46.928 46.928 0 01-4.348 2.54c-3.055 1.523-6.345 2.773-9.126 3.555-2.742.82-4.935 1.211-5.954 1.328-1.645.156-.352-.313-.352-.352-.979.196-1.175.274-1.371.352-.157.078-.313.117-1.136.195-.47 0 .078-.195.313-.234-.352.039-.705.078-.979.117-.274 0-.47.039-.47.078.94.039.549.313.979.469l-1.096.078c-.274 0-.549.039-.744.039h-.353l.078-.156c-.47 0-1.214.547-3.368.352-1.802-.157-3.643-.43-5.405-.86-1.763-.469-3.486-1.094-5.053-1.914.079-.078.784.234 1.489.43-.196-.079-.47-.196-.745-.313a3.273 3.273 0 01-.665-.391c.313.274 0 .118-.353-.039-.352-.156-.705-.39-.43-.156-1.215-.43-2.468-1.25-3.565-2.188-1.097-.898-2.037-1.914-2.86-2.695-.117.039-.665.078-1.448.078-.431 0-.862 0-1.371-.039a22.954 22.954 0 01-1.567-.157c-.51-.078-1.058-.195-1.567-.273-.274-.039-.509-.117-.744-.156-.235-.078-.47-.117-.666-.196-.822-.234-1.45-.39-1.527-.351a21.481 21.481 0 01-.784-2.071c0 .118.157.664.353 1.25.196.626.548 1.251.783 1.68l.274.039c.275.508.431.782.51.938.078.156.117.234.117.312 0 .079.04.118.118.313.078.156.234.469.548.899-.04.117-.392-.235-.784-.86-.195-.312-.43-.664-.665-1.055-.196-.39-.431-.82-.627-1.25.157.391.352.742.51 1.133.156.352.352.703.508 1.016.157.312.314.586.51.82.156.235.313.391.47.508.391.664.313.664.274.703-.04.039-.118.117.43.86.236.234.47.508.706.781l.822.82c.548.586 1.136 1.094 1.645 1.68h-.04c1.293 1.29 2.43 2.11 3.565 2.774.588.352 1.136.664 1.763.977.313.156.626.351.94.547.313.156.666.351 1.018.586l-.352-.118c.979.665 3.094 1.407 5.052 2.149-.548-.234-.979-.508.196-.156.548.234 1.097.351 1.567.508.235.078.509.117.744.195.235.039.47.078.666.156.901.196 1.684.313 2.546.508h1.645c1.997.195 5.522.274 9.596-.312 4.073-.586 8.695-1.797 13.082-3.477 4.387-1.68 8.695-3.907 12.064-6.368 3.407-2.422 5.836-5.001 7.128-6.641l-.196.273c.274-.273.509-.625.744-.938.235-.351.51-.664.784-1.054.47-.743 1.018-1.524 1.488-2.383.979-1.68 1.841-3.634 2.507-5.704 1.332-4.18 1.802-8.868 1.645-13.361a52.094 52.094 0 00-.666-6.641 60.066 60.066 0 00-1.253-6.212c-.979-3.984-2.311-7.539-3.721-10.313-.627-1.797-1.959-4.102-3.055-5.821.548.977.235.742-.235 0-1.802-2.539-1.959-2.539-2.037-2.578-.039-.039-.118-.039-.431-.391-.157-.156-.352-.391-.666-.703-.156-.157-.352-.352-.548-.586-.235-.196-.47-.469-.744-.743-1.293-1.25-3.604-3.32-6.894-5.156-1.645-.938-3.525-1.758-5.562-2.422a29.885 29.885 0 00-6.462-1.172c-4.387-.274-8.578.468-11.946 1.367-3.369.898-5.954 1.914-7.364 2.461-1.449.781-3.094 1.524-4.7 2.383-1.606.86-3.212 1.758-4.504 2.696l.235-.235c-.705.469-2.311 1.524-4.191 3.008a41.33 41.33 0 00-6.071 5.782c-1.959 2.305-3.643 4.844-4.818 7.071-1.175 2.227-1.92 4.141-2.233 5.118l.236-.508c-.236.86-.47 1.485-.627 1.953-.157.469-.274.821-.392 1.133-.117.313-.274.625-.391 1.016-.118.391-.314.86-.47 1.563.195-.157.195.547.117 1.406-.04.43-.078.938-.118 1.367-.039.43-.078.86-.117 1.133l-.078-.039c-.04.43-.04 1.016-.079 1.68 0 .664 0 1.446.04 2.227.078.781.078 1.602.195 2.422.04.391.079.82.118 1.172.039.391.117.781.157 1.133l-.196-.078c.078.312.117.625.196.977.078.351.156.742.234 1.132.118.782.353 1.602.549 2.423.196.82.43 1.562.627 2.265.234.665.43 1.251.548 1.641a42.002 42.002 0 002.86 6.602c1.292 2.344 2.976 4.727 4.856 6.603l1.018 1.406c.235.352.549.703.744.938.196.273.353.429.353.429l.392.313s.509-.039 1.214-.235c.705-.156 1.527-.468 2.232-.976.705-.508 1.254-1.133 1.41-1.993.157-.859-.078-1.797-.9-3.047l.195-.078s-.195-.195-.43-.391l-.392-.39c-.235-.274-.431-.469-.588-.664a2.182 2.182 0 00-.43-.43c-.236-.234-.314-.313-.236-.352 0 0 .314.352.588.704l.627.703c-.901-1.016-.196-.391.235-.078-.392-.43-.745-.821-.98-1.211-.235-.157.079.195.196.39-.274-.273-.587-.547-.94-.898a5.947 5.947 0 01-.861-1.094c-.823-1.133.156-.235-.745-1.563a31.878 31.878 0 01-4.66-11.72c-.745-4.102-.627-8.36.274-12.579.117-.156.039.039.039.312.47-2.539 1.253-4.727 2.193-6.875.353-.547.51-.664.666-.821-.157.157 1.214-2.812 3.33-5.391 1.018-1.289 2.193-2.5 3.133-3.399.822-.781 1.527-1.328 1.606-1.367z" fill="#202020"/><path d="M75.32 158.386c-.196.235-.274.625-.353 1.055.235-.312.353-.625.353-1.055zm50.916 31.879c-.078.039-.195.078-.273.117.078-.039.156-.078.273-.117z" fill="#202020"/><path d="M76.181 179.717l.314-.039c.352 1.016-.235.43.235 1.329.274.078.43.468.548.859.157.391.274.781.47.899-.04 0 .157.468.04.508.273.039.273.429.508.664.118.078.04-.118.04-.235l.43.586c.079.274 0 .43-.196.156.118.196.275.508.51.899.235.352.509.781.861 1.289.627.977 1.528 2.032 2.429 2.969 1.84 1.915 3.72 3.438 4.426 3.946-.079-.274-.549-.508-.549-.859.47.156.51.468.745.468-.118.43.704.703.744 1.25l.235-.117.078.274c1.763 1.054.43.195 1.88 1.328.901.625 1.489.625 1.92 1.094-.079-.039-.197-.313.078-.196-.079.196.705.313.705.547.235.118.979.625.9.235.04.195.706.703.236.547.235.156.43.312.626.39l-.274-.234c.823.43 1.175.899 1.84.977l-.234-.274c.51.235.94.469 1.018.821 0 0-.156-.039-.274-.079a.986.986 0 01-.274-.117c.823.43 1.37.664 2.193.86l-.274-.117c.51.078 2.037.586 3.604.898.783.117 1.566.273 2.232.313.666.039 1.175.039 1.41 0l-.391-.274s.195 0 .391-.039c.196 0 .392-.039.392-.039-.078 0-.47.664-.548.586.195.039.548.039.94.117.391.039.9.117 1.449.117a39.29 39.29 0 003.682-.039c2.545-.156 4.974-.625 5.718-.703.627 0 .196.313.157.352.705-.235.274-.274.861-.391.157 0 0 .195-.078.234.274-.078.509-.078.509-.156-.352 0-.274-.312-.431-.43l.784-.156v.196c.156-.04.313-.547 1.096-.665 1.254-.234 2.585-.703 3.8-1.015 0 .117-.235.234-.47.39.156-.039.391-.156.587-.117-.352-.078.47-.273.235-.273.744-.664 2.037-.704 2.703-1.211-.039-.391-.509-6.759-.627-7.189.235-.078.47-.156.548-.117-.078-.078-.548.039-.783.156l.039.235c-.548.273-.196-.078-.705.117-.078-.195.392-.391.823-.547-.392.117-.862.117-.94.391-.392.039-.039-.235-.509-.156-.314.156-.666.468-1.058.507v-.039c-.94.078-1.253.743-2.115.782l.078-.078c-.313-.04-.822.312-1.371.312.157 0 .314.117.04.195-.627.039-.98.274-1.45.235l-.352.312c-1.018.235-3.486.938-5.875 1.25-.588.118-1.214.157-1.763.196-.587.039-1.097.039-1.606.078-.509 0-.94 0-1.331-.039-.392-.039-.705-.078-.94-.078l.078-.039c-.353 0-.744-.079-1.175-.157-.431-.039-.862-.156-1.332-.273-.94-.195-1.958-.547-2.977-1.016-2.036-.859-4.073-2.109-5.483-2.969-.313-.469-.9-.82-1.293-1.211.196.234.04.274-.156.156-1.293-1.015-.157.039-1.567-.937-.822-.547-2.742-2.032-4.23-3.516-.744-.743-1.41-1.524-1.88-2.227-.431-.703-.823-1.25-.94-1.602-.666-.508-.94-1.523-1.41-2.187l.078.039c-.117-.196-.274-.625-.509-1.172-.196-.586-.43-1.251-.588-1.993-.195-.703-.313-1.484-.43-2.109-.079-.625-.157-1.133-.235-1.407v.157c-.314-.899.039-.821.039-1.563-.314.117-.549-.664-.588-.977h.079c-.04-.234-.157-.586-.235-1.016-.079-.429-.196-.898-.235-1.289l.156.039c-.196-.664-.117-1.875-.117-2.383.078-1.094.509-2.734.391-4.219l.588-.898-.04-.157s-1.448-.547-3.093-.859c-1.645-.313-3.447-.43-4.191.547l-.157-.039v.429c-.118.469.039.743-.118.704 0 0 0-.157.04-.352.039-.156.039-.352.039-.352-.118.508-.157.157-.235-.078-.04.196-.079.391-.157.586.04.118.078-.078.118-.156.039.274.156.664.078.977-.04.508-.274 0-.353.625-.156 1.602-.352 3.164-.391 4.805a30.278 30.278 0 00.156 4.961c-.078.079-.078 0-.117-.117.078.508.157.977.235 1.446.078.468.157.937.274 1.406-.04.274-.117.352-.196.469.04-.039.118.273.235.742.118.469.235 1.133.47 1.797.196.664.353 1.328.549 1.836.039.313.156.664.156.703z" fill="#202020"/><path d="M98.702 199.289c-.274.156-.43.586-.626.937.313-.234.47-.507.626-.937zm-19.505 78.64c.04-.117.078-.195.078-.312-.039.117-.078.195-.078.312z" fill="#202020"/><path d="M90.595 218.666l.274.156c-.313.899-.43.156-.666 1.016.314.469-.548 1.406-.43 1.758-.04 0-.196.39-.314.312.196.196-.117.43-.157.743.04.117.079-.039.196-.079l-.156.626c-.157.195-.314.234-.235-.04-.666 1.524-3.604 8.986-4.113 10.705.235-.157.313-.704.666-.821 0 .508-.274.625-.196.899-.47.039-.43.937-.98 1.133l.197.195-.235.156c-.47 2.032-.04.508-.745 2.227-.313 1.016-.195 1.602-.509 2.149.04-.078.235-.274.196.039-.196-.039-.117.742-.352.82-.079.274-.392 1.094 0 .899-.196.078-.51.82-.47.312-.079.235-.235.469-.235.664l.195-.312c-.274.859-.626 1.25-.587 1.875l.235-.273c-.157.507-.274.937-.627 1.054l.118-.547c-.274.821-.47 1.368-.549 2.11l.079-.234c-.04.976-1.45 5.703-1.41 6.641l.352-.313-.078.782c.039-.078-.549-.586-.47-.625-.51 1.523-3.094 9.415-3.682 10.782-.313.508-.352 0-.392-.039-.156.703.118.391-.117.937-.078.157-.157-.078-.157-.195-.078.274-.235.469-.117.547.196-.312.391-.078.626-.156l-.274.742-.156-.078c-.079.156.313.586-.04 1.289-.509 1.211-.9 2.579-1.37 3.829-.079-.039-.079-.352-.04-.625-.078.156-.117.429-.235.546.274-.234-.078.547.079.352.078 1.055-.666 2.11-.666 3.008.352.196 5.64 3.829 6.07 3.985-.078.234-.195.508-.234.547.117-.039.352-.508.352-.781l-.196-.118c.118-.625.196-.078.353-.703.196.039.04.586-.078 1.055.156-.43.43-.82.313-1.055.196-.39.196.117.47-.351.078-.352.04-.899.274-1.251h.04c.509-.898.195-1.562.704-2.383l.04.118c.235-.274.274-.938.587-1.446-.078.156-.274.235-.196-.117.353-.586.353-1.094.666-1.524l-.04-.507c.823-2.227 3.604-11.213 4.388-13.439v.117c1.096-3.477 3.603-10.509 4.621-14.142.392-.469.588-1.25.862-1.797-.196.273-.274.117-.196-.117.666-1.719-.078-.157.47-1.954.549-2.07 3.565-9.766 4.387-11.485.079-1.055.744-2.188.901-3.204l.04.118c.273-1.055 2.623-6.681 2.976-7.892l-.078.156c.235-1.093.47-.82.861-1.601-.352 0-.196-.938-.078-1.29l.078.04c.157-.508.314-1.758.588-2.618l.156.078c.079-.742.666-2.031.823-2.539.509-1.133 1.449-2.774 1.802-4.376l.822-.82v-.156s-4.974-3.711-6.933-2.149l-.156-.078-.118.391c-.274.469-.156.742-.313.664l.274-.664c-.235.469-.196.078-.196-.117-.078.195-.195.39-.313.507.04.118.078-.039.157-.117-.04.274-.04.703-.235.977-.196.469-.275-.078-.51.508-1.292 3.008-2.585 5.86-3.681 8.946-.079.039-.079-.039-.04-.156-.274.937-.626 1.758-.861 2.656a.718.718 0 01-.392.274c.079-.039-.313 1.133-.744 2.344-.235.586-.43 1.211-.587 1.679-.196.508-.314.821-.353.821z" fill="#202020"/><path d="M102.815 200.109c-.274.157-.509.547-.705.899.313-.196.548-.469.705-.899zm-24.088 79.617c.039-.117.078-.195.117-.312a.443.443 0 00-.117.312zm14.218-60.318l.274.195c-.392.938-.43.118-.744 1.016.274.508-.666 1.407-.588 1.797-.039-.039-.235.391-.352.313.157.234-.157.469-.196.742.04.117.078-.039.196-.078l-.196.625c-.157.195-.313.195-.235-.078-.783 1.523-4.27 9.024-4.857 10.782.274-.156.353-.742.705-.82-.039.508-.313.625-.274.898-.47 0-.51.938-1.057 1.133l.156.235-.235.156c-.587 2.07-.078.508-.862 2.227-.391 1.054-.274 1.64-.626 2.187.039-.078.274-.234.196.039-.196-.039-.157.782-.392.821-.078.273-.47 1.094-.078.937-.196.078-.549.821-.47.313-.118.234-.235.469-.275.703l.196-.312c-.313.859-.705 1.25-.666 1.914l.235-.274c-.195.508-.352.938-.705 1.055l.118-.547c-.353.86-.51 1.368-.666 2.149l.118-.235c-.079 1.016-1.724 5.821-1.724 6.798l.353-.313-.118.782c.04-.078-.548-.586-.43-.664-.588 1.523-3.447 9.61-4.113 11.016-.314.547-.353 0-.392-.039-.196.743.118.391-.117.977-.079.156-.157-.078-.157-.195-.079.273-.235.468-.157.547.196-.313.392-.079.627-.157l-.313.743-.157-.079c-.079.157.274.586-.079 1.329-.509 1.25-.979 2.656-1.449 3.906-.078-.039-.039-.351 0-.625-.078.157-.117.43-.274.586.274-.234-.078.586.078.352.079 1.094-.705 2.188-.744 3.086.353.195 5.562 3.907 5.993 4.063-.078.234-.196.508-.274.586.117-.039.352-.508.391-.82l-.195-.118c.117-.625.195-.078.391-.703.196.039.04.586-.117 1.094.156-.43.47-.82.313-1.055.235-.39.196.117.47-.351.078-.391.04-.899.313-1.25h.04c.548-.899.235-1.602.744-2.423l.039.118c.235-.274.313-.938.627-1.485-.079.156-.274.235-.196-.117.352-.625.392-1.094.705-1.524v-.508c.43-1.132 1.41-3.984 2.39-6.836.978-2.852 1.997-5.704 2.428-6.837v.117c1.253-3.516 4.073-10.626 5.287-14.259.392-.469.666-1.25.94-1.797-.196.274-.274.117-.196-.117.745-1.719-.078-.156.588-1.953.666-2.11 4.19-9.767 5.13-11.525.157-1.094.902-2.188 1.137-3.203v.117c.352-1.055 3.172-6.641 3.603-7.853l-.117.157c.313-1.094.548-.821.979-1.602-.353-.039-.079-.977.039-1.328l.039.039c.196-.508.47-1.758.823-2.618l.156.118c.157-.782.823-2.032 1.058-2.54.587-1.094 1.723-2.695 2.232-4.297l.901-.742.039-.157s-1.175-1.054-2.585-1.914c-1.41-.859-3.094-1.562-4.151-.82l-.157-.117-.157.39c-.313.43-.235.743-.391.625l.352-.625c-.274.469-.196.078-.196-.156-.117.195-.235.391-.352.508 0 .117.117-.039.156-.078-.078.273-.078.703-.313.976-.235.469-.274-.078-.548.469-1.567 2.969-3.134 5.821-4.544 8.907-.078.039-.039-.039-.039-.156-.352.977-.783 1.758-1.097 2.657-.195.195-.313.234-.391.273.078-.039-.392 1.133-.94 2.344a46.18 46.18 0 00-.745 1.68c0 .351-.156.664-.156.703zm1.567-18.283c-.196.079-.196.079-.235.196.196-.078.274-.117.235-.196zm-11.437 69.968c.039-.078.039-.195.078-.313-.039.118-.078.235-.078.313z" fill="#202020"/><path d="M89.185 217.377l.274.156c-.235.82-.43.156-.548.937.352.43-.431 1.29-.275 1.602-.039 0-.156.352-.274.313.196.195-.039.39-.078.664.04.117.078-.039.157-.078l-.079.586c-.117.195-.274.195-.235-.039-.509 1.406-2.702 8.204-3.016 9.766.236-.156.236-.664.588-.742.04.469-.235.586-.117.82-.47.039-.353.86-.862 1.055l.196.195-.196.157c-.274 1.875 0 .429-.51 1.992-.234.938-.039 1.446-.313 1.914.04-.078.235-.234.196 0-.196 0-.04.664-.274.743-.04.234-.274.976.078.82-.156.078-.43.742-.43.313-.079.234-.196.429-.157.625l.156-.274c-.195.781-.509 1.133-.391 1.719l.196-.234c-.118.468-.196.859-.549.937l.04-.508c-.197.782-.314 1.211-.353 1.915l.078-.235c.04.899-.94 5.157-.822 6.016l.313-.273v.703c.04-.078-.587-.508-.51-.547-.39 1.368-2.27 8.556-2.78 9.767-.274.469-.353 0-.392-.039-.117.625.157.351-.039.859-.078.117-.157-.078-.157-.156-.039.234-.195.43-.078.469.157-.274.392-.078.588-.156l-.235.664-.157-.078c-.04.156.352.507.078 1.171-.391 1.094-.705 2.344-1.057 3.477-.079-.039-.079-.312-.079-.547-.039.157-.078.391-.195.508.274-.234 0 .508.117.313.157.937-.51 1.914-.43 2.735.352.156 5.835 3.359 6.305 3.515a4.73 4.73 0 01-.196.508c.118-.039.314-.468.314-.703l-.235-.117c.078-.586.156-.078.313-.625.196.039.118.547 0 .977.118-.391.392-.743.235-.938.196-.352.235.117.43-.313.04-.312-.038-.781.197-1.133h.039c.43-.82.078-1.406.51-2.187l.038.117c.196-.234.196-.859.47-1.328-.078.117-.274.234-.196-.078.275-.547.275-.977.549-1.368l-.079-.469c.627-2.031 2.703-10.196 3.251-12.227v.078c.823-3.165 2.664-9.571 3.33-12.892.313-.43.47-1.133.705-1.641-.157.274-.275.117-.196-.078.47-1.602-.079-.156.274-1.758.353-1.914 2.585-8.946 3.212-10.509 0-.976.509-1.992.587-2.93l.04.117c.156-.976 1.919-6.133 2.154-7.266l-.079.117c.118-.976.353-.781.666-1.484-.352 0-.274-.86-.196-1.172l.079.039c.078-.469.117-1.602.313-2.383l.157.078c0-.703.431-1.875.548-2.344.196-.508.47-1.172.744-1.836.274-.703.549-1.641.549-2.735l.313-.703c.157-.391.235-.82.235-.82l-.078-.235s-.392-.156-.98-.234a10.345 10.345 0 00-2.232-.039c-.823.078-1.684.312-2.39.547-.626.195-1.135.351-1.605.507h-.157s.04.118 0 .118c-.078.156.078.312-.078.273 0 0 0-.078.039-.156 0-.078.039-.117.039-.117-.078.156-.157.039-.235-.039 0 .039-.04.117-.118.195.079.039.079 0 .118-.039.04.117.196.312.04.508-.08.312-.275-.078-.392.351-.47 1.329-.901 2.657-1.371 3.985a72.894 72.894 0 00-1.293 4.141c-.078.039-.078-.039-.078-.117-.157.859-.431 1.602-.549 2.422-.117.195-.274.234-.352.274.078-.04-.196 1.015-.47 2.109-.157.547-.313 1.094-.43 1.524-.158.195-.236.468-.275.508zm-5.17-45.356c-.04-.04-.04 0 0 0zm.313-9.103c-.04.04 0 0 0 0zm4.818 25.745c0 .039.039.039.078.078l-.078-.078zm-4.7-25.042c.039.039 0 .117.039.117-.04-.039 0-.078-.04-.117zm1.448 17.345s0-.038-.038-.038c.038 0 .038.038.038.038zm3.33 7.775l.038.038c0-.038 0-.038-.038-.038zm-4.347-18.166c0 .039.039.078.039.078.039-.039 0-.078-.039-.078z" fill="#202020"/><path d="M86.052 175.185c-.079-.352-.235-.781-.275-1.133a.629.629 0 01-.156-.273l.078-.04-.04-.078c.04-.039.04.078.04 0l-.078-.039c.039 0-.04-.234.078-.117 0 0 0-.078-.04-.195 0-.078-.038-.196-.038-.196 0-.078-.079-.039-.079-.117.04-.039.04.039.079 0 .039-.273-.235-.273-.235-.508-.04-.039-.04-.117-.04-.117-.078.039.079.039 0 .117-.078 0-.078-.078-.117-.078.04-.078-.04-.078-.04-.156.04-.078 0-.195.04-.274-.04-.039-.117-.078-.157-.156.04-.078.079 0 .079-.078h-.04c0-.078 0-.078.04-.078 0-.078-.079-.039-.079-.156l.04.039c-.04-.078-.04-.117-.04-.196.04 0 .04.039.04.079.078-.079-.04-.079-.04-.118-.039 0-.039.078-.078.039 0-.039-.078-.078-.04-.156l.04.039c-.04-.117-.078-.039-.078-.156h.039c-.078-.078-.04-.156-.04-.274l-.078-.078c-.039.078-.039.039-.078.078.078-.078-.118-.117-.078-.273.039 0 .078.039.039.078.078.039.157.039.196.117-.04-.039-.04-.117 0-.117h-.079v-.078c-.039 0-.078.078-.117 0-.04-.078.078-.039.039-.078-.04-.117-.078-.039-.078-.156 0 0 .039.039 0 .039.039-.078-.04-.196.039-.235.04 0 .039 0 .039.039.078.078-.04-.078.078-.039-.039 0-.039-.117-.039-.156l-.039.039c-.196-.156.118 0 .078-.156-.039-.117 0 .039-.078 0 0-.078.04-.117 0-.195.04-.04.04-.079.118-.118-.04-.078 0-.195-.04-.234-.039.117.079.117 0 .234l-.078-.039c0-.078-.04-.195-.04-.234 0 0-.038.039-.038 0-.04-.117-.118-.156-.079-.274.04-.039.04.039.079.118.039-.079 0-.079 0-.196.039 0 0 .078.039.078l-.04-.117c-.078 0 0-.117-.038-.195 0-.195-.118-.195-.196-.313.039-.039.039-.039.078-.039-.04.039 0 .039 0 .039 0-.078.078-.156.118-.117-.04-.117-.04.039-.079-.039v-.156c-.039.039-.039.078-.078 0v-.156c.039 0 .078-.04.078.039 0-.039 0-.118-.039-.118-.04.079-.04-.156-.118-.078l.04-.078c0 .039.039.039.039.039.078-.039-.04-.078-.04-.117 0-.039 0-.117.04-.117-.04-.039 0-.078.039-.117 0-.039-.04 0-.078 0v-.157c.039 0 .117-.039.156 0-.039-.039-.117 0-.117-.078.078.039.039-.117.117-.039.04-.039.04-.195 0-.234-.039-.039-.039.078-.078.078-.04-.195-.196-.195-.157-.352v.039c-.039-.078-.039-.078-.078-.117.078.039.196-.117.157-.273-.04 0-.079.078-.118.078v-.117h.04c-.04-.079.078-.157 0-.196l.117-.078-.04.039c-.038 0-.038-.117-.078-.117-.039-.117 0-.156.04-.195-.04 0-.079.078-.118 0 .117 0 .04-.157.078-.157 0-.039.04-.078 0-.078h.079c-.118 0-.118-.117-.118-.234.118 0 0-.117.118-.156-.079 0-.04-.157-.118-.196 0-.078.078-.078.118-.078l-.04-.039c.04-.039.04-.156.079-.234l-.079-.078.04-.04c-.04 0-.04-.078-.079-.039v-.039c-.078 0-.039-.039-.078-.117h.04c0-.039.038-.039.078-.039-.04.039-.157-.156-.196-.039-.04 0-.079-.039-.04-.078l.079-.039-.079-.039c0-.078.04-.078.04-.157 0 .04.156.118.156-.039 0 .079.04.118.079.157 0-.039 0-.039.039 0-.04-.118-.04-.039-.079-.118.079 0 .079-.039.118-.117l-.04.078c0 .039 0 .039-.038.039 0-.039-.079-.117-.04-.117-.117.117-.078-.195-.156-.117-.04 0-.04-.078 0-.078.039.078.078-.078.117-.039-.039-.039-.039.078-.078.039 0-.039.04-.078.078-.117v.039l.04-.078c-.04 0-.079.078-.079 0 0 0 0-.078.04-.078.038.039.117 0 .117.078 0-.039 0-.196-.079-.157v-.078c-.039.039-.078.157-.078.039l-.039-.078.04-.039s-.04 0-.04-.039c.04 0 .04-.039.04-.039 0-.078-.04-.078-.04-.078 0-.039 0-.078.04-.039 0-.078 0-.196.038-.235-.039-.078 0 0-.078-.039.117-.078.04-.312.04-.468-.118.039 0-.04-.118-.079.039.039.078-.156.117 0v-.078c.078-.039.04.117.118.039 0-.078-.118-.156-.079-.273.079.039-.039-.078.079-.039.039.039 0 .039.039.078.039-.195-.079-.078-.157-.156 0-.118.078-.078.118-.118v-.117c.039.078-.04.117-.118.117.078-.039 0-.195-.039-.234-.078.156 0 .117-.118.274.04.039.118.039.079.117-.04-.078-.04 0-.04.039.04 0 0 .078.04.117-.04.039-.118-.078-.118.039l.118.039c0 .039-.079 0-.04.078-.038-.039-.078 0-.117-.117-.078.117.04.195.078.313 0 0-.039 0-.039-.039a.12.12 0 01.04.078c-.04.078-.04-.039-.079-.039v.117c0 .039.04.039 0 .078-.039-.039-.078-.039-.078-.078l.078.117c-.039 0-.078.078-.078 0v.156h-.079c0 .039.04.039.04 0 0 .078.117.274-.04.235.04.156.04.195.079.351-.079-.117-.079.157-.118 0-.039.078.04.078.079.157-.04.039-.118.039-.118-.04l.04.079.038.078c-.039.078-.078 0-.078.078h.078l-.039.039c.04 0 .04.039.04.078v.078c-.04-.078 0 .039-.04.039v.157h.04c.039.117-.079 0-.079.117h.04c-.079.156.038.234 0 .351 0-.078-.079-.039-.04-.039 0 .078 0 .235.078.352-.078.039-.078.039-.117.156 0 .078 0 .078.04.117-.04.078.038.196-.04.196.04 0 0 .078.04.117h-.04.04c-.118.117.078.195-.04.351v-.039l.04.039h-.08v.235l.04-.039c0 .039.04.078.04.156-.08-.078 0 .078-.04.117l-.04-.039c0 .078 0 .078.04.078.04.078-.078.078-.04.157v-.079c.04 0 .08.04.08.079 0 0-.04.039-.04 0 .04.078 0 .195.04.195 0 .039-.04.039-.08 0 .04.156 0 .078.04.234h-.04l.04.039-.04.079.04-.04c0 .04.04.079 0 .157l-.04-.039c.04.156-.078.156 0 .312 0 0-.038 0-.038-.039.078.117-.079.117.039.235h-.04l.04.039h-.04l.079.039-.04.039.04.039c-.118.078 0 .156-.078.234l.078-.039c.157.195-.04.508.04.742h-.04l.078.118c-.039.078-.039-.039-.078 0 .04.117.078.039.117.156-.039.078-.039-.039-.078-.039.04.117.078.312.078.39h.04c.039.079 0 .196.039.274-.04 0-.04-.039-.04-.039v.117l-.038-.039c0 .078.039.195 0 .234.039 0 .078 0 .078.039-.079.04.039.157 0 .274-.04 0-.04-.078-.04-.078 0 .039.04.078.04.117h-.04l.079.234c-.078.039.04.196-.04.196 0 .078.04-.078.04.039-.04.039.04.078-.04.078v.078l-.078-.039c.04.078.079.117.118.078-.04.078 0 .156-.04.156v-.039c.04.157-.117.274 0 .391h-.038v.117h-.04l.079.156h-.04c0 .118.04.274.079.43.078.156 0 .156.04.274v.117h-.04c.078.078-.04.234 0 .156.04.039.078.117.117.117.04.117-.039.039-.039.117 0 .079.079.079.04.196h-.04c0 .039.04.078.04.156.078.117-.079.156.078.234 0 .04 0 .157-.04.157.079.156.079.234.157.39-.078.039 0 .039-.039.118h.04c.038.195-.04.468.038.664h-.039l.079.039c.039.234.078.547.078.742.04.039.118.156.118.234.078.157.117.352.156.547h-.039c.078.039.04.118.04.157l.038-.039c.04.039.04.117 0 .156l.079.078v.039h.039l-.04.078s.04.117.118.156c0 0 0 .079-.039.04l.04.312v-.039c.038 0 .117.078.078.117-.04-.039-.079 0-.118.039.04.039.04-.039.078-.039a.41.41 0 01.079.196l-.04-.04c.04.079-.039.118 0 .196.04.039.04.117.118.078.04.078-.04.039-.04.078.04.039.04.156 0 .195.118.039 0 .274.118.235l-.039.078c.04 0 .079 0 .118.039 0 .078-.079.078-.079.078h.118c-.04.352.157.781.157 1.172.078.156.156.352.195.547l.04.195v-.156c.039.039.039.078.078.117 0 .235.04.508.157.743.156.117-.079.156.078.273h-.04c.08.156.157.234.275.391-.118 0 .04.117-.04.117h.04c0 .039 0 .117-.04.117l.08.039-.04.039c.04.117.117.313.04.391.156.234.273.586.352.898.039.039.078.118.117.196l-.04.078c.04.078.158.117.118.195.04.078.04.156.118.196.04.078.04.156-.04.156.08-.039.04.156.04.156s.313 1.016.744 2.11c.431 1.094 1.058 2.266 1.528 2.617.039 0 .117.078.156.039.04.078 0 .117.04.117 0-.117.117-.039.156-.156l.04.039c.038 0-.079-.078 0-.078l-.079.039v-.117c-.04-.039-.196 0-.157-.117v.039c-.039-.078.04-.078.04-.117v-.079c0 .079.117.118.078.079-.04-.118 0 .039-.04-.039-.038-.04.04-.04.04-.079l-.04-.078c.04 0 .04.039.04 0l-.079-.078c.079-.078-.117-.078-.039-.195.04.078.04-.039.079-.039l-.079-.196c0-.039.04.039.04 0s-.04-.039-.04-.078c.04-.039-.078-.156 0-.156 0-.156-.117 0-.117-.156.039-.039.039.078.078 0l-.078-.117c.039 0 .078 0 .078.039-.117-.352.04-.625-.157-.899.04-.078.04 0 .079.039-.157-.195-.04-.351-.118-.547h-.039c0-.312-.196-.586-.235-.898v.039l-.117-.117s.078 0 .039-.079c0 .039 0 .079-.04.079 0-.313-.234-.821-.313-1.251-.235-.547-.352-1.211-.587-1.758.039.079-.079.079-.079 0 .118-.234-.117-.312-.078-.507-.156-.313-.117-.665-.313-.938l.039-.039c0-.039-.04-.039-.04-.117 0-.118-.117-.235-.117-.313h-.039c-.039-.078.04-.039 0-.117h.04l-.079-.078c.078-.039-.04-.195 0-.274a1.997 1.997 0 01-.157-.39c.04-.039 0-.196 0-.313a3.393 3.393 0 01-.196-.742l-.078.039-.04-.078h.04c.04-.078-.078-.156-.04-.235-.038.04 0 .04 0 .079 0 .078-.077.039-.077-.039l-.04-.04c.04 0 .04-.078.118-.078-.078-.234-.196-.351-.235-.586.078 0-.04-.156.04-.156-.08-.117-.08.039-.158 0 0-.039-.039-.078 0-.078.04 0 .04-.039.079 0l-.04-.078h.04c-.118-.196 0-.352-.118-.508-.039 0 0 .078-.039.078-.117-.156.04-.156-.04-.312l.04.039c-.04-.039-.078-.039-.078-.157.039-.039.078.078.078.118 0-.079-.04-.196-.117-.157-.04-.078 0-.117 0-.156 0 0-.04.078-.04.039 0-.117-.039-.234-.039-.352h.04c-.275-.195-.157-.195-.196-.312z" fill="#202020"/><path d="M84.799 168.895v.039s.038 0 .038.039l-.038-.078zm.43 2.852c0-.039-.039 0-.039.039 0-.039 0-.039.039-.039zm-.783-8.009s.04.041 0 0c.04.041.04 0 0 0 .04 0 .04 0 0 0zm-.001 1.798h-.038s0 .038.038 0zm3.135 6.328c0 .039 0 .039 0 0 .038.039.038.039 0 0zm3.446 17.268c0 .039.038.039.077.039l-.077-.039zM88.01 172.88c.039.039 0 .078.039.078 0-.039 0-.078-.04-.078zm.822 11.29c-.038-.039-.038-.039 0 0-.038-.039-.038 0 0 0zm2.273 5.001l.038.038-.038-.038zm-2.665-11.837c0 .038.039.038.039.038s0-.038-.038-.038z" fill="#202020"/><path d="M89.381 180.264c-.078-.235-.196-.508-.235-.704-.078-.039-.117-.117-.117-.156l.078-.039-.04-.039c.04-.039.04.039.04 0h-.078c.039 0 0-.156.078-.078l-.04-.235c0-.039-.077 0-.077-.078h.039c.039-.195-.235-.156-.196-.312-.04-.039-.04-.078-.04-.078-.078.039.079 0 0 .078-.078 0-.039-.039-.117-.039.04-.039-.039-.039-.039-.078.04-.079 0-.118.04-.196-.04-.039-.118-.039-.118-.078.039-.039.078 0 .078-.078h-.04c0-.039 0-.039.04-.039 0-.039-.078-.039-.04-.078l.04.039c-.04-.039-.04-.078-.04-.117.04 0 .04.039.04.039.078-.039-.04-.039-.04-.078-.038 0-.038.039-.078.039 0-.039-.078-.039-.039-.079l.04.04c-.04-.079-.079-.04-.079-.118h.04c-.08-.039-.04-.117-.04-.195-.04-.039-.078-.039-.078-.039-.04.039-.04.039-.079.039.079-.078-.117-.078-.078-.156.04 0 .078 0 .04.039.078 0 .156 0 .195.039-.04-.039-.04-.078 0-.078h-.078v-.039c-.04 0-.079.039-.118 0-.039-.039.079-.039.04-.039-.04-.079-.079 0-.079-.079 0 0 .04 0 0 .04.04-.04-.04-.118.04-.157.038 0 .038 0 .038.039.079.039-.039-.039.079-.039-.04 0-.04-.078-.04-.078h-.039c-.195-.078.118 0 .079-.117-.04-.078 0 .039-.04 0 0-.039.04-.078 0-.117.04-.039.04-.078.118-.078-.04-.039 0-.118-.04-.157-.038.078.08.078 0 .157h-.077c0-.039-.04-.118-.04-.157h-.039c-.039-.078-.117-.078-.078-.156.04 0 .04.039.078.078.04-.039 0-.039 0-.117.04 0 0 .039.04.039l-.04-.078c-.078 0 0-.078-.039-.117 0-.117-.117-.117-.196-.196.04-.039.04-.039.079-.039-.04.039 0 .039 0 .039 0-.039.078-.117.117-.078-.04-.078-.04.039-.078 0v-.078c-.04 0-.04.039-.079 0v-.117c.04 0 .079-.039.079 0 0-.039 0-.078-.04-.078-.039.078-.039-.078-.117-.039l.04-.078s.038 0 .038.039c.079-.039-.039-.039-.039-.078 0-.04 0-.079.04-.079-.04 0 0-.078.039-.078 0-.039-.04 0-.079 0v-.078c.04 0 .118-.039.157 0-.04-.039-.118 0-.118-.039.079.039.04-.078.118-.039a.118.118 0 000-.156c-.04-.039-.04.039-.078.039-.04-.117-.196-.117-.157-.235v.04l-.078-.079c.078 0 .195-.078.156-.195-.039 0-.078.078-.117.039v-.078h.039c-.04-.039.078-.117 0-.117l.117-.078-.039.039c-.039 0-.039-.078-.078-.078-.04-.079 0-.079.04-.118-.04 0-.08.039-.118 0 .117 0 .039-.117.078-.117 0-.039.04-.078 0-.078h.078c-.117 0-.117-.078-.117-.117.117 0 0-.078.117-.117-.078 0-.039-.118-.117-.118 0-.039.078-.039.117-.078h-.039c.04-.039.04-.117.078-.156l-.078-.039.04-.039c-.04 0-.04-.039-.08 0v-.039c-.077 0-.038-.039-.077-.078h.039c0-.039.039 0 .078-.039-.04 0-.157-.078-.196 0-.039 0-.078-.039-.039-.078h.078l-.078-.04c0-.039.04-.078.04-.078 0 .039.156.078.156 0 0 .039.04.078.078.078 0 0 0-.039.04 0-.04-.078-.04-.039-.079-.078.078 0 .078 0 .118-.078l-.04.039s0 .039-.039.039c0 0-.078-.078-.039-.078-.117.078-.078-.117-.157-.078-.039 0-.039-.039 0-.078.04.039.079-.039.118-.039-.04-.039-.04.039-.078 0 0-.039.039-.039.039-.078l.039-.039c-.04 0-.04.039-.078 0 0 0 0-.078.039-.039s.117 0 .117.039c0-.039 0-.157-.078-.078v-.04c-.04.04-.078.079-.078 0l-.04-.039.04-.039s-.04 0-.04-.039c.04 0 .04-.039.04-.039 0-.078-.04-.039-.079-.078 0-.039 0-.039.04-.039 0-.039 0-.117.039-.156-.04-.078 0 0-.079-.039.118-.039.04-.196.04-.313-.118.039 0-.039-.118-.039.04.039.078-.078.117 0v-.039c.04-.039.04.078.118.039 0-.078-.118-.078-.078-.156.078.039-.04-.039.039-.039.039 0 .039.039.039.039.04-.117-.078-.039-.157-.117 0-.079.079-.079.079-.079v-.078c.039.039-.04.078-.079.078.079-.039 0-.117-.039-.156-.078.117 0 .078-.117.196.039 0 .117 0 .078.078-.04-.039-.04 0-.04 0 .04 0 0 .039.04.078-.04 0-.118-.039-.118.039h.118c0 .039-.078 0-.04.039-.038-.039-.078 0-.117-.078-.078.078.04.117.079.195h-.04c.04 0 .04.039.04.078-.04.039-.04-.039-.079-.039v.078s.04.039 0 .039c-.039-.039-.078-.039-.078-.039l.078.078c-.039 0-.078.079-.078 0v.118h-.078c0 .039.039.039.039 0 0 .039.117.156 0 .156.078.078.039.117.078.234-.078-.078-.078.078-.117 0-.04.039.039.078.078.118-.04.039-.118.039-.118 0l.04.039.039.039c-.04.039-.079 0-.079.039h.079l-.04.039c.04 0 .04 0 .04.039v.039c-.04-.039 0 .039-.04.039v.078h.04c.039.078-.079 0-.079.078h.04c-.079.117.039.157 0 .235 0-.039-.079-.039-.04-.039.04.078 0 .156.079.234-.079.039-.079.039-.118.117 0 .039 0 .039.04.078-.04.039.039.118-.04.118.04 0 0 .039.04.078h-.04.04c-.118.078.078.117 0 .234l.039.039h-.079v.156l.04-.039c0 .039.039.039.039.078-.079-.039 0 .04-.04.079l-.039-.039c0 .039 0 .039.04.039.039.078-.079.039-.04.117v-.039c.04 0 .079 0 .079.039 0 0-.04.039-.04 0 .04.039 0 .117.04.156 0 .039-.04.039-.079 0 .04.117 0 .039.04.156h-.04l.04.039-.04.039.04-.039c0 .039.039.039 0 .079h-.04c.04.078-.078.117 0 .195h-.039c.078.078-.078.078.04.156h-.04l.04.039h-.04l.078.039-.039.039h.04c-.118.039 0 .117-.079.157h.078c.157.117-.039.312.04.507h-.04l.079.079c-.04.039-.04 0-.079 0 .04.078.079.039.118.117-.04.039-.04 0-.078-.039a.72.72 0 01.078.273h.04c.038.039 0 .117.038.196-.039 0-.039-.001-.039-.04v.079h-.04c0 .039.04.117 0 .156.04 0 .08 0 .08.039-.08.039.038.117 0 .156-.04 0-.04-.039-.04-.039 0 .039.04.039.04.078h-.04l.078.156c-.078.04.04.157-.039.118 0 .039.04-.039.04 0-.04.039.039.039-.04.078v.039l-.078-.039c0 .039.078.078.117.039-.039.039 0 .078-.039.117.04.117-.117.195 0 .274h-.039v.078h-.04l.08.117h-.04c0 .078.04.195.04.273.078.078 0 .118.038.157v.078h-.039c.079.039-.039.156 0 .117.04.039.079.078.118.078 0 .078-.04.039-.04.078s.04.039.04.117h-.04c0 .039.04.039.04.079.078.078-.079.117.078.156 0 .039 0 .078-.04.117.04.078.08.156.118.234-.078.039 0 0-.039.079h.04c.039.117-.04.312 0 .429h-.04.079c0 .157.039.352.039.508.039.039.117.078.117.156.04.118.118.235.118.352h-.04c.079 0 .04.078.04.078l.039-.039c.04.039.04.078 0 .117l.078.039h.04l-.04.039s.04.079.118.079c-.04 0-.04.078-.04.039l.04.195v-.039c.039 0 .078.039.078.078-.04-.039-.078 0-.117.039.039.039.039-.039.078-.039.04.039.078.078.04.117h-.04c.04.039-.04.078-.04.117.04.039.04.079.118.039.04.04-.039.04-.039.04.04 0 .04.117 0 .117.118 0 0 .156.118.156l-.04.078c.04 0 .079 0 .118.039-.04.039-.078.039-.078.078h.117c-.039.235.078.508.078.782.04.117.118.234.157.351v.117l.04-.117c0 .039.039.039.039.078 0 .157 0 .352.117.469.157.078-.078.117.04.156h-.04c.078.079.118.157.196.235-.118.039.039.078-.04.078h.04c-.04.039 0 .078-.04.078l.079.039h-.04c0 .078.118.196 0 .235.118.117.197.39.236.586.039 0 .078.078.078.117l-.313-.078c.039.039.117.078.117.117.04.039 0 .078.079.117 0 .039 0 .117-.04.117.079-.039.04.117.04.117s.196.665.47 1.368c.274.703.705 1.445 1.096 1.641.04 0 .118.039.157 0 .04.039-.04.078 0 .078 0-.078.118-.039.157-.118l.039.04c.039 0-.04-.04 0-.04l-.079.04c0-.04 0-.079.04-.079-.04 0-.157.039-.157-.078-.04-.039.04-.039.04-.078l.038-.078c0 .039.079.078.079.039 0-.078 0 .039-.04 0 0-.039.04-.039.04-.039l-.04-.039c.04 0 0 .039.04 0l-.079-.039c.079-.039-.078-.039 0-.117.04.039.04 0 .079-.039l-.079-.118h.04c0-.039-.04-.039-.04-.039.04-.039-.039-.078.04-.117 0-.117-.118 0-.079-.078.04-.039.04.039.079 0l-.04-.078c.04 0 .079 0 .079.039-.04-.234.117-.43 0-.625.039-.039.039 0 .078 0-.117-.117.04-.234-.04-.352h-.038c.039-.234-.118-.39-.118-.586v.039c-.039 0-.078-.039-.117-.078 0 0 .078 0 .039-.078 0 0 0 .039-.04.039.04-.195-.117-.547-.156-.82-.157-.352-.235-.782-.392-1.133.04.039-.078.078-.078 0 .118-.156-.078-.195 0-.352-.117-.195-.04-.429-.235-.586h.04c0-.039-.04-.039-.04-.078 0-.078-.078-.156-.078-.195h-.04c0-.039.04-.039 0-.078h.04l-.079-.039c.079-.039-.039-.118 0-.157-.039-.039-.117-.156-.117-.234.039-.039 0-.117 0-.195-.04-.118-.118-.313-.157-.469l-.078.039v-.039h.039c.078-.039-.04-.078 0-.156-.04.039 0 .039 0 .039-.04.039-.078.039-.078-.039l-.04-.04c.04 0 .079-.039.118-.078-.04-.156-.157-.234-.157-.39.04 0-.039-.118.079-.078-.079-.079-.079.039-.157 0 0-.04-.04-.04 0-.04s.04-.039.078 0l-.039-.039h.04c-.079-.117 0-.234-.079-.312-.04 0 0 .039-.04.039-.078-.078.04-.117-.038-.195h.039c-.04-.039-.078-.039-.078-.079.039-.039.039.04.078.04 0-.04-.04-.118-.078-.079-.04-.039 0-.078.039-.078 0 0-.04.039-.079.039v-.234h.04c-.157-.117-.04-.156-.079-.234z" fill="#202020"/><path d="M88.402 176.279c0 .038.038.038.038.038l-.038-.038zm.351 1.796c0-.038-.038 0-.038 0h.038zm-.743-3.476c.04.04 0 0 0 0zm.038-.508h-.038s0 .038.038 0zm-3.015 86.336c0-.039.039-.077.039-.116l-.039.116zm.744-.937l-.039.039c0 .039.039 0 .039-.039zm.236-2.031c-.04 0-.04 0 0 0-.04.04-.04 0 0 0zm-.314.781v.078c0-.039.039-.078 0-.078zm-7.951 5.665c.04-.039.04-.117.04-.157l-.04.157zm7.912-3.321c.038.079-.04.157 0 .196 0-.078.038-.157 0-.196zm-8.147 3.086c-.04.039-.04.039 0 0 0 .039 0 0 0 0zm-2.586 11.564c0 .039 0 .039.039.078-.039-.039-.039-.039-.039-.078zm2.86-11.486l.04-.078c-.04 0-.04.039-.04.078zm5.249 6.993c-.04.04 0 .118 0 .157v-.157z" fill="#202020"/><path d="M80.764 277.734c.313-.547.548-1.25.744-1.758-.039-.156.04-.312.079-.469h.117v-.156c.04-.039-.04.117.04.039l-.04-.078c.04 0 .157-.352.118-.078l.195-.508c.04-.117-.039-.078 0-.195.04 0 0 .039.04.039.195-.352-.04-.508.156-.86v.039c0-.078.04-.195.04-.195-.118 0 .038.078-.079.156-.078-.039 0-.156-.078-.156.039-.078.039-.156.039-.195.078-.117.117-.313.196-.352 0-.078-.079-.156 0-.312.078-.079.039.039.117-.079l-.039-.039c.04-.117.04-.078.078-.078.04-.117-.039-.117.04-.234v.078c0-.117.039-.156.078-.273.039 0 0 .078 0 .117.078-.039 0-.157.039-.196-.04 0-.078.118-.078.039.039-.078 0-.156.039-.195v.078c0-.156-.04-.117.039-.273h.04c-.04-.117.078-.235.117-.43v.039c0-.078-.04-.117 0-.156-.04.078-.079.039-.118.039.118-.078-.039-.195.078-.391.04 0 .04.078 0 .117.04.079.118.118.118.274 0-.078.04-.156.04-.156l-.08-.039c0-.039.04-.079.04-.118-.04-.039-.118.079-.118-.039 0-.117.079-.039.079-.078.039-.156-.04-.078 0-.234v.078c.078-.117.078-.273.156-.273 0 .039.04.039 0 .078.04.156 0-.118.079-.039-.04 0 0-.157.039-.235h-.078c-.079-.273.117.039.156-.195 0-.156-.039.039-.039-.039.04-.117.118-.117.118-.274.039-.039.078-.117.156-.117 0-.117.118-.273.079-.351-.118.156 0 .156-.118.312l-.039-.078c.04-.117.04-.274.117-.391h-.039c.04-.195 0-.234.04-.429.078 0 .039.078 0 .156.078-.117.039-.117.117-.274.04 0-.04.118 0 .157l.04-.196c-.08-.039.038-.156.078-.273.078-.274 0-.352-.04-.508.04-.039.04-.039.079 0-.04.039-.04.039 0 .078 0-.078.156-.195.156-.117 0-.156-.039.039-.039-.039l.078-.196c-.039 0-.078.079-.078-.039 0-.078.04-.117.078-.234 0 .039.079-.039.04.078.039-.039.039-.156.039-.195-.079.117.039-.235-.079-.156l.079-.118v.078c.078 0 0-.117 0-.156.039-.039.078-.156.078-.156 0-.039.04-.156.078-.156 0-.078-.039 0-.039-.039l.079-.196c.039 0 .156 0 .156.039 0-.078-.078-.039-.078-.156.04.078.078-.156.157-.039.078-.039.117-.234.117-.352-.039-.078-.078.118-.117.079.039-.313-.079-.352 0-.586l-.04.039c0-.157 0-.118-.039-.235.04.039.235-.117.274-.351-.039-.039-.078.117-.156.078l.039-.157v.04c0-.157.157-.235.078-.274l.118-.117-.04.039c-.039-.039 0-.195 0-.195 0-.157.04-.196.118-.274-.039.039-.117.078-.078-.039.117.039.117-.234.156-.234 0-.039.079-.118.04-.157l.078.039c-.078-.039-.04-.195-.04-.351.118.078.04-.156.158-.195-.079-.04 0-.235-.04-.274 0-.117.118-.078.118-.078l-.04-.039c.04-.039.118-.235.157-.352l-.039-.117.04-.039c0-.039 0-.117-.04-.078v-.039c-.078-.039 0-.078 0-.196 0-.039.04 0 .04 0 0-.078.039-.039.078-.039-.04.04-.118-.234-.196-.078-.04 0-.04-.078 0-.156h.078l-.078-.078c0-.078.078-.117.078-.195 0 .078.118.195.157 0 0 .117.04.156.04.234 0-.039.038-.039.038 0 0-.156-.039-.078 0-.195.079.039.118 0 .157-.157l-.078.078v-.039c0 .04-.04.039-.04.039 0-.039-.039-.195 0-.195-.156.117-.039-.273-.117-.195 0-.039 0-.117.04-.117.038.117.077-.078.156-.039 0-.039-.079.078-.079.039 0-.078.079-.118.079-.157v.039l.039-.117c-.04-.039-.078.117-.078 0 .039-.039.039-.117.039-.117.039.078.117.039.117.117 0-.078.04-.312-.039-.234l.04-.078c-.04.039-.118.195-.118 0l-.04-.117.04-.04s-.04-.039-.04-.078c.04 0 .04-.039.079-.039.04-.117 0-.117-.04-.156 0-.078.04-.117.08-.078.038-.117.038-.274.117-.352 0-.156-.04.039-.04-.078.157-.078.118-.469.157-.664-.117.039 0-.078-.078-.117.039.039.117-.196.117 0v-.117c.079-.079 0 .195.118.078.039-.117-.079-.235 0-.391.078.078 0-.117.078-.078.04.039 0 .078 0 .117l.04-.039c.078-.312-.08-.117-.118-.273.039-.196.078-.118.117-.157a.118.118 0 000-.156c.04.117-.078.195-.117.156.117-.078.039-.273.039-.312-.118.234-.04.195-.157.39.04.04.118.04.04.196-.04-.117-.04 0-.079.039.04-.039 0 .117 0 .156-.04.039-.078-.117-.117.039l.117.039c-.04.039-.078-.039-.078.078-.04-.078-.079 0-.079-.156-.117.195 0 .313 0 .469 0 0 0-.039-.039-.039.04.039 0 .078 0 .156-.039.078-.039-.078-.078-.078l-.04.156c0 .039 0 .078-.038.117-.04-.039-.04-.078-.079-.117l.04.196c-.04-.039-.079.117-.079 0l-.04.273h-.077c0 .078 0 .078.039 0-.04.078.039.43-.079.352.04.195 0 .273-.039.547-.039-.196-.117.195-.117 0-.04.117 0 .156 0 .234-.04.078-.118.039-.118-.078v.117l.04.117c-.04.078-.079 0-.118.117l.039.04-.04.078c.04-.039.04.039.04.117v.078c0-.078-.04.078-.078.039 0 .078 0 .078-.04.234h.04c0 .196-.079 0-.118.157h.04c-.118.195-.04.351-.118.508 0-.079-.04-.079-.04-.079 0 .157-.078.352-.039.508-.078.039-.117.039-.156.196v.156c-.04.078-.04.312-.118.273.04.039-.039.078 0 .157h-.039.04c-.157.156 0 .312-.157.468v-.039.078c-.04 0-.04-.039-.04-.039l-.078.352.04-.078c0 .078.038.117-.04.195-.039-.156-.039.117-.078.117v-.078c-.04.117-.04.117.039.117 0 .157-.118.079-.078.196l.039-.078c.039 0 .078.039.039.117 0 0-.04.039-.04 0 0 .117-.078.273-.078.312-.039.039-.078.039-.078 0 0 .235-.039.118-.039.352h-.04v.078l-.078.078.04-.039c0 .078 0 .117-.04.196l-.039-.04c-.039.196-.117.235-.117.43v-.039c0 .195-.118.117-.079.313h-.039v.078l-.039-.039.078.078-.078.039v.039c-.117.078-.078.195-.196.313h.079c.078.351-.275.664-.314 1.054l-.039-.039.04.157c-.079.078-.04-.079-.079-.04 0 .157.078.079.04.274-.08.078-.04-.039-.04-.078-.04.195-.078.469-.157.586 0 .117-.078.273-.117.39-.04 0 0-.039 0-.078 0 .039-.04.118-.04.157l-.038-.079c-.04.079-.04.313-.118.313.04 0 .078 0 .04.078-.08.039-.04.234-.118.391v-.078c-.04.078-.04.156 0 .195l-.04-.039-.039.352c-.078.039-.078.312-.117.273-.04.117.078-.078.039.078-.04.039-.04.156-.078.117l-.04.118-.039-.079c0 .078 0 .157.04.196-.04.078-.079.195-.118.234v-.039c-.04.234-.274.352-.235.547 0 0-.04 0 0-.039l-.04.156-.038-.039v.274h-.04c-.078.156-.117.39-.195.625v-.039c-.04.234-.079.195-.118.39v-.039l-.04.156v-.039c.04.118-.195.274-.117.235 0 .078 0 .195.04.195-.04.156-.04.039-.118.117-.04.117 0 .157-.078.313h-.04c-.039.078 0 .117-.039.234v-.039c0 .195-.156.156-.078.352-.04.078-.078.195-.117.156-.04.234-.079.391-.118.586-.117 0 0 .039-.117.156h.039c-.118.274-.314.586-.431.899h-.04l.04.078-.47.938a.52.52 0 01-.118.312c-.078.195-.235.43-.391.586 0-.039-.04 0-.04-.039 0 .078-.078.117-.117.117h.078c0 .078-.117.117-.156.117l-.04.118h-.039v.039l-.078-.039c0 .039-.118.117-.118.195-.039 0-.117 0-.039-.039 0 0-.313.156-.313.117h.04c.038.039-.08.117-.118.117.039-.078 0-.078-.04-.078-.039.039.04.039.04.078a.415.415 0 01-.196.078l.039-.039c-.078.039-.118-.039-.196-.039-.078.039-.117 0-.117.117-.118 0-.04-.078-.079-.078-.039.039-.195 0-.195-.039-.079.117-.275-.078-.314 0l-.078-.078c0 .039-.04.078-.118.078-.039-.039-.039-.078-.039-.117l-.078.078c-.157-.117-.392-.234-.588-.391-.195-.156-.391-.312-.509-.507-.156-.118-.352-.313-.43-.508h.038l-.078-.235.04.196c-.04-.039-.08-.078-.08-.117-.077-.274-.156-.626-.273-.938-.157-.195.078-.156-.04-.352l.04.039-.196-.586c.117 0 0-.156.04-.117h-.04c.04-.039.04-.195.078-.156l-.078-.117h.04c0-.157-.04-.43.077-.508-.078-.352 0-.899.079-1.367-.04-.079 0-.196 0-.313l.078-.117c0-.117-.04-.235 0-.313 0-.117.04-.195 0-.312.04-.117.078-.235.118-.157-.079-.039.078-.234.078-.234s.353-1.445.94-3.047c.548-1.602 1.41-3.243 1.567-4.024 0-.078.039-.195-.04-.195.04-.117.157-.078.118-.157-.118.118-.078-.117-.196 0l.04-.078c0-.039-.04.118-.079.078l.078.079c-.039.039-.078.078-.117.078 0 .078.078.195-.079.312l.04-.039c-.079.117-.079.039-.118.039v-.039l-.078.078c.078-.078.078-.234.039-.156-.118.117.04-.039 0 .078-.04.078-.078.039-.078 0l-.079.117c-.039-.039.04-.078 0-.039l-.039.157c-.117-.039-.039.195-.196.195.04-.117-.039 0-.039-.039l-.156.273c-.04 0 0-.078 0-.039-.04.039-.04.078-.04.117-.039 0-.117.196-.156.157-.157.156.039.117-.079.273-.039 0 .079-.156 0-.078l-.078.195c0-.039-.04-.078 0-.117-.313.469-.627.625-.783 1.094-.079.039 0-.078-.04-.117-.078.351-.313.43-.43.703l.039.039c-.274.352-.392.86-.588 1.328l.04-.039v.274c-.04 0-.079-.078-.079.039.04-.039.04-.078.078-.039-.235.351-.47 1.25-.665 1.914-.196.938-.431 1.914-.47 2.852 0-.156.117-.078.078.039-.196.273 0 .508-.118.82.04.547-.039 1.094.196 1.602l-.039.039c0 .078.04.117.04.195.038.196.156.43.156.547h.04c.038.118-.04.079.038.196h-.039l.118.117c-.118.039.117.312.156.43.079.117.274.39.431.586 0 .078.157.312.274.468.274.274.705.626 1.136.86l.04-.078.117.039v.039c.039.117.274.117.352.195-.039-.078-.078-.039-.156-.078-.079-.078.039-.078.156 0h.118c0 .039.078.117.078.156.431.118.744.118 1.175.118-.039.078.313-.04.235.078.274-.078-.039-.078.078-.157.079 0 .157-.039.157 0-.039.039.078.039 0 .079l.196-.04s0 .04-.04.04c.353-.118.667-.118.94-.352 0-.039-.117.039-.117 0 .275-.234.275-.078.51-.313l-.04.079c.079-.079.079-.157.235-.235.079.039-.078.117-.117.195.078-.078.313-.273.196-.234.078-.117.156-.117.196-.156 0 0-.118.078-.079 0 .157-.117.314-.313.47-.469 0 0 .04 0 .04.039-.079-.43.039-.312.117-.547zm3.093-9.337l-.038.078s.038 0 .038.039v-.117z" fill="#202020"/><path d="M82.603 272.538c0-.077-.038 0-.038 0h.038zm2.782-10.977l-.039.078.04-.078zm.195-.469c0 .039 0 .078-.038.078 0-.039.039-.078.039-.078zm-.938 3.399c.038.078.038.039 0 0zm.782-2.579h-.038l.038.038v-.038zm-.431 1.484c0-.038-.038-.038-.038-.038 0 .038 0 .038.038.038zm-8.303 6.72c.039.039.039.039 0 0zm-.822 2.579s0 .039-.04.078l.04-.078zm-.626.389l.038-.038c-.038 0-.038.038-.038.038zm-.001-.546c-.038-.039.04-.078 0-.078 0 0-.038.039 0 .078zm6.972-17.97v-.039c-.04 0 0 0 0 .039zm-5.719 12.852s0-.039-.038-.078c.038 0 .038.039.038.078z" fill="#202020"/><path d="M77.16 263.826c-.078.274-.078.626-.195.86a.495.495 0 01.039.234l-.118-.039v.078c-.039 0 0-.039-.039-.039l.04.039c-.04 0-.08.157-.118.039l-.079.274c-.039.039.079.078.04.117-.04 0 0-.039-.04-.039-.117.156.118.274.04.43v.117c.117 0-.04-.039.039-.078.078.039.039.078.078.078-.04.039 0 .078 0 .117-.078.039-.078.156-.157.196 0 .039.079.078.079.156-.079.039-.04-.039-.118.039l.04.039-.04.039c0 .039.04.078 0 .117l-.039-.039c0 .039 0 .078-.04.156-.038 0 0-.039 0-.039-.077.039 0 .078 0 .078.04 0 .04-.039.08 0 0 .04.038.079-.04.118l-.04-.039c0 .078.04.039 0 .156h-.038c.039.078-.04.117-.04.195 0 .039.04.078.04.078.039-.039.039-.039.078 0-.078.039.078.118 0 .196-.04 0-.04-.039 0-.078-.078-.04-.157-.079-.157-.157 0 .039 0 .078-.039.078l.079.039v.04c.039.039.078-.04.117.039 0 .078-.078 0-.04.039 0 .078.08.039.04.117v-.039c-.04.039-.04.156-.117.117l-.04-.039c-.039-.078 0 .039-.078 0 .04 0 0 .078 0 .117h.04c.117.156-.118-.039-.118.078 0 .078.039-.039.039.039-.04.039-.078.039-.078.118-.04 0-.079.039-.118.039 0 .039-.078.117 0 .156.078-.078-.04-.078.078-.156l.04.039c-.04.078 0 .156-.04.195h.04c0 .078.039.156 0 .234-.04 0-.04-.039-.04-.078-.078.039 0 .039-.078.157-.04 0 0-.04-.04-.079v.118c.08.039-.038.078 0 .156-.038.156.08.195.118.273h-.078c.04-.039 0-.039 0-.039 0 .039-.117.078-.117.039 0 .078.039 0 .078.039l-.04.118c.04 0 .079-.039.079.039 0 .039 0 .078-.04.117 0 0-.078 0-.038-.039-.04.039-.04.078 0 .078.039-.039 0 .117.078.078l-.04.039s-.038-.039 0-.039c-.078 0 0 .039 0 .078s-.038.078-.078.078c0 .039 0 .078-.039.078 0 .04.04 0 .04.04l-.04.117c-.039 0-.117 0-.156-.039.039.039.117.039.078.117-.078-.039-.078.078-.157 0a.297.297 0 00-.078.195c.04.039.04-.039.118-.039 0 .156.117.195.078.313l.039-.039c0 .078 0 .078.04.117-.08-.039-.197.039-.236.156.04 0 .079-.039.118 0v.078h-.04c0 .078-.117.117-.039.156l-.117.04h.039c.04 0 .04.078.04.117.038.078 0 .117-.08.156.04 0 .118-.039.118.039-.117-.039-.078.117-.117.117 0 .039-.04.078 0 .078l-.078-.039c.078.039.078.118.078.196-.118-.039 0 .078-.118.078.079.039 0 .117.079.156 0 .039-.079.039-.118.039l.04.039c-.04 0-.079.117-.118.156l.078.079h-.039s.04.078.04.039v.039c.078.039 0 .039.038.117h-.039c0 .039-.039 0-.078 0 .039 0 .117.156.196.078.039 0 .039.039.039.078h-.078l.078.039c0 .039-.04.039-.078.078 0-.039-.118-.117-.157 0 0-.039-.04-.078-.04-.117 0 0 0 .039-.038 0 0 .078.039.039.039.117-.079 0-.079 0-.118.039l.079-.039s.039-.039.039 0c0 0 .078.118.039.118.117-.039.039.156.117.117 0 0 0 .078-.039.078-.039-.078-.078.039-.117 0 0 .039.078-.039.078 0s-.04.039-.078.078l-.04.039c.04 0 .079-.039.079 0 0 0 0 .078-.04.078-.038-.039-.117-.039-.117-.078 0 .039-.039.156.04.117v.039c.038-.039.117-.078.078 0l.039.078-.04.04s.04 0 .04.039c-.04 0-.04.039-.078 0 0 .078.039.078.039.078 0 .039-.04.039-.04.039-.039.039-.039.156-.078.156 0 .078 0 0 .04.039-.118.039-.079.235-.118.352.117 0 0 .039.117.078-.039-.039-.117.078-.117 0v.078c-.078.039-.04-.117-.118-.078 0 .078.079.117.04.195-.079-.039 0 .078-.079.039-.039-.039 0-.039 0-.078-.039.156.079.078.118.156 0 .079-.079.079-.118.039v.079c-.039-.079.079-.079.118-.079-.079.04-.04.118 0 .157.117-.117.039-.078.156-.196-.039-.039-.117-.039-.039-.117.04.039.04 0 .04 0-.04 0 0-.039-.04-.078.04 0 .079.078.118 0l-.118-.039c.04-.039.079.039.079-.039.039.039.078 0 .078.078.117-.078 0-.156-.04-.234l.04.039c-.04-.039 0-.039 0-.078.039-.039.039.039.078.039v-.118c.04.04.079.04.079.079l-.04-.118c.04 0 .079-.078.079 0v-.117h.078c0-.039-.04-.039-.04 0 .04-.039-.078-.234.04-.156-.04-.117 0-.156 0-.274.04.118.118-.078.118 0 .039-.039-.04-.078-.04-.117.04-.039.118 0 .118.039l-.04-.078-.038-.039c.039-.039.078 0 .078-.039l-.078-.039.039-.039c-.04 0-.04-.039-.04-.078v-.039c.04.039.04-.039.079 0v-.117h-.04c0-.118.079 0 .079-.079h-.04c.118-.078 0-.195.08-.273 0 .039.078.039.038.039 0-.078.04-.195 0-.273.079 0 .118 0 .157-.079 0-.039 0-.078-.04-.078.04-.039.04-.156.08-.156-.04-.039 0-.039 0-.078h.038-.039c.118-.078-.039-.156.079-.234v-.04c.039 0 .039 0 .078.04l.04-.157-.04.039c0-.039-.04-.078 0-.117.039.078 0-.039.078-.039v.039c0-.039 0-.039-.039-.078 0-.078.118-.039.078-.117v.039c-.039 0-.078-.039-.039-.078 0 0 .04-.039.04 0 0-.039.039-.117.039-.157.039-.039.039 0 .078 0 0-.117.04-.039 0-.156h.04l-.04-.039.078-.039h-.039v-.117l.04.039c0-.117.117-.117.078-.234l.039.039c-.04-.118.078-.039.039-.157h.04v-.039h.038l-.078-.039h.078l-.039-.039c.118 0 .04-.117.157-.156h-.079c-.117-.195.157-.352.157-.547h.04l-.04-.078c.04-.039.04.039.078.039 0-.078-.078-.039-.078-.156.04-.039.04.039.04.039 0-.078 0-.235.038-.313h-.039c0-.078.04-.156.04-.195.039 0 .039.039.039.039 0-.039.039-.039 0-.078l.039.039c.039-.039 0-.156.078-.156-.04 0-.078 0-.04-.04.08 0 0-.117.08-.195v.039c.038-.039 0-.078 0-.117h.038v-.195c.079 0 .04-.157.079-.118 0-.039-.04.04-.04-.039.04 0 0-.078.04-.039v-.039l.039.039c0-.039-.04-.078-.078-.117.039-.039.039-.117.078-.117 0-.117.196-.156.157-.274 0 0 .039 0 0 0l.039-.078.039.039-.04-.156h.04c.04-.078.04-.195.078-.312 0-.118.04-.118.04-.196l.039-.078.039.039c-.04-.078.117-.117.078-.117 0-.039-.04-.117-.078-.117.039-.078.039 0 .078-.039.04-.039-.04-.078.04-.157h.038v-.117c-.039-.117.118-.078 0-.195.04-.039.04-.117.079-.078v-.313c.078 0 0-.039.078-.078h-.04c.04-.156.197-.273.236-.43h.04l-.04-.039c.078-.156.157-.39.196-.508 0-.039-.04-.156 0-.195 0-.117.039-.273.117-.391 0 0 .04 0 .04.04-.04-.04.039-.079.039-.118l-.04.039c-.039-.039.04-.078.079-.117l-.04-.078h.04-.04.079s0-.117-.04-.156c.04 0 .04-.039.04 0l.078-.196-.039.04c-.039 0-.039-.079-.039-.118.04.039.078.039.117 0 0-.039-.039 0-.078 0 0-.039 0-.117.04-.156v.039c0-.039.078-.039.117-.117-.04-.039.039-.078-.079-.117 0-.078.079 0 .079-.039-.04-.039.039-.117.078-.117-.117-.079.118-.157 0-.196l.078-.039a.084.084 0 01-.078-.078c.04-.039.078 0 .118 0l-.079-.078c.196-.195.235-.547.431-.742.04-.118.04-.274.079-.43l.078-.117-.078.078v-.078c.078-.118.235-.313.235-.508-.079-.156.117-.039.078-.196l.039.04v-.352c.118.039.04-.078.078-.039l-.039-.039c.04 0 .079-.078.118-.039l-.04-.078h.04c.039-.079.039-.235.156-.235 0-.195.118-.469.235-.664-.039-.039 0-.117 0-.156l.079-.039c0-.039-.04-.157 0-.157 0-.039.039-.078.039-.156.039-.039.078-.078.117-.078-.078-.039.079-.117.079-.117s.352-.703.705-1.485c.352-.781.666-1.68.587-2.148-.039-.039-.039-.118-.078-.118 0-.039.078-.039.039-.078-.078.039-.117-.078-.196-.039v-.039c-.039-.039 0 .078-.039.039l.078.039c-.039.039-.039.039-.078.039 0 .039.118.118.04.157v-.039c-.04.078-.08 0-.08.039l-.078.039c.04-.039 0-.117 0-.078-.039.078.04 0 0 .039 0 .039-.039 0-.078 0l-.039.078c-.04-.039.04-.039-.04-.039v.078c-.117-.039 0 .117-.117.117 0-.078-.039 0-.078-.039l-.078.156c-.04 0 0-.039 0-.039-.04 0 0 .039 0 .078-.04 0-.04.118-.118.078-.078.079.079.079 0 .157-.039 0 .04-.078-.039-.039l-.04.078s-.038-.039-.038-.078c-.157.234-.431.273-.47.508-.079 0-.04-.04-.04-.079 0 .196-.195.196-.274.313l.04.039c-.196.156-.235.391-.392.625h.039c.04.039 0 .117 0 .156-.04 0-.078-.078-.078 0 .039 0 .039-.039.078 0-.196.157-.313.547-.51.86-.156.43-.43.859-.547 1.289.039-.078.117 0 .078.039-.235.078-.079.234-.235.352-.04.273-.274.429-.235.703h-.04c-.039.039 0 .039 0 .078-.039.078-.039.195-.078.234l.04.039c0 .04-.04 0-.04.079h-.039l.04.078c-.08-.039-.08.156-.118.156 0 .078 0 .195-.079.313-.039 0-.117.117-.156.195-.04.156-.118.391-.196.586h.078v.039h-.039c-.078 0-.04.117-.078.156.078 0 .039-.039.039-.078.04-.039.078.039.04.078v.039h-.118c-.04.156 0 .313-.079.469-.039-.039-.039.117-.117.078 0 .117.078 0 .117.078 0 .039 0 .078-.039.078 0-.039-.078 0-.078-.039v.079l-.04-.04c0 .157-.156.235-.117.391.04.039.04-.039.04-.039.038.156-.08.078-.08.234l-.038-.039c0 .039.039.078 0 .118-.04 0-.04-.079-.04-.118 0 .039-.039.157.04.157 0 .039-.04.078-.079.078 0 0 .04-.039.079 0-.04.078-.079.156-.118.273h-.039c0 .117-.117.078-.157.156z" fill="#202020"/><path d="M76.612 266.483c0 .038.038 0 .038 0h-.038zm-.627 3.125c0-.039-.038-.039 0 0-.038-.039 0 0 0 0zm-.391 1.524l.038.038c0-.038 0-.038-.038-.038zm17.429-60.944h.038c0-.038-.038-.038-.038 0zm2.82-10.548l-.038-.039.038.039zm-2.859 10.236c-.038-.039.04-.039 0-.039 0 0-.038 0 0 .039zm.704-2.814s0-.038-.038-.038l.038.038z" fill="#202020"/><path d="M93.728 205.071c0 .156.04.351-.039.468.079.04.079.079.079.157h-.118l.04.039c-.04 0 0-.039-.04 0l.04.039c-.04 0-.04.078-.118 0l-.04.156c0 .039.079.039.04.078-.04 0 0 0-.04-.039-.078.078.157.156.079.274.04.039 0 .039.04.039.117 0-.04-.039 0-.039.077.039.038.039.117.078-.04 0 0 .039 0 .078-.079.039-.04.078-.118.078.04.039.118.078.078.078-.078 0-.078-.039-.078 0h.04c0 .039-.04.039-.04 0 0 .039.078.039.04.078l-.04-.039v.078c-.04 0-.04-.039 0-.039-.078 0 .04.039 0 .039.04 0 .04-.039.078 0 0 0 .04.039 0 .079l-.039-.04c.04.04.04.04.04.079h-.04c.04.039 0 .078-.039.117 0 .039.04.039.04.039h.078c-.079 0 .078.078.039.117-.04 0-.04-.039-.04-.039-.078-.039-.156-.039-.156-.117 0 .039.04.039 0 .039l.078.039v.039c.04 0 .079 0 .118.039 0 .039-.079 0-.04 0 .04.039.079.039.04.078v-.039c-.04.039 0 .078-.079.078 0 0-.039 0-.039-.039-.039-.039 0 .039-.078 0 .04 0 .04.039 0 .078h.04c.156.118-.118-.039-.118.039l.039.039c0 .04-.079.04-.04.079-.039 0-.078.039-.117 0 0 .039-.04.078 0 .078.078-.039-.04-.039.04-.078l.038.039v.117h.04c0 .039.078.078.039.117-.04 0-.04-.039-.04-.039-.039.039 0 .039-.039.078-.039 0 0-.039-.039-.039v.039c.079.039 0 .039 0 .078 0 .078.079.117.157.157h-.078c.039 0 0 0 0-.04 0 .04-.079.04-.118 0 0 .04.04 0 .078.04v.039c.04 0 .04 0 .079.039v.078s-.079 0-.04-.039c-.039 0-.039.039 0 .039.04-.039.04.078.079.039l-.04.039s-.038 0 0-.039c-.078 0 0 .039 0 .039l-.038.039s0 .039-.04.039c0 .039.04 0 .079.039l-.04.039c-.039 0-.117-.039-.156-.039.04.039.117.039.078.078-.078-.039-.078.039-.117 0-.04 0-.079.078-.04.078.04.039.04-.039.079 0 0 .079.157.118.117.196.04.039 0 .039.04.078-.079-.039-.196 0-.196.078h.117v.039h-.039c0 .039-.117.039-.04.078h-.117.04c.039 0 .039.039.039.078.039.039 0 .078-.04.078.04 0 .118 0 .118.04-.117-.04-.078.039-.117.039 0 0-.04.039 0 .039l-.079-.039c.079.039.079.078.079.117-.118-.039 0 .039-.118.039.078.039 0 .078.078.117 0 .039-.078 0-.117 0l.039.039c-.04 0-.078.039-.118.078l.079.039h-.04l.04.039c.078.039 0 .039.039.078h-.118c.04 0 .118.118.196.079.04 0 .04.039.04.039h-.079l.079.039c0 .039-.04.039-.079.039 0-.039-.117-.078-.156-.039 0-.039-.04-.039-.04-.078h-.039c0 .039.04.039.04.078-.079-.039-.079 0-.118 0h.079s.078.078.038.078c.118 0 .079.078.118.078 0 0 0 .039-.04.039-.038-.039-.078 0-.117 0h.079c0 .039-.04.039-.079.039l-.039.039h.078s0 .039-.039.039c-.039-.039-.117-.039-.117-.078 0 .039 0 .078.078.078v.039c.04 0 .078-.039.078 0l.04.039h-.04s.04 0 .04.039h-.079c0 .04.04.04.04.04 0 .039 0 .039-.04 0a.084.084 0 01-.078.078l.039.039c-.117 0-.078.117-.078.156.117 0 0 .039.117.039-.039-.039-.078.039-.117-.039v.039c-.079 0-.04-.078-.118-.039 0 .039.118.078.04.117-.079-.039 0 .039-.079 0-.04 0 0-.039 0-.039-.04.078.078.039.118.117 0 .039-.079.039-.118 0v.039c-.04-.039.078-.039.118 0-.079 0-.04.079 0 .079.117-.04 0-.04.117-.079-.04 0-.117-.039-.04-.078.04.039.04 0 .04 0-.04 0 0-.039-.04-.039.04 0 .08.039.118 0l-.117-.039c.039 0 .078.039.039 0 .04.039.078 0 .078.078.118-.039-.039-.078-.039-.156h.04c-.04 0 0-.039-.04-.039.04-.039.04.039.079.039v-.078a.12.12 0 00.078.039l-.04-.078c.04 0 .079-.039.079 0v-.078h.078c0-.039-.039-.039-.039 0 .04 0-.078-.157.04-.078-.04-.079 0-.079-.04-.157.04.078.079-.039.118.039.039-.039-.04-.039-.04-.078.04 0 .118 0 .118.039l-.04-.039-.038-.039h.078l-.078-.039h.039c-.04 0-.04-.039-.04-.039v-.039c.04.039 0 0 .08 0v-.078h-.04c-.04-.078.078 0 .078-.039h-.039c.078-.039 0-.117.04-.157 0 .04.078.04.038.04 0-.039.04-.118-.039-.157.079 0 .079 0 .157-.039 0-.039 0-.039-.04-.039.04-.039 0-.078.08-.078-.04 0 0-.039 0-.039h.038-.039c.118-.039-.04-.117.078-.117v-.039c.04 0 .04 0 .079.039l.039-.078h-.04c0-.039-.038-.039 0-.078.08.039 0-.04.08-.04v.04c0-.04 0-.04-.04-.04 0-.039.117 0 .04-.039v.039c-.04 0-.08-.039-.08-.039h.04c0-.039.04-.078 0-.078h.078c-.039-.078 0-.039 0-.117h.04l-.04-.039h.079-.04v-.078l.04.039c0-.078.078-.039.039-.117h.039c-.04-.078.078-.039 0-.078h.04l-.04-.039h.04l-.08-.04h.08-.04c.117 0 .04-.039.117-.078h-.078c-.117-.117.118-.195.078-.312h.04l-.04-.078c.04 0 .04.039.079.039 0-.039-.079-.039-.079-.078.04 0 .04 0 .04.039 0-.039-.04-.157 0-.157h-.04c0-.039 0-.078.04-.117.039 0 .039 0 .039.039 0 0 .039-.039 0-.039l.039.039c0-.039 0-.078.04-.078-.04 0-.08 0-.04-.039.078 0 0-.078.04-.117v.039c.038 0 0-.039-.04-.078h.04l-.04-.117c.078 0 0-.079.078-.079 0-.039-.039 0-.039-.039.04 0 0-.039.04-.039v-.039l.038.039c0-.039-.039-.039-.078-.078.04 0 0-.039.078-.039 0-.078.157-.078.079-.156 0 0 .039 0 0 0v-.039h.039l-.04-.078h.04c.04-.039.04-.118.04-.196-.04-.078.038-.039.038-.117v-.039h.04c-.04-.039.078-.078.039-.078-.04-.039-.04-.078-.079-.078 0-.039.04 0 .079-.039 0-.039-.04-.039 0-.078h.039v-.079c-.04-.078.078-.039 0-.117.039 0 0-.039.078-.039-.04-.078-.04-.117-.04-.195.08 0 0 0 .04-.039h-.04c0-.078.158-.156.158-.235h.039l-.04-.039c.04-.078.079-.234.118-.312-.04-.039-.078-.078-.04-.117 0-.079-.038-.157.04-.235h.04c-.04-.039 0-.039 0-.078h-.04c-.04-.039 0-.039.04-.078l-.04-.039h.04-.04.078s0-.078-.078-.078c.04 0 .04-.039.04 0l.038-.117H95.1c-.039 0-.078-.04-.039-.079.04.039.078 0 .118 0-.04-.039-.04 0-.079 0-.039-.039-.039-.078 0-.078 0-.039.079-.039.079-.078-.04-.039 0-.039-.079-.039 0-.039.079 0 .079 0-.04-.039 0-.078.039-.078-.118-.039.078-.078-.04-.117l.079-.039c-.04 0-.078-.039-.078-.039h.117l-.117-.039c.117-.118.078-.313.196-.43 0-.078-.04-.156 0-.235l.039-.078-.04.039-.039-.039c.04-.078.118-.195.079-.312-.118-.078.117-.039.039-.117h.039c-.04-.079-.04-.118-.117-.196.117.039 0-.039.078-.039h-.04c.04 0 .04-.039.079-.039l-.04-.039h.04c0-.039 0-.117.078-.156-.039-.117 0-.274.04-.391-.04-.039-.04-.078-.04-.078l.079-.039c0-.039-.079-.078-.04-.117 0-.039.04-.039-.039-.078 0-.04.04-.079.079-.04-.079 0 .039-.078.039-.078s.117-.429.157-.898c.039-.469.039-1.016-.196-1.25-.04 0-.079-.078-.118-.039 0-.039.079-.039.04-.039-.04.039-.118-.039-.196 0v-.039c-.04 0 .039.039-.04.039h.079s-.04.039-.079.039c.04.039.157.039.079.078 0 .039-.079 0-.079.039l-.039.039c.04-.039-.04-.078-.04-.039-.038.039.04 0 .04.039s-.04 0-.078 0v.039c-.04 0 0-.039-.04 0l.04.039c-.118 0 .039.039-.04.078-.039-.039-.039 0-.078 0v.078s-.039-.039-.039 0c-.04 0 .04.039.04.039-.04 0 0 .078-.08.039-.038.039.08.04.04.079-.04 0 0-.039-.04-.039v.039c-.038 0-.077 0-.038-.039-.079.156-.314.195-.274.351-.04 0-.04 0-.079-.039.04.117-.117.117-.117.195h.039c-.157.118-.078.235-.157.352h.04c.039.039.039.039.039.078-.04 0-.079-.039-.079 0 0 0 .04-.039.04 0-.118.078-.118.352-.196.508 0 .234-.118.508-.118.742 0-.039.118 0 .078 0-.195.039 0 .156-.117.196.04.156-.157.234-.04.39h-.038c-.04 0 0 .039 0 .039-.04.039 0 .117 0 .117h.039c0 .04-.04 0 0 .04h-.04l.04.039c-.079 0-.04.078-.079.078 0 .039.04.117 0 .156-.039 0-.078.078-.078.117 0 .078 0 .196-.04.313h.08v.039h-.04c-.078 0 0 .078-.04.078.08 0 0 0 0-.039.04 0 .08 0 .04.039l.04.039h-.118c0 .078.078.156.039.273-.04-.039 0 .079-.078.04.039.078.078 0 .156.039v.039h-.078v.039h-.04c.04.078-.078.117-.038.195.039 0 0-.039.039 0 .039.078-.079.039-.04.117l-.039-.039c.04.039.079.039.04.078-.04 0-.04-.039-.079-.078 0 .039 0 .078.04.078 0 .039-.04.039-.04.039s.04-.039.079 0c-.04.039-.04.079-.079.157h-.039c.196.547.078.547.078.586z" fill="#202020"/><path d="M93.454 207.727c0-.039-.038-.039 0 0zm-.039 1.095c-.04-.041-.04 0 0 0zm-.195.273s.037 0 .037.038c.039 0 0-.038-.038-.038zm3.29-3.829c0-.039 0-.039 0 0-.04-.039-.04-.039 0 0zm1.565-9.103l-.038-.038.038.038zm-2.937 11.408c-.04-.039 0-.039 0-.078-.04.039-.078.039 0 .078zm2.899-11.447c-.039-.039 0-.039 0 0zm-2.351 8.282s0-.039-.038-.039l.038.039z" fill="#202020"/><path d="M95.687 202.18c0 .156.04.39-.04.547.08.039.08.117.08.156h-.118l.039.039c-.04 0 0-.039-.04 0l.04.039c-.04 0-.04.117-.118.039l-.039.156c0 .039.079.04.04.079-.04 0 0 0-.04-.039-.078.117.157.156.118.273.039.039 0 .078.039.078.117 0-.04-.039 0-.039.078 0 .039.039.117.078-.039.039 0 .039 0 .078-.078.039-.039.078-.117.117.039.04.117.079.078.118h-.078.039c0 .039-.04.039-.04 0 0 .039.08.039.04.078l-.04-.039v.078c-.038 0-.038-.039 0-.039-.078 0 .04.039 0 .078.04 0 .04-.039.08 0 0 .039.038.078 0 .078l-.04-.039c.04.039.04.039.04.078h-.04c.04.039 0 .078-.04.117 0 .039.04.039.04.039.04-.039.04 0 .078 0-.078.039.079.079.04.118-.04 0-.04-.039-.04-.039-.078-.04-.156-.04-.195-.079 0 .039.039.039 0 .039l.078.04v.039c.039 0 .078 0 .117.039 0 .039-.078 0-.039 0 .04.039.079.039.04.078v-.039c-.04.039 0 .078-.079.078-.04 0-.04 0-.04-.039-.078-.039 0 .039-.078 0 .04 0 .04.039 0 .078h.04c.156.117-.118-.039-.118.039l.04.039c0 .039-.079.039-.04.078-.039 0-.078.039-.117.039.039.039-.04.078 0 .117.078-.039-.04-.078.039-.117l.039.039v.118h.04c0 .078.078.078.038.156-.039 0-.039-.039-.039-.039-.039.039 0 .039-.039.078-.04 0 0-.039-.04-.039v.078c.08.039 0 .039 0 .078 0 .078.08.117.157.195h-.078c.04 0 0 0 0-.039 0 .039-.078.039-.117.039 0 .039.039 0 .078.039v.079c.04 0 .04-.039.078 0v.078c-.039 0-.078 0-.039-.039 0 0-.039.039 0 .078.04-.039.04.078.079.039l-.04.039s-.039 0 0-.039c-.078 0 0 .039 0 .039l-.039.039s0 .039-.039.039c0 .039.04 0 .078 0v.078c-.039 0-.117 0-.156-.039.039.039.117.039.078.078-.078-.039-.078.039-.157 0-.039 0-.078.078-.039.117.04.04.04-.039.079 0 0 .079.156.118.117.196.04.039 0 .039.078.078-.078-.039-.195 0-.195.078.039 0 .078-.039.117 0v.039h-.04c0 .039-.117.078-.038.078l-.118.039h.04c.038 0 .038.078.038.078.04.04 0 .079-.039.079.04 0 .118 0 .118.039-.118-.039-.04.078-.118.078 0 0-.039.039 0 .039h-.078c.078.039.078.078.078.117-.117-.039 0 .039-.117.039.078.039.039.078.078.117 0 .039-.078 0-.117 0l.039.039c-.04 0-.078.079-.078.118l.078.039h-.04l.04.039c.078 0 0 .039.039.078h-.118c.04 0 .157.078.196.039.04 0 .04.039.04.039h-.079l.079.039c0 .039-.04.039-.04.039 0-.039-.156-.078-.156 0 0-.039-.04-.039-.04-.078h-.039c0 .039.04.039.04.078-.079 0-.079 0-.118.039l.04-.039h.038s.079.078.04.078c.117-.039.078.078.156.078v.039c-.039-.039-.078 0-.117 0 0 0 .039-.039.078 0 0 .04-.04.04-.078.04l-.04.039c.04 0 .079-.039.079 0 0 0 0 .039-.04.039-.038-.039-.117-.039-.117-.039 0 .039 0 .117.079.078v.039c.039 0 .078-.039.078 0l.039.039h-.04s.04 0 .04.039h-.078c0 .039.039.039.039.039 0 .039 0 .039-.04 0 0 .039 0 .078-.038.117.039.039 0 0 .078.039-.118 0-.078.117-.078.196.117 0 0 .039.117.039-.04-.039-.078.039-.117 0v.039c-.079 0-.04-.078-.118-.039 0 .039.118.078.078.117-.078-.039 0 .039-.078 0-.04 0 0-.039 0-.039-.04.078.078.039.118.117 0 .039-.079.039-.118.039v.039c-.04-.039.04-.039.118-.039-.079 0-.04.078 0 .117.117-.078 0-.039.117-.117-.04 0-.117-.039-.078-.078.039.039.039 0 .039 0-.04 0 0-.039-.04-.039.04 0 .079.039.118 0l-.117-.039s.078.039.039-.039c.039.039.078 0 .078.078.118-.039-.039-.117-.078-.156h.039c-.04 0-.04-.039-.04-.039.04-.04.04.039.08.039v-.079c.038.04.078.04.078.04l-.079-.079c.04 0 .079-.039.079 0v-.078h.078c0-.039-.04-.039-.04 0 .04-.039-.117-.156.04-.117-.04-.078 0-.078-.04-.156.04.078.079-.039.118 0 .04-.039-.039-.039-.039-.078.04-.039.118 0 .118.039l-.04-.039-.039-.039c.04-.039.079 0 .079-.039h-.079.04c-.04 0-.04 0-.04-.04v-.039c.04.039 0-.039.079 0v-.078h-.04c-.039-.078.079 0 .079-.039h-.04c.079-.039-.039-.117.04-.156 0 .039.078.039.039.039 0-.039 0-.117-.04-.156.079 0 .079 0 .118-.039 0-.039 0-.039-.039-.039.04-.039 0-.079.04-.079-.04 0 0-.039 0-.039h.038-.039c.118-.039-.039-.117.079-.156v-.039h.078l.039-.117h-.04c0-.039-.038-.039 0-.078.08.039 0-.039.08-.039v.039c0-.039 0-.039-.04-.039 0-.039.118 0 .04-.078v.039c-.04 0-.08-.039-.08-.039h.04c0-.04.04-.079 0-.118H96c-.039-.078 0-.039 0-.117h.04l-.04-.039.079-.039h-.04v-.078h.04c0-.078.078-.078.039-.117h.039c-.04-.078.078-.039 0-.118h.04l-.04-.039h.04l-.08-.039h.08-.04c.118 0 .04-.078.118-.078h-.079c-.117-.117.118-.195.079-.351h.039l-.04-.079c.04 0 .04.04.079.04-.04-.04-.078-.04-.078-.118.039-.039.039 0 .039.039 0-.078-.04-.156 0-.195h-.04c0-.039 0-.078.04-.117.039 0 .039 0 .039.039 0 0 .039-.039 0-.039l.039.039c0-.039 0-.117.04-.078-.04 0-.08 0-.04-.039.078 0-.04-.078.04-.117 0 0 0 .039.038.039.04 0 0-.039-.039-.079h.04l-.04-.117c.079 0 0-.117.079-.078 0-.039-.04.039-.04-.039.04 0 0-.039.04-.039v-.039l.039.039c0-.039-.04-.078-.118-.078.04-.039 0-.078.079-.078 0-.078.156-.078.078-.157h.04v-.039h.038l-.039-.078h.04c.038-.039.038-.117.038-.195-.039-.078.04-.078 0-.117v-.039h.04c-.04-.039.078-.078.039-.078-.04-.039-.04-.079-.079-.079 0-.039.04 0 .079-.039 0-.039-.04-.039 0-.078h.039v-.078c-.04-.078.078-.039-.04-.117.04 0 0-.078.08-.039-.04-.078-.04-.117-.04-.195.078 0 0-.001.04-.04h-.04c0-.078.157-.195.157-.273h.039l-.04-.039c.04-.117.079-.234.118-.313-.04-.039-.078-.078-.04-.117 0-.078-.038-.156.04-.234h.04c-.04-.039 0-.039 0-.078h-.04c-.04-.039 0-.078.04-.078l-.04-.04h.04-.04.078s0-.078-.078-.078c.04 0 .04-.039.04 0l.038-.156h-.039c-.039 0-.078-.039-.039-.078.04.039.078 0 .118 0-.04-.039-.04 0-.079 0-.039-.039-.039-.078 0-.078 0-.039.079-.039.079-.078-.04-.039 0-.039-.079-.078 0-.04.079 0 .079 0-.04-.04 0-.079.039-.079-.118-.039.078-.117-.04-.117l.079-.039c-.04 0-.078-.039-.078-.039.039-.039.078 0 .117 0l-.117-.039c.156-.117.117-.352.235-.508 0-.078-.04-.195 0-.273l.039-.078-.079.039c0-.039-.039-.039-.039-.039a.446.446 0 00.118-.313c-.118-.078.117-.039.039-.117 0 0 .04 0 .04.039-.04-.078-.04-.117-.08-.235.118.04 0-.039.08-.039h-.04c.04 0 .04-.039.078-.039l-.039-.039h.04c0-.039 0-.156.078-.156-.04-.117 0-.313.039-.43-.04-.039-.04-.078-.04-.117l.079-.039c0-.039-.078-.078-.04-.117 0-.039.04-.078 0-.117 0-.039.04-.079.118-.039-.078-.04.04-.079.04-.079s.587-1.836.117-2.383c-.04-.039-.078-.078-.118-.078 0-.039.079-.039.04-.039-.04.039-.118-.039-.196 0v-.039c-.04 0 .039.039-.04.039l.079.039c0 .039-.04.039-.078.039.039.039.156.078.078.117 0 .04-.078 0-.078.04l-.04.039c.04-.039-.039-.079-.039-.039-.039.039.04 0 .04.039s-.04 0-.079 0v.039c-.04 0 0-.039-.04 0l.04.078c-.117 0 .04.078-.078.078 0-.039-.04 0-.079 0v.078s-.039-.039-.039 0c-.039 0 .04.039 0 .039-.039 0 0 .078-.078.039-.04.039.078.039.04.078-.04 0 0-.039-.04-.039v.078c-.04 0-.078-.039-.04-.039-.078.157-.313.196-.313.352-.039 0-.039-.039-.078-.039.04.117-.157.117-.157.234h.04c-.157.117-.118.274-.196.391h.039a.12.12 0 01.04.078c-.04 0-.08-.039-.08 0 0 0 .04-.039.04 0-.118.117-.157.391-.235.547 0 .273-.157.586-.157.859 0-.039.118 0 .079.04-.196.039 0 .156-.118.234.04.156-.157.273-.04.469h-.038c-.04 0 0 .039 0 .039-.04.039 0 .117 0 .156h.039c0 .039-.04 0-.04.039h-.038l.039.039c-.079-.039-.04.078-.079.117 0 .039.04.118 0 .196-.039 0-.078.078-.117.117 0 .117 0 .234-.04.352h.079v.039h-.04c-.078 0 0 .078-.038.078.078 0 0-.039 0-.039.039-.039.078 0 .039.039l.039.039h-.117c0 .117.078.195.039.312-.04-.039 0 .078-.079.039.04.079.079 0 .157.039v.04h-.078v.039h-.04c.04.117-.078.156-.039.234.04 0 0-.039.04 0 .039.078-.079.078-.04.156l-.039-.039c.04.039.079.039.04.078-.04 0-.04-.039-.079-.078 0 .039 0 .117.04.078 0 .039-.04.039-.04.039s.04-.039.078 0c-.039.039-.039.118-.078.157h-.04c.157.039.04 0 .04.078z" fill="#202020"/><path d="M95.608 203.821c0 .038.039 0 .039 0h-.039zm-.313 2.851h.038c.038.039 0 .039-.038 0zm43.046-35.433s.038-.039.038-.078l-.038.078zm.743-.469l-.039.039s.039 0 .039-.039zm-.078-.82s0 .04 0 0c0 .04.04 0 0 0zm.04.079c-.04-.041-.04 0 0 0zm-12.3 21.134c-.039 0-.039.039-.078.078l.078-.078zm.118.313c-.039.039 0 .039 0 0zm12.103-20.041c.039.039-.039.116 0 .116 0-.039.039-.077 0-.116zm-12.261 19.845l-.038.038s0-.038.038-.038zm10.029-13.673v.117c.039-.039.039-.078 0-.117z" fill="#202020"/><path d="M135.325 181.904c.117-.312.235-.742.391-1.015-.039-.079 0-.196.039-.313l.079.039v-.078c.039-.039 0 .078.039.039l-.039-.039c.039 0 .117-.195.117-.039l.157-.313c.039-.078-.039-.078 0-.156.039 0 0 .039.039.039.157-.195-.078-.351.078-.547v.039c0-.039.04-.117 0-.117-.117 0 .04.078-.039.117-.078-.039 0-.117-.078-.117.039-.039 0-.078.039-.117.078-.039.078-.195.196-.195 0-.039-.078-.118-.039-.196.078-.039.039.039.117-.039l-.039-.039c.039-.078.039-.039.078-.039.04-.078-.039-.078.04-.156l.039.078c0-.078.039-.078.078-.195.039 0 0 .039 0 .078.078-.039 0-.078.039-.117-.039 0-.039.039-.078 0 .039-.04-.039-.118.039-.118l.039.078c0-.117-.039-.078.04-.156h.039c-.039-.078.039-.156.117-.234v.039c0-.039-.039-.078 0-.117-.039.039-.039.039-.117 0 .117-.039-.039-.157.039-.235.039 0 .039.039 0 .078.078.079.117.118.117.196 0-.039 0-.117.04-.078l-.079-.039c0-.04.039-.04.039-.079-.039-.039-.078.039-.117-.039 0-.078.078 0 .078-.039 0-.117-.078-.078 0-.156v.039c.039-.039.039-.156.157-.156l.039.039c.039.117 0-.078.078 0-.039 0 0-.117.04-.156h-.079c-.117-.196.118.039.157-.118 0-.117-.039.039-.039-.039a.538.538 0 00.117-.156c.039 0 .079-.039.157-.039 0-.078.078-.156.039-.195-.078.078.039.117-.078.195l-.039-.039c.039-.078.039-.195.078-.234h-.039c.039-.118-.039-.157.039-.274.078 0 .039.078 0 .117.078-.039.039-.078.078-.156.039 0-.039.078 0 .117l.039-.117c-.078-.039.04-.078.04-.156.078-.157-.04-.235-.04-.352h.079c-.039.039-.039.039 0 .039 0-.078.117-.078.156-.039 0-.117-.039 0-.039-.039l.039-.117c-.039 0-.078.039-.078-.039 0-.039.039-.078.039-.156 0 0 .079 0 .039.039.04-.039.04-.079 0-.118-.078.079 0-.156-.078-.117l.078-.078v.039c.079 0 0-.078 0-.117.04-.039.04-.078.079-.078 0-.039.039-.078.078-.078 0-.039-.039 0-.039-.039l.039-.118c.039 0 .118.04.157.04 0-.04-.079-.04-.079-.118.04.078.079-.078.157 0 .078-.039.118-.156.118-.195-.04-.039-.04.078-.118.039.039-.195-.078-.234-.039-.391l-.039.039c0-.078 0-.078-.039-.156.039.039.195-.039.235-.156-.04-.039-.079.039-.118 0l.039-.078.039.039c0-.078.157-.117.079-.156l.117-.039h-.039c-.039-.04 0-.118 0-.157 0-.117.039-.117.078-.156-.039 0-.117.039-.078-.039.118.039.078-.156.157-.117 0-.039.078-.078 0-.078l.078.039c-.078-.039-.039-.157-.039-.235.117.078.039-.078.157-.078-.079-.039 0-.156-.04-.195 0-.078.079-.039.118-.039l-.039-.039c.039 0 .078-.118.156-.196l-.039-.078h.039s0-.078-.039-.039v-.039c-.078-.039 0-.039 0-.156h.039c0-.039.04 0 .079 0-.039 0-.118-.196-.196-.078-.039 0-.039-.078 0-.118h.078l-.078-.078c0-.039.078-.078.078-.117 0 .039.118.156.157.039 0 .078.039.117.039.156 0-.039.039-.039.039 0 0-.117-.039-.039 0-.156.079.039.079 0 .157-.078l-.078.039c0 .039-.04.039-.04.039s-.039-.117 0-.117c-.117.039-.039-.195-.117-.156 0 0 0-.078.039-.078.039.078.078-.039.157 0 0-.039-.079.039-.079 0s.079-.079.079-.079v.04l.039-.079c-.039-.039-.078.039-.078-.039l.039-.078c.039.039.117.039.117.117 0-.039.039-.195-.039-.156v-.039c-.039.039-.117.117-.078 0l-.039-.078.039-.039s-.039-.039 0-.039.039-.039.078 0c.039-.078 0-.078-.039-.117 0-.039.039-.079.078-.039.039-.079.039-.157.118-.196 0-.078 0 0-.039-.039.156-.039.117-.273.156-.391-.117 0 0-.039-.078-.078.039.039.117-.117.117.039v-.078c.079-.039 0 .117.118.078.039-.078-.078-.156 0-.273.078.039 0-.078.078-.039.039.039 0 .039 0 .078.079-.156-.078-.078-.078-.195.039-.118.078-.078.117-.078 0 0 .04-.079 0-.118.04.078-.078.118-.117.078.117-.039.039-.156.039-.195-.117.117-.039.117-.157.235.04.039.079.039.04.117-.04-.078-.04 0-.079 0 .039 0 0 .078 0 .117-.039 0-.078-.078-.117 0l.078.039c-.039.039-.078-.039-.078.039-.039-.039-.079 0-.079-.117-.117.078 0 .195 0 .312l-.039-.039c.039.039 0 .078 0 .078-.039.04-.039-.078-.078-.039l-.039.118c0 .039 0 .039-.039.078-.04-.039-.04-.078-.079-.078l.039.117c-.039-.039-.078.078-.078 0l-.039.156h-.078c0 .039 0 .039.039 0-.039.039.039.274-.079.195 0 .157 0 .157-.039.352-.039-.117-.117.117-.117-.039-.039.078 0 .117 0 .156-.039.039-.118 0-.118-.078v.078l.039.078c-.039.039-.078 0-.117.039l.039.039-.039.04c.039 0 .039.039.039.078v.039c0-.078-.039.039-.078 0 0 .039 0 .039-.039.117h.039c0 .117-.079 0-.079.078h.04c-.118.117-.04.234-.118.313 0-.039-.039-.079-.039-.039 0 .078-.078.234-.039.312-.079 0-.118 0-.157.078v.117c-.039.039-.039.196-.078.157.039.039-.039.039 0 .078h-.039.039c-.157.078 0 .195-.118.273v-.039.039c-.039 0-.039-.039-.039-.039l-.078.196.039-.04c0 .04.039.079-.039.118-.039-.118-.039.078-.079.078v-.039c0 .078 0 .078.04.078 0 .078-.118.039-.079.117l.039-.039c.04 0 .04.039.04.078 0 0-.04.039-.04 0 0 .078-.078.156-.039.195-.039.04-.039 0-.078 0 0 .157-.039.04-.039.196h-.039v.039l-.079.039h.039c0 .039 0 .078-.039.117l-.039-.039c-.039.117-.117.117-.117.274v-.04c.039.118-.118.04-.079.196h-.039v.078l-.039-.039.078.078h-.078v.039c-.118 0-.078.117-.157.156h.079c.078.235-.235.391-.275.664l-.039-.039.039.118c-.078.039-.039-.04-.078-.04 0 .118.078.079.039.196-.039.039-.039-.039-.039-.078 0 .117-.039.273-.117.351 0 .078-.079.157-.079.235-.039 0-.039-.039 0-.039 0 .039-.039.078-.039.078l-.039-.039c-.039.039-.039.195-.079.195.04 0 .079 0 .04.078-.079 0-.04.156-.079.235v-.079c-.039.039 0 .079 0 .118l-.039-.039-.039.195c-.078 0-.078.195-.118.156-.039.078.079-.039.04.039-.04 0 0 .078-.079.078l-.039.078-.039-.078c0 .039.039.118.078.118-.039.039-.039.117-.117.117v-.039c-.039.156-.235.195-.196.312 0 0-.039 0 0 0l-.039.078-.039-.039v.157h-.04a3.093 3.093 0 00-.156.351v-.039c0 .156-.079.117-.079.234l-.039.079v-.039c.039.078-.156.156-.078.117 0 .039 0 .117.039.156-.039.078-.039 0-.078.039-.039.078 0 .117-.039.195h-.04c0 .039 0 .079-.039.157v-.039c0 .117-.117.078-.039.234-.039.039-.039.117-.117.078-.04.156-.04.235-.079.352-.078 0 0 .039-.078.078h.039c-.078.156-.274.312-.352.508h-.04l.04.078c-.118.195-.235.43-.314.625 0 .078 0 .156-.039.234-.039.157-.078.313-.196.469 0 0-.039 0-.039-.039.039.078-.039.078-.078.117l.039-.039c.039.078-.039.117-.078.117v.079h-.04v.039h-.078c0 .039-.039.117 0 .195-.039 0-.078.039-.039 0l-.157.234.039-.039c.04 0 .04.117 0 .157 0-.079-.078-.04-.117-.04 0 .04.039 0 .078 0 0 .079-.039.157-.039.157v-.039c0 .078-.117.039-.117.117 0 .078-.04.078.039.117-.039.078-.079 0-.079.039s-.039.156-.117.156c.078.079-.157.196-.039.235l-.079.039c.04 0 .079.039.079.117-.039.039-.079 0-.118 0l.079.078c-.235.235-.353.625-.588.899-.039.156-.078.351-.196.468v-.039l-.117.157.117-.078c0 .039 0 .078-.039.117-.117.156-.313.351-.352.586.039.195-.157.039-.157.195 0 0 0-.039-.039-.039-.039.156-.079.234-.079.391-.078-.078-.039.078-.078.039l.039.039c-.039 0-.078.078-.117.039v.078l-.039-.039c-.04.078-.118.273-.235.234-.079.235-.275.508-.47.743 0 .039-.04.117-.079.195h-.352c-.04.078 0 .156-.079.195-.039.078-.078.078-.078.157-.039.039-.118.078-.157.039.079.078-.117.117-.117.117s-.157.156-.392.43l-.431.429-.509.508c-.744.703-1.606 1.328-1.919 1.719 0 .039-.078.117 0 .156-.039.039-.118-.039-.118.039.079 0 .04.118.118.157l-.039.039c0 .039.039-.078.078 0l-.039-.078h.117c.04-.039 0-.157.118-.157h-.039c.078-.039.078.039.078.039h.078c-.078 0-.117.118-.078.079.118-.04-.039 0 .039-.04.039-.039.039.04.079.04l.078-.04c0 .04-.039.04 0 .04l.078-.079c.079.079.079-.117.157-.039-.039.078.039.039.039.078l.157-.117c.039 0-.039.039 0 .039s.039-.039.039-.078c.039 0 .117-.078.157 0 .156-.039 0-.117.117-.117.039.039-.078.078 0 .078l.078-.078c0 .039 0 .078-.039.078.314-.156.627-.078.823-.312.078 0 0 .039 0 .078.156-.196.352-.117.47-.235l-.039-.039c.313-.078.509-.351.744-.547h-.039c0-.078.039-.117.078-.156.039 0 .039.078.078 0h-.078c.274-.117.627-.547.94-.859.353-.469.783-.938 1.097-1.446-.039.078-.118 0-.039-.039.235-.039.156-.273.352-.391.118-.312.431-.507.47-.82l.039.039c.039-.039 0-.039.039-.117.079-.078.079-.235.157-.274l-.039-.039c.039-.078.039 0 .078-.078h.039v-.078c.079.039.118-.156.157-.195.039-.078.078-.235.157-.352.039 0 .117-.156.196-.234.078-.196.195-.469.313-.664l-.078-.039.039-.079h.039c.078 0 .039-.156.117-.156-.078 0-.039.039-.039.078-.039.039-.078-.039-.039-.078v-.078h.118c.078-.195.078-.391.195-.586.04.039.04-.156.118-.078.039-.156-.078 0-.118-.117 0-.039 0-.078.04-.078 0 .039.078 0 .078.039l.039-.078v.039c.039-.196.196-.274.235-.43-.039-.039-.039.039-.078.039 0-.195.117-.117.156-.274l.04.04c0-.079-.04-.118.039-.157.039 0 0 .078 0 .117.039-.039.078-.195 0-.156 0-.078.078-.078.117-.078 0 0-.078.039-.078 0 .078-.078.117-.195.196-.312 0 0 .039 0 .039.039 0-.118.117-.039.157-.157z" fill="#202020"/><path d="M137.4 176.201l-.039.039s.039 0 .039.039v-.078zm-.94 2.539c0-.039-.039 0-.039 0h.039zm2.272-6.798c-.039.039-.039.039 0 0 0 .039 0 .039 0 0zm-.04.079l-.038.038.038-.038zm.196-.274s0 .038-.038.038c.038 0 .038 0 .038-.038zm-.508 1.407s-.04-.04 0 0c-.04 0-.04 0 0 0zm.862 3.75c.038.039-.039.039 0 .078 0-.039.038-.039 0-.078zm-5.327 10.86v.039c.039 0 0-.039 0-.039zm4.426-7.657s0 .038.038.038l-.038-.038z" fill="#202020"/><path d="M137.949 182.412c.039-.156.039-.391.118-.547-.04-.078-.04-.117-.04-.156l.079.039v-.039c.039 0 0 .039.039.039l-.039-.039c.039 0 .078-.117.117 0l.079-.156c0-.039-.079-.039-.04-.078.04 0 0 .039.04.039.117-.079-.118-.196-.04-.313v-.078c-.117 0 .04.039-.039.039-.078-.039-.039-.039-.078-.078.039 0 0-.039 0-.078.078-.039.039-.078.117-.117 0-.04-.078-.079-.078-.118.078 0 .039.039.078 0l-.039-.039c0-.039.039-.039.039 0 0-.039-.039-.039 0-.078l.04.039c0-.039 0-.039.039-.078.039 0 0 .039 0 .039.078 0 0-.039 0-.078-.039 0-.039.039-.079 0 0-.039-.039-.078 0-.078l.04.039c-.04-.078-.04-.039 0-.078h.039c-.039-.039.039-.078.039-.117 0-.039-.039-.039-.039-.078-.039.039-.039 0-.079 0 .079 0-.078-.079 0-.118.04 0 .04.039.04.039.078.039.156.079.156.118v-.039l-.078-.04v-.039c-.039-.039-.078 0-.118-.039 0-.039.079 0 .04 0 0-.078-.079-.039-.04-.078v.039c.04-.039 0-.078.118-.078l.039.039c.039.078 0-.039.078 0-.039 0-.039-.078 0-.078h-.039c-.156-.117.118.039.118-.039-.039-.078-.039 0-.039-.039.039-.039.078-.039.078-.078.039 0 .078-.039.117 0 0-.039.04-.078 0-.117-.078.039.04.078-.039.117l-.039-.039c0-.039 0-.117.039-.117h-.039c0-.079-.078-.118-.039-.157.039 0 .039.039.039.078.039-.039 0-.039.039-.078.039 0 0 .039.039.039v-.078c-.078-.039.04-.039 0-.078.04-.078-.078-.117-.117-.195h.078c-.039 0 0 0 0 .039 0-.039.118-.039.118 0 0-.039-.039 0-.079-.039l.04-.078c-.04 0-.079 0-.079-.039 0-.04 0-.04.039-.079 0 0 .079 0 .04.039.039 0 .039-.039 0-.078-.04.039 0-.078-.079-.078l.039-.039s.04 0 0 .039c.079 0 0-.039 0-.039l.04-.039s0-.039.039-.039c0-.039-.039 0-.079-.039l.04-.078c.039 0 .117.039.156.039-.039-.039-.117-.039-.078-.078.078.039.078-.039.117 0 .04 0 .079-.078.079-.117-.039-.04-.039.039-.079 0 0-.118-.156-.157-.078-.196h-.039c0-.039 0-.039-.039-.078.078.039.196 0 .196-.078-.04 0-.079.039-.118 0v-.039h.039c0-.039.118-.039.039-.078h.118-.039c-.039 0-.039-.078-.039-.078-.04-.039 0-.079.078-.079-.039 0-.118 0-.118-.039.118.039.079-.078.118-.039 0 0 .039-.039 0-.039l.078.039c-.078-.039-.078-.078-.078-.117.117.039 0-.039.117-.039-.078-.039 0-.078-.078-.117 0-.039.078 0 .118 0l-.04-.039c.04 0 .079-.078.118-.078l-.078-.039h.039l-.039-.039c-.079-.04 0-.04-.04-.079h.118c-.039 0-.157-.117-.196-.078-.039 0-.039-.039-.039-.039h.078l-.078-.039c0-.039.039-.039.078-.039 0 .039.118.078.157.039 0 .039.039.078.039.078h.039c0-.039-.039-.039-.039-.078.078 0 .078 0 .118-.039h-.079s-.078-.078-.039-.078c-.117.039-.078-.117-.117-.078 0 0 0-.039.039-.039.039.039.078 0 .117 0h-.078c0-.039.039-.039.078-.039l.039-.039c-.039 0-.078.039-.078 0 0 0 0-.039.039-.039.039.039.118.039.118.078 0-.039 0-.118-.079-.078v-.04c-.039 0-.078.04-.078 0l-.039-.039h.039s-.039 0-.039-.039h.078c0-.039-.039-.039-.039-.039 0-.039 0-.039.039 0 0-.039 0-.078.079-.117l-.04-.039c.118 0 .079-.117.079-.195-.118 0 0-.039-.118-.039.039.039.079-.039.118 0v-.039c.078 0 .039.078.117.039 0-.039-.117-.079-.039-.157.078.039 0-.039.078 0 .04 0 0 .039 0 .039.04-.078-.078-.039-.117-.117 0-.078.078-.039.117-.039v-.039c.04.039-.078.039-.117.039.078 0 .039-.078 0-.117-.118.078 0 .039-.118.117.04 0 .118.039.079.078-.039-.039-.039 0-.039 0 .039 0 0 .039.039.039-.039 0-.079-.039-.118 0l.118.039s-.079-.039-.039.039c-.04-.039-.079 0-.079-.078-.117.039.039.118.039.157h-.039c.039 0 0 .039.039.039-.039.039-.039-.039-.078-.039v.078c-.039-.039-.078-.039-.078-.039l.078.078c-.039 0-.078.039-.078 0v.078h-.079c0 .039.04.039.04 0-.04.039.078.156-.04.117.04.078 0 .078.04.195-.04-.078-.079.04-.118-.039-.039.039.039.039.039.079-.039.039-.117 0-.117-.04l.039.04.039.039c-.039.039-.078 0-.078.039l.078.039h-.039c.039 0 .039.039.039.039v.039c-.039-.039 0 .039-.078 0v.078h.039c.039.078-.078 0-.078.039h.039c-.079.039 0 .117-.039.156 0-.039-.079-.039-.04-.039 0 .039-.039.117.04.157-.079 0-.079 0-.157.039 0 .039 0 .039.039.078-.039.039 0 .078-.078.078.039 0 0 .039 0 .039h-.039.039c-.118.039.039.117-.079.156v.039c-.039 0-.039 0-.078-.039l-.039.117h.039c0 .039.039.039 0 .079-.078-.079 0 .039-.078.039v-.039c0 .039 0 .039.039.039 0 .039-.118 0-.039.039v-.039c.039 0 .078.039.039.039h-.039c0 .039-.039.078 0 .117h-.079c.04.078 0 .039 0 .117h-.039l.039.039h-.078.039v.078l-.039-.039c0 .078-.078.039-.039.117h-.039c.039.079-.079.039-.039.118h-.04v.039h-.039l.079.039h-.079.039c-.117 0-.039.078-.117.078h.078c.118.117-.156.195-.117.312h-.039l.039.079c-.039 0-.039-.04-.079-.04 0 .079.079.04.079.118-.039 0-.039-.039-.039-.039 0 .078 0 .156-.04.195h.04c0 .039-.04.078-.04.117-.039 0-.039-.039-.039-.039s-.039.039 0 .039l-.039-.039c0 .039 0 .117-.039.078.039 0 .078 0 .039.039-.078 0 0 .078-.039.117v-.039c-.039 0 0 .039.039.079h-.039v.117c-.078 0 0 .117-.078.078 0 .039.039 0 .039.039-.039 0 0 .039-.039.039v.039l-.04-.039c0 .039.04.078.079.078-.039 0-.039.078-.079.039 0 .078-.195.078-.117.156 0 0-.039 0 0 0v.04l-.039-.04.039.079h-.039c-.039.039-.039.117-.039.195s-.04.039-.04.117v.039h-.039c.039.039-.117.078-.039.078 0 .039.039.078.078.078 0 .04-.039 0-.078.039 0 .04.039.04 0 .079h-.039v.078c.039.078-.118.039 0 .117-.039 0-.039.078-.078.039v.195c-.079-.039 0 0-.079.039h.039c-.039.079-.195.157-.195.235h-.04l.04.039c-.079.078-.118.234-.157.312 0 .039.039.118.039.118 0 .078 0 .156-.078.234 0 0-.039 0-.039-.039.039.039 0 .039-.04.078h.04c.039.039-.04.039-.079.039l.039.039h-.039.039-.078s0 .078.039.117c-.039 0-.039.039-.039 0l-.078.118h.039c.039 0 .078.078.039.078-.039-.039-.078-.039-.117-.039 0 .039.039 0 .078.039s0 .078 0 .078v-.039c0 .039-.078 0-.078.039.039.039 0 .039.078.078 0 .039-.078 0-.078 0 .039.039 0 .078-.079.078.118.078-.078.078 0 .156h-.078c.039 0 .078.039.078.079h-.117l.078.039c-.157.117-.157.312-.313.429 0 .078 0 .196-.039.274l-.079.078.079-.039v.078c-.079.078-.196.156-.196.313.078.117-.118 0-.079.117l-.039-.039c0 .078 0 .117.039.234-.117-.078-.039.039-.078 0l.039.039c-.039 0-.078.039-.078 0l.039.039h-.039c-.039.039-.039.156-.118.117 0 .157-.078.274-.156.391.039.039 0 .078 0 .117h-.079c0 .039.039.117 0 .117 0 .04-.039.04 0 .118-.039.039-.078.039-.117 0 .078.039-.039.078-.039.078s-.275.39-.51.859-.509 1.016-.391 1.368c.039.039.039.078.078.117 0 .039-.078 0-.039.039.039-.039.117.078.157.078v.039c.039.039 0-.039.039 0l-.079-.039h.079c0-.039-.118-.117-.039-.117 0-.039.078 0 .078 0h.039c-.039 0 0 .078 0 .078.039-.039-.039 0 0-.039 0-.039.039 0 .078.039v-.039c.04.039 0 .039.04.039v-.078c.078.039 0-.078.078-.039 0 .039.039 0 .078.039l.039-.078v.039c.04 0 0-.039 0-.039.04 0 .04-.078.079-.039.078-.039-.079-.079 0-.118.039 0 0 .039.039.039v-.078s.039.039.039.078c.118-.117.392-.078.392-.234.039 0 .039.039.039.078 0-.117.196-.078.235-.156l-.039-.039c.196-.039.196-.235.313-.352h-.039c-.039-.039 0-.078 0-.117.039 0 .078.078.078 0h-.039c.157-.078.274-.312.431-.508.118-.273.313-.508.431-.781 0 .039-.118-.039-.078-.039.195 0 .039-.156.195-.196.04-.156.235-.234.157-.429h.039c.039 0 0-.039 0-.039.039-.039.039-.118.079-.157l-.04-.039c0-.039.04 0 .04-.039h.039l-.039-.078c.078.039.039-.078.117-.078 0-.039 0-.156.039-.195.039 0 .079-.078.118-.118.039-.117.078-.234.156-.351l-.078-.039v-.039h.039c.079 0 0-.078.079-.078-.079 0 0 0-.04.039-.039 0-.078-.039-.039-.039l-.039-.039c.039 0 .078 0 .118.039.039-.118 0-.196.039-.313.039.039.039-.078.117-.039 0-.078-.078-.039-.117-.078 0 0 0-.039.039-.039 0 0 .078 0 .078.039v-.039l.039.039c0-.117.118-.117.118-.235-.039 0-.039.04-.039 0-.039-.117.078-.039.078-.156l.039.039c-.039-.039-.039-.078 0-.078s.039.039.039.078c0-.039.04-.117-.039-.117 0-.039.039-.039.079-.039h-.079c.039-.039.079-.117.118-.156h.039c-.548-.352-.431-.274-.431-.352z" fill="#202020"/><path d="M138.693 179.404c0 .038 0 .038.038.038l-.038-.038zm-.393 1.328c0-.038-.038 0-.038 0h.038zm.393-1.992s.04.04 0 0c.04 0 .04 0 0 0zm.273-.939s-.038 0-.038-.038c0 .038 0 .038.038.038z" fill="#202020"/></svg>