<svg width="27" height="31" fill="none" xmlns="http://www.w3.org/2000/svg"><path fill-rule="evenodd" clip-rule="evenodd" d="M18.207.47l7.724 7.968c.205.212.319.493.319.786V23.1c0 3.796-3.127 7.003-6.83 7.003H7.24c-3.92 0-6.99-3.077-6.99-7.003v-3.785c0-.625.512-1.132 1.144-1.132.63 0 1.143.507 1.143 1.132V23.1c0 2.7 2.02 4.737 4.702 4.737h12.18c2.464 0 4.544-2.17 4.544-4.737V9.678l-5.838-6.023v1.976c0 1.516 1.245 2.753 2.776 2.756a1.138 1.138 0 011.14 1.136 1.138 1.138 0 01-1.143 1.13h-.001c-2.79-.007-5.06-2.259-5.06-5.022V2.387H7.24c-2.549 0-4.702 2.06-4.702 4.499v6.273c0 .625-.512 1.133-1.143 1.133A1.139 1.139 0 01.25 13.159V6.886C.25 3.219 3.45.122 7.24.122h9.653a.234.234 0 00.04-.01.166.166 0 01.048-.008c.018 0 .034.004.05.009a.223.223 0 00.039.009h.312c.311 0 .608.125.825.348zm-4.401 20.798c0 .625-.513 1.132-1.144 1.132a1.139 1.139 0 01-1.143-1.132v-7.186l-2.374 2.364a1.152 1.152 0 01-1.618.003 1.127 1.127 0 01-.003-1.603l4.328-4.305v-.002a1.153 1.153 0 011.62 0v.002l4.329 4.305a1.127 1.127 0 01-.003 1.603 1.152 1.152 0 01-1.618-.003l-2.374-2.364v7.186z" fill="#393D43"/></svg>