<svg width="30" height="31" fill="none" xmlns="http://www.w3.org/2000/svg"><path fill-rule="evenodd" clip-rule="evenodd" d="M30 13.336c0 .625-.509 1.134-1.134 1.134h-.014v-.027a1.147 1.147 0 01-1.147-1.144V9.482c0-4.58-2.505-7.085-7.071-7.085H9.384c-4.569 0-7.089 2.52-7.089 7.085v11.25c0 4.55 2.52 7.07 7.085 7.07h11.25c4.564 0 7.07-2.52 7.07-7.07a1.147 1.147 0 112.296 0c.004 5.782-3.584 9.37-9.362 9.37H9.379C3.588 30.103 0 26.515 0 20.737V9.487C0 3.691 3.588.103 9.38.103h11.25c5.755 0 9.37 3.588 9.37 9.38v3.853zm-16.78 3.737l6.324-6.325a1.125 1.125 0 111.592 1.591l-7.12 7.12a1.13 1.13 0 01-1.592 0l-3.56-3.56a1.125 1.125 0 111.592-1.592l2.764 2.766z" fill="#393D43"/></svg>