<svg width="30" height="31" fill="none" xmlns="http://www.w3.org/2000/svg"><path fill-rule="evenodd" clip-rule="evenodd" d="M17.425 1.88c.069-.612.615-1.061 1.22-.982 6.008.67 10.675 5.364 11.348 11.412a1.109 1.109 0 01-1.1 1.237c-.553 0-1.032-.42-1.095-.988-.56-5.008-4.422-8.895-9.397-9.451a1.111 1.111 0 01-.976-1.228zM2.755 6.322c-.76 1.05-.706 2.397.109 4.2a1.117 1.117 0 01-.548 1.473 1.1 1.1 0 01-1.463-.552C-.305 8.881-.284 6.742.918 5.089c.253-.43 3.056-4.053 5.68-3.88.758.063 1.454.42 2.108 1.063.694.68 3.615 4.258 3.849 5.394.252 1.217-.29 2.167-.687 2.861l-.001.002c-.39.684-.526.976-.392 1.346.987 2.43 2.51 4.413 4.512 5.854.497.359.612 1.051.257 1.553a1.101 1.101 0 01-1.541.258c-2.347-1.69-4.126-3.998-5.29-6.866-.511-1.416.096-2.479.539-3.255.333-.581.517-.928.439-1.3-.206-.535-2.361-3.402-3.229-4.254-.268-.265-.52-.421-.707-.436-.993-.046-3.211 2.077-3.7 2.893zm16.903 12.847c.825-.522 1.956-1.233 3.393-.934 1.127.234 4.677 3.176 5.354 3.876.638.656.993 1.356 1.053 2.083.096 2.731-3.54 5.588-3.955 5.829-.794.575-1.723.866-2.768.866-1.04 0-2.194-.288-3.445-.872-4.811-2.015-12.087-8.538-16.176-14.524a1.118 1.118 0 01.283-1.547 1.102 1.102 0 011.536.288c3.82 5.588 10.802 11.884 15.247 13.746 1.798.84 3.137.891 4.131.173.775-.474 2.982-2.68 2.942-3.829-.013-.135-.166-.388-.427-.658-.848-.875-3.694-3.044-4.29-3.27-.474-.096-.957.186-1.7.656l-.384.24a1.103 1.103 0 01-1.516-.38 1.117 1.117 0 01.377-1.528l.345-.215zm2.934-6.508a1.107 1.107 0 001.297.88c.6-.117.99-.703.873-1.305-.598-3.086-2.964-5.469-6.028-6.07a1.123 1.123 0 00-1.296.88 1.114 1.114 0 00.873 1.306 5.41 5.41 0 014.281 4.31z" fill="#393D43"/></svg>