<svg width="28" height="28" fill="none" xmlns="http://www.w3.org/2000/svg"><path fill-rule="evenodd" clip-rule="evenodd" d="M22.433 3.224c.946.75 1.593 1.736 1.819 2.779.252 1.164-.027 2.345-.784 3.321L10.552 25.981a3.452 3.452 0 01-2.696 1.348l-4.983.063h-.014a1.171 1.171 0 01-1.14-.913L.593 21.575a3.53 3.53 0 01.65-2.97l1.696-2.187a1.158 1.158 0 011.641-.2 1.19 1.19 0 01.198 1.659l-1.695 2.187a1.157 1.157 0 00-.214.975l.915 3.978 4.043-.05c.348-.005.67-.165.886-.442L21.628 7.866c.33-.425.444-.882.341-1.36-.11-.506-.457-1.011-.977-1.423l-2.166-1.718c-.838-.661-2.021-1.002-2.828.043l-1.706 2.198L17 7.803c.503.406.584 1.151.18 1.658a1.158 1.158 0 01-1.642.185L12.85 7.467l-4.419 5.7a1.159 1.159 0 01-1.642.2 1.192 1.192 0 01-.198-1.658l7.567-9.759c1.467-1.896 4.039-2.082 6.11-.442l2.165 1.716zM16.394 25.03h9.937c.645 0 1.169.53 1.169 1.181 0 .652-.524 1.182-1.169 1.182h-9.937c-.646 0-1.168-.53-1.168-1.181 0-.653.522-1.182 1.168-1.182z" fill="#393D43"/></svg>